<?xml version="1.0" encoding="utf-8" standalone="no"?>
<!DOCTYPE svg PUBLIC "-//W3C//DTD SVG 1.1//EN"
  "http://www.w3.org/Graphics/SVG/1.1/DTD/svg11.dtd">
<svg xmlns:xlink="http://www.w3.org/1999/xlink" width="458.628pt" height="182.76pt" viewBox="0 0 458.628 182.76" xmlns="http://www.w3.org/2000/svg" version="1.1">
 <metadata>
  <rdf:RDF xmlns:dc="http://purl.org/dc/elements/1.1/" xmlns:cc="http://creativecommons.org/ns#" xmlns:rdf="http://www.w3.org/1999/02/22-rdf-syntax-ns#">
   <cc:Work>
    <dc:type rdf:resource="http://purl.org/dc/dcmitype/StillImage"/>
    <dc:date>2024-08-02T20:34:50.871013</dc:date>
    <dc:format>image/svg+xml</dc:format>
    <dc:creator>
     <cc:Agent>
      <dc:title>Matplotlib v3.9.1, https://matplotlib.org/</dc:title>
     </cc:Agent>
    </dc:creator>
   </cc:Work>
  </rdf:RDF>
 </metadata>
 <defs>
  <style type="text/css">*{stroke-linejoin: round; stroke-linecap: butt}</style>
 </defs>
 <g id="figure_1">
  <g id="patch_1">
   <path d="M 0 182.76 
L 458.628 182.76 
L 458.628 0 
L 0 0 
z
" style="fill: #ffffff"/>
  </g>
  <g id="axes_1">
   <g id="patch_2">
    <path d="M 43.668 154.48 
C 48.441656 154.48 53.020438 152.583406 56.395922 149.207922 
C 59.771406 145.832438 61.668 141.253656 61.668 136.48 
C 61.668 131.706344 59.771406 127.127562 56.395922 123.752078 
C 53.020438 120.376594 48.441656 118.48 43.668 118.48 
C 38.894344 118.48 34.315562 120.376594 30.940078 123.752078 
C 27.564594 127.127562 25.668 131.706344 25.668 136.48 
C 25.668 141.253656 27.564594 145.832438 30.940078 149.207922 
C 34.315562 152.583406 38.894344 154.48 43.668 154.48 
L 43.668 154.48 
z
" clip-path="url(#pdd55d402e7)" style="fill: none; stroke: #000000; stroke-width: 2; stroke-linejoin: miter"/>
   </g>
   <g id="patch_3">
    <path d="M 151.668 82.48 
C 156.441656 82.48 161.020438 80.583406 164.395922 77.207922 
C 167.771406 73.832438 169.668 69.253656 169.668 64.48 
C 169.668 59.706344 167.771406 55.127562 164.395922 51.752078 
C 161.020438 48.376594 156.441656 46.48 151.668 46.48 
C 146.894344 46.48 142.315562 48.376594 138.940078 51.752078 
C 135.564594 55.127562 133.668 59.706344 133.668 64.48 
C 133.668 69.253656 135.564594 73.832438 138.940078 77.207922 
C 142.315562 80.583406 146.894344 82.48 151.668 82.48 
L 151.668 82.48 
z
" clip-path="url(#pdd55d402e7)" style="fill: none; stroke: #000000; stroke-width: 2; stroke-linejoin: miter"/>
   </g>
   <g id="patch_4">
    <path d="M 259.668 154.48 
C 264.441656 154.48 269.020438 152.583406 272.395922 149.207922 
C 275.771406 145.832438 277.668 141.253656 277.668 136.48 
C 277.668 131.706344 275.771406 127.127562 272.395922 123.752078 
C 269.020438 120.376594 264.441656 118.48 259.668 118.48 
C 254.894344 118.48 250.315562 120.376594 246.940078 123.752078 
C 243.564594 127.127562 241.668 131.706344 241.668 136.48 
C 241.668 141.253656 243.564594 145.832438 246.940078 149.207922 
C 250.315562 152.583406 254.894344 154.48 259.668 154.48 
L 259.668 154.48 
z
" clip-path="url(#pdd55d402e7)" style="fill: none; stroke: #000000; stroke-width: 2; stroke-linejoin: miter"/>
   </g>
   <g id="line2d_1">
    <path d="M 43.668 28.48 
L 43.668 46.48 
L 52.668 49.48 
L 34.668 55.48 
L 52.668 61.48 
L 34.668 67.48 
L 52.668 73.48 
L 34.668 79.48 
L 43.668 82.48 
L 43.668 100.48 
" clip-path="url(#pdd55d402e7)" style="fill: none; stroke: #000000; stroke-width: 2; stroke-linecap: round"/>
   </g>
   <g id="line2d_2">
    <path d="M 43.668 100.48 
L 43.668 118.48 
L 43.668 118.48 
M 43.668 154.48 
L 43.668 154.48 
L 43.668 172.48 
" clip-path="url(#pdd55d402e7)" style="fill: none; stroke: #000000; stroke-width: 2; stroke-linecap: round"/>
   </g>
   <g id="line2d_3">
    <path d="M 47.268 145.48 
L 40.068 145.48 
" clip-path="url(#pdd55d402e7)" style="fill: none; stroke: #000000; stroke-width: 2; stroke-linecap: round"/>
   </g>
   <g id="line2d_4">
    <path d="M 43.668 123.88 
L 43.668 131.08 
" clip-path="url(#pdd55d402e7)" style="fill: none; stroke: #000000; stroke-width: 2; stroke-linecap: round"/>
   </g>
   <g id="line2d_5">
    <path d="M 47.268 127.48 
L 40.068 127.48 
" clip-path="url(#pdd55d402e7)" style="fill: none; stroke: #000000; stroke-width: 2; stroke-linecap: round"/>
   </g>
   <g id="line2d_6">
    <path d="M 43.668 172.48 
L 97.668 172.48 
L 151.668 172.48 
" clip-path="url(#pdd55d402e7)" style="fill: none; stroke: #000000; stroke-width: 2; stroke-linecap: round"/>
   </g>
   <g id="line2d_7">
    <path d="M 43.668 28.48 
L 97.668 28.48 
L 151.668 28.48 
" clip-path="url(#pdd55d402e7)" style="fill: none; stroke: #000000; stroke-width: 2; stroke-linecap: round"/>
   </g>
   <g id="line2d_8">
    <path d="M 151.668 28.48 
L 151.668 46.48 
L 151.668 46.48 
M 151.668 82.48 
L 151.668 82.48 
L 151.668 100.48 
" clip-path="url(#pdd55d402e7)" style="fill: none; stroke: #000000; stroke-width: 2; stroke-linecap: round"/>
   </g>
   <g id="line2d_9">
    <path d="M 155.268 73.48 
L 148.068 73.48 
" clip-path="url(#pdd55d402e7)" style="fill: none; stroke: #000000; stroke-width: 2; stroke-linecap: round"/>
   </g>
   <g id="line2d_10">
    <path d="M 151.668 51.88 
L 151.668 59.08 
" clip-path="url(#pdd55d402e7)" style="fill: none; stroke: #000000; stroke-width: 2; stroke-linecap: round"/>
   </g>
   <g id="line2d_11">
    <path d="M 155.268 55.48 
L 148.068 55.48 
" clip-path="url(#pdd55d402e7)" style="fill: none; stroke: #000000; stroke-width: 2; stroke-linecap: round"/>
   </g>
   <g id="line2d_12">
    <path d="M 151.668 100.48 
L 151.668 118.48 
L 160.668 121.48 
L 142.668 127.48 
L 160.668 133.48 
L 142.668 139.48 
L 160.668 145.48 
L 142.668 151.48 
L 151.668 154.48 
L 151.668 172.48 
" clip-path="url(#pdd55d402e7)" style="fill: none; stroke: #000000; stroke-width: 2; stroke-linecap: round"/>
   </g>
   <g id="line2d_13">
    <path d="M 151.668 172.48 
L 205.668 172.48 
L 259.668 172.48 
" clip-path="url(#pdd55d402e7)" style="fill: none; stroke: #000000; stroke-width: 2; stroke-linecap: round"/>
   </g>
   <g id="line2d_14">
    <path d="M 259.668 172.48 
L 259.668 154.48 
L 259.668 154.48 
M 259.668 118.48 
L 259.668 118.48 
L 259.668 100.48 
" clip-path="url(#pdd55d402e7)" style="fill: none; stroke: #000000; stroke-width: 2; stroke-linecap: round"/>
   </g>
   <g id="line2d_15">
    <path d="M 259.668 145.48 
L 259.668 136.48 
" clip-path="url(#pdd55d402e7)" style="fill: none; stroke: #000000; stroke-width: 2; stroke-linecap: round"/>
   </g>
   <g id="patch_5">
    <path d="M 256.968 136.48 
L 259.668 127.48 
L 262.368 136.48 
z
" clip-path="url(#pdd55d402e7)"/>
   </g>
   <g id="line2d_16">
    <path d="M 259.668 100.48 
L 259.668 82.48 
L 250.668 79.48 
L 268.668 73.48 
L 250.668 67.48 
L 268.668 61.48 
L 250.668 55.48 
L 268.668 49.48 
L 259.668 46.48 
L 259.668 28.48 
" clip-path="url(#pdd55d402e7)" style="fill: none; stroke: #000000; stroke-width: 2; stroke-linecap: round"/>
   </g>
   <g id="line2d_17">
    <path d="M 259.668 28.48 
L 205.668 28.48 
L 151.668 28.48 
" clip-path="url(#pdd55d402e7)" style="fill: none; stroke: #000000; stroke-width: 2; stroke-linecap: round"/>
   </g>
   <g id="line2d_18">
    <path d="M 259.668 28.48 
L 313.668 28.48 
L 367.668 28.48 
" clip-path="url(#pdd55d402e7)" style="fill: none; stroke: #000000; stroke-width: 2; stroke-linecap: round"/>
   </g>
   <g id="line2d_19">
    <path d="M 367.668 28.48 
L 367.668 82.48 
L 376.668 85.48 
L 358.668 91.48 
L 376.668 97.48 
L 358.668 103.48 
L 376.668 109.48 
L 358.668 115.48 
L 367.668 118.48 
L 367.668 172.48 
" clip-path="url(#pdd55d402e7)" style="fill: none; stroke: #000000; stroke-width: 2; stroke-linecap: round"/>
   </g>
   <g id="line2d_20">
    <path d="M 367.668 172.48 
L 313.668 172.48 
L 259.668 172.48 
" clip-path="url(#pdd55d402e7)" style="fill: none; stroke: #000000; stroke-width: 2; stroke-linecap: round"/>
   </g>
   <g id="line2d_21">
    <path d="M 367.668 28.48 
L 385.668 28.48 
L 388.668 19.48 
L 394.668 37.48 
L 400.668 19.48 
L 406.668 37.48 
L 412.668 19.48 
L 418.668 37.48 
L 421.668 28.48 
L 439.668 28.48 
" clip-path="url(#pdd55d402e7)" style="fill: none; stroke: #000000; stroke-width: 2; stroke-linecap: round"/>
   </g>
   <g id="line2d_22">
    <path d="M 367.668 172.48 
L 403.668 172.48 
L 439.668 172.48 
" clip-path="url(#pdd55d402e7)" style="fill: none; stroke: #000000; stroke-width: 2; stroke-linecap: round"/>
   </g>
   <g id="text_1">
    <!-- 2Ω -->
    <g transform="translate(11.461438 68.343125) scale(0.14 -0.14)">
     <defs>
      <path id="DejaVuSans-32" d="M 1228 531 
L 3431 531 
L 3431 0 
L 469 0 
L 469 531 
Q 828 903 1448 1529 
Q 2069 2156 2228 2338 
Q 2531 2678 2651 2914 
Q 2772 3150 2772 3378 
Q 2772 3750 2511 3984 
Q 2250 4219 1831 4219 
Q 1534 4219 1204 4116 
Q 875 4013 500 3803 
L 500 4441 
Q 881 4594 1212 4672 
Q 1544 4750 1819 4750 
Q 2544 4750 2975 4387 
Q 3406 4025 3406 3419 
Q 3406 3131 3298 2873 
Q 3191 2616 2906 2266 
Q 2828 2175 2409 1742 
Q 1991 1309 1228 531 
z
" transform="scale(0.015625)"/>
      <path id="DejaVuSans-3a9" d="M 4647 556 
L 4647 0 
L 2772 0 
L 2772 556 
Q 3325 859 3634 1378 
Q 3944 1897 3944 2528 
Q 3944 3278 3531 3731 
Q 3119 4184 2444 4184 
Q 1769 4184 1355 3729 
Q 941 3275 941 2528 
Q 941 1897 1250 1378 
Q 1563 859 2119 556 
L 2119 0 
L 244 0 
L 244 556 
L 1241 556 
Q 747 991 519 1456 
Q 294 1922 294 2497 
Q 294 3491 894 4106 
Q 1491 4722 2444 4722 
Q 3391 4722 3994 4106 
Q 4594 3494 4594 2528 
Q 4594 1922 4372 1459 
Q 4150 997 3647 556 
L 4647 556 
z
" transform="scale(0.015625)"/>
     </defs>
     <use xlink:href="#DejaVuSans-32"/>
     <use xlink:href="#DejaVuSans-3a9" x="63.623047"/>
    </g>
   </g>
   <g id="text_2">
    <!-- 2V -->
    <g transform="translate(3.583625 140.343125) scale(0.14 -0.14)">
     <defs>
      <path id="DejaVuSans-56" d="M 1831 0 
L 50 4666 
L 709 4666 
L 2188 738 
L 3669 4666 
L 4325 4666 
L 2547 0 
L 1831 0 
z
" transform="scale(0.015625)"/>
     </defs>
     <use xlink:href="#DejaVuSans-32"/>
     <use xlink:href="#DejaVuSans-56" x="63.623047"/>
    </g>
   </g>
   <g id="patch_6">
    <path d="M 151.668 175.18 
C 152.384048 175.18 153.070866 174.895511 153.577188 174.389188 
C 154.083511 173.882866 154.368 173.196048 154.368 172.48 
C 154.368 171.763952 154.083511 171.077134 153.577188 170.570812 
C 153.070866 170.064489 152.384048 169.78 151.668 169.78 
C 150.951952 169.78 150.265134 170.064489 149.758812 170.570812 
C 149.252489 171.077134 148.968 171.763952 148.968 172.48 
C 148.968 173.196048 149.252489 173.882866 149.758812 174.389188 
C 150.265134 174.895511 150.951952 175.18 151.668 175.18 
z
" clip-path="url(#pdd55d402e7)" style="stroke: #000000; stroke-width: 2; stroke-linejoin: miter"/>
   </g>
   <g id="patch_7">
    <path d="M 151.668 31.18 
C 152.384048 31.18 153.070866 30.895511 153.577188 30.389188 
C 154.083511 29.882866 154.368 29.196048 154.368 28.48 
C 154.368 27.763952 154.083511 27.077134 153.577188 26.570812 
C 153.070866 26.064489 152.384048 25.78 151.668 25.78 
C 150.951952 25.78 150.265134 26.064489 149.758812 26.570812 
C 149.252489 27.077134 148.968 27.763952 148.968 28.48 
C 148.968 29.196048 149.252489 29.882866 149.758812 30.389188 
C 150.265134 30.895511 150.951952 31.18 151.668 31.18 
z
" clip-path="url(#pdd55d402e7)" style="stroke: #000000; stroke-width: 2; stroke-linejoin: miter"/>
   </g>
   <g id="text_3">
    <!-- 6V -->
    <g transform="translate(111.583625 68.343125) scale(0.14 -0.14)">
     <defs>
      <path id="DejaVuSans-36" d="M 2113 2584 
Q 1688 2584 1439 2293 
Q 1191 2003 1191 1497 
Q 1191 994 1439 701 
Q 1688 409 2113 409 
Q 2538 409 2786 701 
Q 3034 994 3034 1497 
Q 3034 2003 2786 2293 
Q 2538 2584 2113 2584 
z
M 3366 4563 
L 3366 3988 
Q 3128 4100 2886 4159 
Q 2644 4219 2406 4219 
Q 1781 4219 1451 3797 
Q 1122 3375 1075 2522 
Q 1259 2794 1537 2939 
Q 1816 3084 2150 3084 
Q 2853 3084 3261 2657 
Q 3669 2231 3669 1497 
Q 3669 778 3244 343 
Q 2819 -91 2113 -91 
Q 1303 -91 875 529 
Q 447 1150 447 2328 
Q 447 3434 972 4092 
Q 1497 4750 2381 4750 
Q 2619 4750 2861 4703 
Q 3103 4656 3366 4563 
z
" transform="scale(0.015625)"/>
     </defs>
     <use xlink:href="#DejaVuSans-36"/>
     <use xlink:href="#DejaVuSans-56" x="63.623047"/>
    </g>
   </g>
   <g id="patch_8">
    <path d="M 151.668 175.18 
C 152.384048 175.18 153.070866 174.895511 153.577188 174.389188 
C 154.083511 173.882866 154.368 173.196048 154.368 172.48 
C 154.368 171.763952 154.083511 171.077134 153.577188 170.570812 
C 153.070866 170.064489 152.384048 169.78 151.668 169.78 
C 150.951952 169.78 150.265134 170.064489 149.758812 170.570812 
C 149.252489 171.077134 148.968 171.763952 148.968 172.48 
C 148.968 173.196048 149.252489 173.882866 149.758812 174.389188 
C 150.265134 174.895511 150.951952 175.18 151.668 175.18 
z
" clip-path="url(#pdd55d402e7)" style="stroke: #000000; stroke-width: 2; stroke-linejoin: miter"/>
   </g>
   <g id="text_4">
    <!-- 5Ω -->
    <g transform="translate(119.461437 141.693125) scale(0.14 -0.14)">
     <defs>
      <path id="DejaVuSans-35" d="M 691 4666 
L 3169 4666 
L 3169 4134 
L 1269 4134 
L 1269 2991 
Q 1406 3038 1543 3061 
Q 1681 3084 1819 3084 
Q 2600 3084 3056 2656 
Q 3513 2228 3513 1497 
Q 3513 744 3044 326 
Q 2575 -91 1722 -91 
Q 1428 -91 1123 -41 
Q 819 9 494 109 
L 494 744 
Q 775 591 1075 516 
Q 1375 441 1709 441 
Q 2250 441 2565 725 
Q 2881 1009 2881 1497 
Q 2881 1984 2565 2268 
Q 2250 2553 1709 2553 
Q 1456 2553 1204 2497 
Q 953 2441 691 2322 
L 691 4666 
z
" transform="scale(0.015625)"/>
     </defs>
     <use xlink:href="#DejaVuSans-35"/>
     <use xlink:href="#DejaVuSans-3a9" x="63.623047"/>
    </g>
   </g>
   <g id="patch_9">
    <path d="M 259.668 175.18 
C 260.384048 175.18 261.070866 174.895511 261.577188 174.389188 
C 262.083511 173.882866 262.368 173.196048 262.368 172.48 
C 262.368 171.763952 262.083511 171.077134 261.577188 170.570812 
C 261.070866 170.064489 260.384048 169.78 259.668 169.78 
C 258.951952 169.78 258.265134 170.064489 257.758812 170.570812 
C 257.252489 171.077134 256.968 171.763952 256.968 172.48 
C 256.968 173.196048 257.252489 173.882866 257.758812 174.389188 
C 258.265134 174.895511 258.951952 175.18 259.668 175.18 
z
" clip-path="url(#pdd55d402e7)" style="stroke: #000000; stroke-width: 2; stroke-linejoin: miter"/>
   </g>
   <g id="text_5">
    <!-- 3A -->
    <g transform="translate(219.583625 140.343125) scale(0.14 -0.14)">
     <defs>
      <path id="DejaVuSans-33" d="M 2597 2516 
Q 3050 2419 3304 2112 
Q 3559 1806 3559 1356 
Q 3559 666 3084 287 
Q 2609 -91 1734 -91 
Q 1441 -91 1130 -33 
Q 819 25 488 141 
L 488 750 
Q 750 597 1062 519 
Q 1375 441 1716 441 
Q 2309 441 2620 675 
Q 2931 909 2931 1356 
Q 2931 1769 2642 2001 
Q 2353 2234 1838 2234 
L 1294 2234 
L 1294 2753 
L 1863 2753 
Q 2328 2753 2575 2939 
Q 2822 3125 2822 3475 
Q 2822 3834 2567 4026 
Q 2313 4219 1838 4219 
Q 1578 4219 1281 4162 
Q 984 4106 628 3988 
L 628 4550 
Q 988 4650 1302 4700 
Q 1616 4750 1894 4750 
Q 2613 4750 3031 4423 
Q 3450 4097 3450 3541 
Q 3450 3153 3228 2886 
Q 3006 2619 2597 2516 
z
" transform="scale(0.015625)"/>
      <path id="DejaVuSans-41" d="M 2188 4044 
L 1331 1722 
L 3047 1722 
L 2188 4044 
z
M 1831 4666 
L 2547 4666 
L 4325 0 
L 3669 0 
L 3244 1197 
L 1141 1197 
L 716 0 
L 50 0 
L 1831 4666 
z
" transform="scale(0.015625)"/>
     </defs>
     <use xlink:href="#DejaVuSans-33"/>
     <use xlink:href="#DejaVuSans-41" x="63.623047"/>
    </g>
   </g>
   <g id="patch_10">
    <path d="M 259.668 31.18 
C 260.384048 31.18 261.070866 30.895511 261.577188 30.389188 
C 262.083511 29.882866 262.368 29.196048 262.368 28.48 
C 262.368 27.763952 262.083511 27.077134 261.577188 26.570812 
C 261.070866 26.064489 260.384048 25.78 259.668 25.78 
C 258.951952 25.78 258.265134 26.064489 257.758812 26.570812 
C 257.252489 27.077134 256.968 27.763952 256.968 28.48 
C 256.968 29.196048 257.252489 29.882866 257.758812 30.389188 
C 258.265134 30.895511 258.951952 31.18 259.668 31.18 
z
" clip-path="url(#pdd55d402e7)" style="stroke: #000000; stroke-width: 2; stroke-linejoin: miter"/>
   </g>
   <g id="text_6">
    <!-- 1Ω -->
    <g transform="translate(227.461437 66.993125) scale(0.14 -0.14)">
     <defs>
      <path id="DejaVuSans-31" d="M 794 531 
L 1825 531 
L 1825 4091 
L 703 3866 
L 703 4441 
L 1819 4666 
L 2450 4666 
L 2450 531 
L 3481 531 
L 3481 0 
L 794 0 
L 794 531 
z
" transform="scale(0.015625)"/>
     </defs>
     <use xlink:href="#DejaVuSans-31"/>
     <use xlink:href="#DejaVuSans-3a9" x="63.623047"/>
    </g>
   </g>
   <g id="patch_11">
    <path d="M 367.668 31.18 
C 368.384048 31.18 369.070866 30.895511 369.577188 30.389188 
C 370.083511 29.882866 370.368 29.196048 370.368 28.48 
C 370.368 27.763952 370.083511 27.077134 369.577188 26.570812 
C 369.070866 26.064489 368.384048 25.78 367.668 25.78 
C 366.951952 25.78 366.265134 26.064489 365.758812 26.570812 
C 365.252489 27.077134 364.968 27.763952 364.968 28.48 
C 364.968 29.196048 365.252489 29.882866 365.758812 30.389188 
C 366.265134 30.895511 366.951952 31.18 367.668 31.18 
z
" clip-path="url(#pdd55d402e7)" style="stroke: #000000; stroke-width: 2; stroke-linejoin: miter"/>
   </g>
   <g id="patch_12">
    <path d="M 367.668 175.18 
C 368.384048 175.18 369.070866 174.895511 369.577188 174.389188 
C 370.083511 173.882866 370.368 173.196048 370.368 172.48 
C 370.368 171.763952 370.083511 171.077134 369.577188 170.570812 
C 369.070866 170.064489 368.384048 169.78 367.668 169.78 
C 366.951952 169.78 366.265134 170.064489 365.758812 170.570812 
C 365.252489 171.077134 364.968 171.763952 364.968 172.48 
C 364.968 173.196048 365.252489 173.882866 365.758812 174.389188 
C 366.265134 174.895511 366.951952 175.18 367.668 175.18 
z
" clip-path="url(#pdd55d402e7)" style="stroke: #000000; stroke-width: 2; stroke-linejoin: miter"/>
   </g>
   <g id="text_7">
    <!-- 6Ω -->
    <g transform="translate(335.461438 105.693125) scale(0.14 -0.14)">
     <use xlink:href="#DejaVuSans-36"/>
     <use xlink:href="#DejaVuSans-3a9" x="63.623047"/>
    </g>
   </g>
   <g id="patch_13">
    <path d="M 439.668 31.18 
C 440.384048 31.18 441.070866 30.895511 441.577188 30.389188 
C 442.083511 29.882866 442.368 29.196048 442.368 28.48 
C 442.368 27.763952 442.083511 27.077134 441.577188 26.570812 
C 441.070866 26.064489 440.384048 25.78 439.668 25.78 
C 438.951952 25.78 438.265134 26.064489 437.758812 26.570812 
C 437.252489 27.077134 436.968 27.763952 436.968 28.48 
C 436.968 29.196048 437.252489 29.882866 437.758812 30.389188 
C 438.265134 30.895511 438.951952 31.18 439.668 31.18 
z
" clip-path="url(#pdd55d402e7)" style="fill: #ffffff; stroke: #000000; stroke-width: 2; stroke-linejoin: miter"/>
   </g>
   <g id="text_8">
    <!-- 1Ω -->
    <g transform="translate(395.214719 12.968437) scale(0.14 -0.14)">
     <use xlink:href="#DejaVuSans-31"/>
     <use xlink:href="#DejaVuSans-3a9" x="63.623047"/>
    </g>
   </g>
   <g id="text_9">
    <!-- a -->
    <g transform="translate(445.968 32.343125) scale(0.14 -0.14)">
     <defs>
      <path id="DejaVuSans-61" d="M 2194 1759 
Q 1497 1759 1228 1600 
Q 959 1441 959 1056 
Q 959 750 1161 570 
Q 1363 391 1709 391 
Q 2188 391 2477 730 
Q 2766 1069 2766 1631 
L 2766 1759 
L 2194 1759 
z
M 3341 1997 
L 3341 0 
L 2766 0 
L 2766 531 
Q 2569 213 2275 61 
Q 1981 -91 1556 -91 
Q 1019 -91 701 211 
Q 384 513 384 1019 
Q 384 1609 779 1909 
Q 1175 2209 1959 2209 
L 2766 2209 
L 2766 2266 
Q 2766 2663 2505 2880 
Q 2244 3097 1772 3097 
Q 1472 3097 1187 3025 
Q 903 2953 641 2809 
L 641 3341 
Q 956 3463 1253 3523 
Q 1550 3584 1831 3584 
Q 2591 3584 2966 3190 
Q 3341 2797 3341 1997 
z
" transform="scale(0.015625)"/>
     </defs>
     <use xlink:href="#DejaVuSans-61"/>
    </g>
   </g>
   <g id="patch_14">
    <path d="M 439.668 175.18 
C 440.384048 175.18 441.070866 174.895511 441.577188 174.389188 
C 442.083511 173.882866 442.368 173.196048 442.368 172.48 
C 442.368 171.763952 442.083511 171.077134 441.577188 170.570812 
C 441.070866 170.064489 440.384048 169.78 439.668 169.78 
C 438.951952 169.78 438.265134 170.064489 437.758812 170.570812 
C 437.252489 171.077134 436.968 171.763952 436.968 172.48 
C 436.968 173.196048 437.252489 173.882866 437.758812 174.389188 
C 438.265134 174.895511 438.951952 175.18 439.668 175.18 
z
" clip-path="url(#pdd55d402e7)" style="fill: #ffffff; stroke: #000000; stroke-width: 2; stroke-linejoin: miter"/>
   </g>
   <g id="text_10">
    <!-- b -->
    <g transform="translate(445.968 176.343125) scale(0.14 -0.14)">
     <defs>
      <path id="DejaVuSans-62" d="M 3116 1747 
Q 3116 2381 2855 2742 
Q 2594 3103 2138 3103 
Q 1681 3103 1420 2742 
Q 1159 2381 1159 1747 
Q 1159 1113 1420 752 
Q 1681 391 2138 391 
Q 2594 391 2855 752 
Q 3116 1113 3116 1747 
z
M 1159 2969 
Q 1341 3281 1617 3432 
Q 1894 3584 2278 3584 
Q 2916 3584 3314 3078 
Q 3713 2572 3713 1747 
Q 3713 922 3314 415 
Q 2916 -91 2278 -91 
Q 1894 -91 1617 61 
Q 1341 213 1159 525 
L 1159 0 
L 581 0 
L 581 4863 
L 1159 4863 
L 1159 2969 
z
" transform="scale(0.015625)"/>
     </defs>
     <use xlink:href="#DejaVuSans-62"/>
    </g>
   </g>
  </g>
 </g>
 <defs>
  <clipPath id="pdd55d402e7">
   <rect x="0" y="0" width="458.628" height="182.76"/>
  </clipPath>
 </defs>
</svg>