<?xml version="1.0" encoding="utf-8" standalone="no"?>
<!DOCTYPE svg PUBLIC "-//W3C//DTD SVG 1.1//EN"
  "http://www.w3.org/Graphics/SVG/1.1/DTD/svg11.dtd">
<svg xmlns:xlink="http://www.w3.org/1999/xlink" width="515.603438pt" height="230.66pt" viewBox="0 0 515.603438 230.66" xmlns="http://www.w3.org/2000/svg" version="1.1">
 <metadata>
  <rdf:RDF xmlns:dc="http://purl.org/dc/elements/1.1/" xmlns:cc="http://creativecommons.org/ns#" xmlns:rdf="http://www.w3.org/1999/02/22-rdf-syntax-ns#">
   <cc:Work>
    <dc:type rdf:resource="http://purl.org/dc/dcmitype/StillImage"/>
    <dc:date>2024-08-04T09:18:15.503036</dc:date>
    <dc:format>image/svg+xml</dc:format>
    <dc:creator>
     <cc:Agent>
      <dc:title>Matplotlib v3.9.1, https://matplotlib.org/</dc:title>
     </cc:Agent>
    </dc:creator>
   </cc:Work>
  </rdf:RDF>
 </metadata>
 <defs>
  <style type="text/css">*{stroke-linejoin: round; stroke-linecap: butt}</style>
 </defs>
 <g id="figure_1">
  <g id="patch_1">
   <path d="M 0 230.66 
L 515.603438 230.66 
L 515.603438 0 
L 0 0 
z
" style="fill: #ffffff"/>
  </g>
  <g id="axes_1">
   <g id="patch_2">
    <path d="M 141.923438 136.48 
C 146.697093 136.48 151.275875 134.583406 154.65136 131.207922 
C 158.026844 127.832438 159.923438 123.253656 159.923438 118.48 
C 159.923438 113.706344 158.026844 109.127562 154.65136 105.752078 
C 151.275875 102.376594 146.697093 100.48 141.923438 100.48 
C 137.149782 100.48 132.571 102.376594 129.195515 105.752078 
C 125.820031 109.127562 123.923438 113.706344 123.923438 118.48 
C 123.923438 123.253656 125.820031 127.832438 129.195515 131.207922 
C 132.571 134.583406 137.149782 136.48 141.923438 136.48 
L 141.923438 136.48 
z
" clip-path="url(#pb972a125e3)" style="fill: none; stroke: #000000; stroke-width: 2; stroke-linejoin: miter"/>
   </g>
   <g id="line2d_1">
    <path d="M 141.923438 208.48 
L 141.923438 136.48 
L 141.923438 136.48 
M 141.923438 100.48 
L 141.923438 100.48 
L 141.923438 28.48 
" clip-path="url(#pb972a125e3)" style="fill: none; stroke: #000000; stroke-width: 2; stroke-linecap: round"/>
   </g>
   <g id="line2d_2">
    <path d="M 145.523438 127.48 
L 138.323438 127.48 
" clip-path="url(#pb972a125e3)" style="fill: none; stroke: #000000; stroke-width: 2; stroke-linecap: round"/>
   </g>
   <g id="line2d_3">
    <path d="M 141.923438 113.08 
L 141.923438 105.88 
" clip-path="url(#pb972a125e3)" style="fill: none; stroke: #000000; stroke-width: 2; stroke-linecap: round"/>
   </g>
   <g id="line2d_4">
    <path d="M 145.523438 109.48 
L 138.323438 109.48 
" clip-path="url(#pb972a125e3)" style="fill: none; stroke: #000000; stroke-width: 2; stroke-linecap: round"/>
   </g>
   <g id="line2d_5">
    <path d="M 141.923438 28.48 
L 213.923438 28.48 
L 216.923438 19.48 
L 222.923438 37.48 
L 228.923438 19.48 
L 234.923438 37.48 
L 240.923438 19.48 
L 246.923438 37.48 
L 249.923438 28.48 
L 321.923438 28.48 
" clip-path="url(#pb972a125e3)" style="fill: none; stroke: #000000; stroke-width: 2; stroke-linecap: round"/>
   </g>
   <g id="line2d_6">
    <path d="M 321.923438 28.48 
L 321.923438 115.24 
M 330.923438 115.24 
L 312.923438 115.24 
M 330.923437 121.72 
L 312.923437 121.72 
M 321.923437 121.72 
L 321.923437 208.48 
" clip-path="url(#pb972a125e3)" style="fill: none; stroke: #000000; stroke-width: 2; stroke-linecap: round"/>
   </g>
   <g id="line2d_7">
    <path d="M 321.923438 28.48 
L 393.923438 28.48 
L 396.923438 19.48 
L 402.923438 37.48 
L 408.923438 19.48 
L 414.923438 37.48 
L 420.923438 19.48 
L 426.923438 37.48 
L 429.923438 28.48 
L 501.923438 28.48 
" clip-path="url(#pb972a125e3)" style="fill: none; stroke: #000000; stroke-width: 2; stroke-linecap: round"/>
   </g>
   <g id="line2d_8">
    <path d="M 501.923438 28.48 
L 501.923438 115.24 
M 510.923438 115.24 
L 492.923438 115.24 
M 510.923438 121.72 
L 492.923438 121.72 
M 501.923438 121.72 
L 501.923437 208.48 
" clip-path="url(#pb972a125e3)" style="fill: none; stroke: #000000; stroke-width: 2; stroke-linecap: round"/>
   </g>
   <g id="line2d_9">
    <path d="M 501.923437 208.48 
L 321.923437 208.48 
L 141.923438 208.48 
" clip-path="url(#pb972a125e3)" style="fill: none; stroke: #000000; stroke-width: 2; stroke-linecap: round"/>
   </g>
   <g id="patch_3">
    <path d="M 141.923438 211.18 
C 142.639486 211.18 143.326303 210.895511 143.832626 210.389188 
C 144.338948 209.882866 144.623437 209.196048 144.623437 208.48 
C 144.623437 207.763952 144.338948 207.077134 143.832626 206.570812 
C 143.326303 206.064489 142.639486 205.78 141.923438 205.78 
C 141.207389 205.78 140.520572 206.064489 140.014249 206.570812 
C 139.507927 207.077134 139.223438 207.763952 139.223438 208.48 
C 139.223438 209.196048 139.507927 209.882866 140.014249 210.389188 
C 140.520572 210.895511 141.207389 211.18 141.923438 211.18 
z
" clip-path="url(#pb972a125e3)" style="stroke: #000000; stroke-width: 2; stroke-linejoin: miter"/>
   </g>
   <g id="text_1">
    <!-- V1=2exp(-3t)u(t) -->
    <g transform="translate(0 123.693125) scale(0.14 -0.14)">
     <defs>
      <path id="DejaVuSans-56" d="M 1831 0 
L 50 4666 
L 709 4666 
L 2188 738 
L 3669 4666 
L 4325 4666 
L 2547 0 
L 1831 0 
z
" transform="scale(0.015625)"/>
      <path id="DejaVuSans-31" d="M 794 531 
L 1825 531 
L 1825 4091 
L 703 3866 
L 703 4441 
L 1819 4666 
L 2450 4666 
L 2450 531 
L 3481 531 
L 3481 0 
L 794 0 
L 794 531 
z
" transform="scale(0.015625)"/>
      <path id="DejaVuSans-3d" d="M 678 2906 
L 4684 2906 
L 4684 2381 
L 678 2381 
L 678 2906 
z
M 678 1631 
L 4684 1631 
L 4684 1100 
L 678 1100 
L 678 1631 
z
" transform="scale(0.015625)"/>
      <path id="DejaVuSans-32" d="M 1228 531 
L 3431 531 
L 3431 0 
L 469 0 
L 469 531 
Q 828 903 1448 1529 
Q 2069 2156 2228 2338 
Q 2531 2678 2651 2914 
Q 2772 3150 2772 3378 
Q 2772 3750 2511 3984 
Q 2250 4219 1831 4219 
Q 1534 4219 1204 4116 
Q 875 4013 500 3803 
L 500 4441 
Q 881 4594 1212 4672 
Q 1544 4750 1819 4750 
Q 2544 4750 2975 4387 
Q 3406 4025 3406 3419 
Q 3406 3131 3298 2873 
Q 3191 2616 2906 2266 
Q 2828 2175 2409 1742 
Q 1991 1309 1228 531 
z
" transform="scale(0.015625)"/>
      <path id="DejaVuSans-65" d="M 3597 1894 
L 3597 1613 
L 953 1613 
Q 991 1019 1311 708 
Q 1631 397 2203 397 
Q 2534 397 2845 478 
Q 3156 559 3463 722 
L 3463 178 
Q 3153 47 2828 -22 
Q 2503 -91 2169 -91 
Q 1331 -91 842 396 
Q 353 884 353 1716 
Q 353 2575 817 3079 
Q 1281 3584 2069 3584 
Q 2775 3584 3186 3129 
Q 3597 2675 3597 1894 
z
M 3022 2063 
Q 3016 2534 2758 2815 
Q 2500 3097 2075 3097 
Q 1594 3097 1305 2825 
Q 1016 2553 972 2059 
L 3022 2063 
z
" transform="scale(0.015625)"/>
      <path id="DejaVuSans-78" d="M 3513 3500 
L 2247 1797 
L 3578 0 
L 2900 0 
L 1881 1375 
L 863 0 
L 184 0 
L 1544 1831 
L 300 3500 
L 978 3500 
L 1906 2253 
L 2834 3500 
L 3513 3500 
z
" transform="scale(0.015625)"/>
      <path id="DejaVuSans-70" d="M 1159 525 
L 1159 -1331 
L 581 -1331 
L 581 3500 
L 1159 3500 
L 1159 2969 
Q 1341 3281 1617 3432 
Q 1894 3584 2278 3584 
Q 2916 3584 3314 3078 
Q 3713 2572 3713 1747 
Q 3713 922 3314 415 
Q 2916 -91 2278 -91 
Q 1894 -91 1617 61 
Q 1341 213 1159 525 
z
M 3116 1747 
Q 3116 2381 2855 2742 
Q 2594 3103 2138 3103 
Q 1681 3103 1420 2742 
Q 1159 2381 1159 1747 
Q 1159 1113 1420 752 
Q 1681 391 2138 391 
Q 2594 391 2855 752 
Q 3116 1113 3116 1747 
z
" transform="scale(0.015625)"/>
      <path id="DejaVuSans-28" d="M 1984 4856 
Q 1566 4138 1362 3434 
Q 1159 2731 1159 2009 
Q 1159 1288 1364 580 
Q 1569 -128 1984 -844 
L 1484 -844 
Q 1016 -109 783 600 
Q 550 1309 550 2009 
Q 550 2706 781 3412 
Q 1013 4119 1484 4856 
L 1984 4856 
z
" transform="scale(0.015625)"/>
      <path id="DejaVuSans-2d" d="M 313 2009 
L 1997 2009 
L 1997 1497 
L 313 1497 
L 313 2009 
z
" transform="scale(0.015625)"/>
      <path id="DejaVuSans-33" d="M 2597 2516 
Q 3050 2419 3304 2112 
Q 3559 1806 3559 1356 
Q 3559 666 3084 287 
Q 2609 -91 1734 -91 
Q 1441 -91 1130 -33 
Q 819 25 488 141 
L 488 750 
Q 750 597 1062 519 
Q 1375 441 1716 441 
Q 2309 441 2620 675 
Q 2931 909 2931 1356 
Q 2931 1769 2642 2001 
Q 2353 2234 1838 2234 
L 1294 2234 
L 1294 2753 
L 1863 2753 
Q 2328 2753 2575 2939 
Q 2822 3125 2822 3475 
Q 2822 3834 2567 4026 
Q 2313 4219 1838 4219 
Q 1578 4219 1281 4162 
Q 984 4106 628 3988 
L 628 4550 
Q 988 4650 1302 4700 
Q 1616 4750 1894 4750 
Q 2613 4750 3031 4423 
Q 3450 4097 3450 3541 
Q 3450 3153 3228 2886 
Q 3006 2619 2597 2516 
z
" transform="scale(0.015625)"/>
      <path id="DejaVuSans-74" d="M 1172 4494 
L 1172 3500 
L 2356 3500 
L 2356 3053 
L 1172 3053 
L 1172 1153 
Q 1172 725 1289 603 
Q 1406 481 1766 481 
L 2356 481 
L 2356 0 
L 1766 0 
Q 1100 0 847 248 
Q 594 497 594 1153 
L 594 3053 
L 172 3053 
L 172 3500 
L 594 3500 
L 594 4494 
L 1172 4494 
z
" transform="scale(0.015625)"/>
      <path id="DejaVuSans-29" d="M 513 4856 
L 1013 4856 
Q 1481 4119 1714 3412 
Q 1947 2706 1947 2009 
Q 1947 1309 1714 600 
Q 1481 -109 1013 -844 
L 513 -844 
Q 928 -128 1133 580 
Q 1338 1288 1338 2009 
Q 1338 2731 1133 3434 
Q 928 4138 513 4856 
z
" transform="scale(0.015625)"/>
      <path id="DejaVuSans-75" d="M 544 1381 
L 544 3500 
L 1119 3500 
L 1119 1403 
Q 1119 906 1312 657 
Q 1506 409 1894 409 
Q 2359 409 2629 706 
Q 2900 1003 2900 1516 
L 2900 3500 
L 3475 3500 
L 3475 0 
L 2900 0 
L 2900 538 
Q 2691 219 2414 64 
Q 2138 -91 1772 -91 
Q 1169 -91 856 284 
Q 544 659 544 1381 
z
M 1991 3584 
L 1991 3584 
z
" transform="scale(0.015625)"/>
     </defs>
     <use xlink:href="#DejaVuSans-56"/>
     <use xlink:href="#DejaVuSans-31" x="68.408203"/>
     <use xlink:href="#DejaVuSans-3d" x="132.03125"/>
     <use xlink:href="#DejaVuSans-32" x="215.820312"/>
     <use xlink:href="#DejaVuSans-65" x="279.443359"/>
     <use xlink:href="#DejaVuSans-78" x="339.216797"/>
     <use xlink:href="#DejaVuSans-70" x="398.396484"/>
     <use xlink:href="#DejaVuSans-28" x="461.873047"/>
     <use xlink:href="#DejaVuSans-2d" x="500.886719"/>
     <use xlink:href="#DejaVuSans-33" x="536.970703"/>
     <use xlink:href="#DejaVuSans-74" x="600.59375"/>
     <use xlink:href="#DejaVuSans-29" x="639.802734"/>
     <use xlink:href="#DejaVuSans-75" x="678.816406"/>
     <use xlink:href="#DejaVuSans-28" x="742.195312"/>
     <use xlink:href="#DejaVuSans-74" x="781.208984"/>
     <use xlink:href="#DejaVuSans-29" x="820.417969"/>
    </g>
   </g>
   <g id="text_2">
    <!-- 5 -->
    <g transform="translate(137.469687 225.417812) scale(0.14 -0.14)">
     <defs>
      <path id="DejaVuSans-35" d="M 691 4666 
L 3169 4666 
L 3169 4134 
L 1269 4134 
L 1269 2991 
Q 1406 3038 1543 3061 
Q 1681 3084 1819 3084 
Q 2600 3084 3056 2656 
Q 3513 2228 3513 1497 
Q 3513 744 3044 326 
Q 2575 -91 1722 -91 
Q 1428 -91 1123 -41 
Q 819 9 494 109 
L 494 744 
Q 775 591 1075 516 
Q 1375 441 1709 441 
Q 2250 441 2565 725 
Q 2881 1009 2881 1497 
Q 2881 1984 2565 2268 
Q 2250 2553 1709 2553 
Q 1456 2553 1204 2497 
Q 953 2441 691 2322 
L 691 4666 
z
" transform="scale(0.015625)"/>
     </defs>
     <use xlink:href="#DejaVuSans-35"/>
    </g>
   </g>
   <g id="patch_4">
    <path d="M 141.923438 31.18 
C 142.639486 31.18 143.326303 30.895511 143.832626 30.389188 
C 144.338948 29.882866 144.623437 29.196048 144.623437 28.48 
C 144.623437 27.763952 144.338948 27.077134 143.832626 26.570812 
C 143.326303 26.064489 142.639486 25.78 141.923438 25.78 
C 141.207389 25.78 140.520572 26.064489 140.014249 26.570812 
C 139.507927 27.077134 139.223438 27.763952 139.223438 28.48 
C 139.223438 29.196048 139.507927 29.882866 140.014249 30.389188 
C 140.520572 30.895511 141.207389 31.18 141.923438 31.18 
z
" clip-path="url(#pb972a125e3)" style="stroke: #000000; stroke-width: 2; stroke-linejoin: miter"/>
   </g>
   <g id="text_3">
    <!-- R1=4Ω -->
    <g transform="translate(205.586719 12.968437) scale(0.14 -0.14)">
     <defs>
      <path id="DejaVuSans-52" d="M 2841 2188 
Q 3044 2119 3236 1894 
Q 3428 1669 3622 1275 
L 4263 0 
L 3584 0 
L 2988 1197 
Q 2756 1666 2539 1819 
Q 2322 1972 1947 1972 
L 1259 1972 
L 1259 0 
L 628 0 
L 628 4666 
L 2053 4666 
Q 2853 4666 3247 4331 
Q 3641 3997 3641 3322 
Q 3641 2881 3436 2590 
Q 3231 2300 2841 2188 
z
M 1259 4147 
L 1259 2491 
L 2053 2491 
Q 2509 2491 2742 2702 
Q 2975 2913 2975 3322 
Q 2975 3731 2742 3939 
Q 2509 4147 2053 4147 
L 1259 4147 
z
" transform="scale(0.015625)"/>
      <path id="DejaVuSans-34" d="M 2419 4116 
L 825 1625 
L 2419 1625 
L 2419 4116 
z
M 2253 4666 
L 3047 4666 
L 3047 1625 
L 3713 1625 
L 3713 1100 
L 3047 1100 
L 3047 0 
L 2419 0 
L 2419 1100 
L 313 1100 
L 313 1709 
L 2253 4666 
z
" transform="scale(0.015625)"/>
      <path id="DejaVuSans-3a9" d="M 4647 556 
L 4647 0 
L 2772 0 
L 2772 556 
Q 3325 859 3634 1378 
Q 3944 1897 3944 2528 
Q 3944 3278 3531 3731 
Q 3119 4184 2444 4184 
Q 1769 4184 1355 3729 
Q 941 3275 941 2528 
Q 941 1897 1250 1378 
Q 1563 859 2119 556 
L 2119 0 
L 244 0 
L 244 556 
L 1241 556 
Q 747 991 519 1456 
Q 294 1922 294 2497 
Q 294 3491 894 4106 
Q 1491 4722 2444 4722 
Q 3391 4722 3994 4106 
Q 4594 3494 4594 2528 
Q 4594 1922 4372 1459 
Q 4150 997 3647 556 
L 4647 556 
z
" transform="scale(0.015625)"/>
     </defs>
     <use xlink:href="#DejaVuSans-52"/>
     <use xlink:href="#DejaVuSans-31" x="69.482422"/>
     <use xlink:href="#DejaVuSans-3d" x="133.105469"/>
     <use xlink:href="#DejaVuSans-34" x="216.894531"/>
     <use xlink:href="#DejaVuSans-3a9" x="280.517578"/>
    </g>
   </g>
   <g id="text_4">
    <!-- 1 -->
    <g transform="translate(126.715937 32.343125) scale(0.14 -0.14)">
     <use xlink:href="#DejaVuSans-31"/>
    </g>
   </g>
   <g id="patch_5">
    <path d="M 321.923438 31.18 
C 322.639486 31.18 323.326303 30.895511 323.832626 30.389188 
C 324.338948 29.882866 324.623438 29.196048 324.623438 28.48 
C 324.623438 27.763952 324.338948 27.077134 323.832626 26.570812 
C 323.326303 26.064489 322.639486 25.78 321.923438 25.78 
C 321.207389 25.78 320.520572 26.064489 320.014249 26.570812 
C 319.507927 27.077134 319.223438 27.763952 319.223438 28.48 
C 319.223438 29.196048 319.507927 29.882866 320.014249 30.389188 
C 320.520572 30.895511 321.207389 31.18 321.923438 31.18 
z
" clip-path="url(#pb972a125e3)" style="stroke: #000000; stroke-width: 2; stroke-linejoin: miter"/>
   </g>
   <g id="text_5">
    <!-- C1=2F -->
    <g transform="translate(261.94875 120.993125) scale(0.14 -0.14)">
     <defs>
      <path id="DejaVuSans-43" d="M 4122 4306 
L 4122 3641 
Q 3803 3938 3442 4084 
Q 3081 4231 2675 4231 
Q 1875 4231 1450 3742 
Q 1025 3253 1025 2328 
Q 1025 1406 1450 917 
Q 1875 428 2675 428 
Q 3081 428 3442 575 
Q 3803 722 4122 1019 
L 4122 359 
Q 3791 134 3420 21 
Q 3050 -91 2638 -91 
Q 1578 -91 968 557 
Q 359 1206 359 2328 
Q 359 3453 968 4101 
Q 1578 4750 2638 4750 
Q 3056 4750 3426 4639 
Q 3797 4528 4122 4306 
z
" transform="scale(0.015625)"/>
      <path id="DejaVuSans-46" d="M 628 4666 
L 3309 4666 
L 3309 4134 
L 1259 4134 
L 1259 2759 
L 3109 2759 
L 3109 2228 
L 1259 2228 
L 1259 0 
L 628 0 
L 628 4666 
z
" transform="scale(0.015625)"/>
     </defs>
     <use xlink:href="#DejaVuSans-43"/>
     <use xlink:href="#DejaVuSans-31" x="69.824219"/>
     <use xlink:href="#DejaVuSans-3d" x="133.447266"/>
     <use xlink:href="#DejaVuSans-32" x="217.236328"/>
     <use xlink:href="#DejaVuSans-46" x="280.859375"/>
    </g>
   </g>
   <g id="text_6">
    <!-- 2 -->
    <g transform="translate(317.469688 19.268437) scale(0.14 -0.14)">
     <use xlink:href="#DejaVuSans-32"/>
    </g>
   </g>
   <g id="text_7">
    <!-- R3=2Ω -->
    <g transform="translate(386.936719 12.968437) scale(0.14 -0.14)">
     <use xlink:href="#DejaVuSans-52"/>
     <use xlink:href="#DejaVuSans-33" x="69.482422"/>
     <use xlink:href="#DejaVuSans-3d" x="133.105469"/>
     <use xlink:href="#DejaVuSans-32" x="216.894531"/>
     <use xlink:href="#DejaVuSans-3a9" x="280.517578"/>
    </g>
   </g>
   <g id="text_8">
    <!-- C2=3F -->
    <g transform="translate(441.94875 122.343125) scale(0.14 -0.14)">
     <use xlink:href="#DejaVuSans-43"/>
     <use xlink:href="#DejaVuSans-32" x="69.824219"/>
     <use xlink:href="#DejaVuSans-3d" x="133.447266"/>
     <use xlink:href="#DejaVuSans-33" x="217.236328"/>
     <use xlink:href="#DejaVuSans-46" x="280.859375"/>
    </g>
   </g>
   <g id="patch_6">
    <path d="M 321.923437 211.18 
C 322.639486 211.18 323.326303 210.895511 323.832626 210.389188 
C 324.338948 209.882866 324.623437 209.196048 324.623437 208.48 
C 324.623437 207.763952 324.338948 207.077134 323.832626 206.570812 
C 323.326303 206.064489 322.639486 205.78 321.923437 205.78 
C 321.207389 205.78 320.520572 206.064489 320.014249 206.570812 
C 319.507927 207.077134 319.223437 207.763952 319.223437 208.48 
C 319.223437 209.196048 319.507927 209.882866 320.014249 210.389188 
C 320.520572 210.895511 321.207389 211.18 321.923437 211.18 
z
" clip-path="url(#pb972a125e3)" style="stroke: #000000; stroke-width: 2; stroke-linejoin: miter"/>
   </g>
  </g>
 </g>
 <defs>
  <clipPath id="pb972a125e3">
   <rect x="9.635437" y="0" width="505.968" height="230.66"/>
  </clipPath>
 </defs>
</svg>