<?xml version="1.0" encoding="utf-8" standalone="no"?>
<!DOCTYPE svg PUBLIC "-//W3C//DTD SVG 1.1//EN"
  "http://www.w3.org/Graphics/SVG/1.1/DTD/svg11.dtd">
<svg xmlns:xlink="http://www.w3.org/1999/xlink" width="540.36pt" height="143.86pt" viewBox="0 0 540.36 143.86" xmlns="http://www.w3.org/2000/svg" version="1.1">
 <metadata>
  <rdf:RDF xmlns:dc="http://purl.org/dc/elements/1.1/" xmlns:cc="http://creativecommons.org/ns#" xmlns:rdf="http://www.w3.org/1999/02/22-rdf-syntax-ns#">
   <cc:Work>
    <dc:type rdf:resource="http://purl.org/dc/dcmitype/StillImage"/>
    <dc:date>2024-08-02T20:42:56.972827</dc:date>
    <dc:format>image/svg+xml</dc:format>
    <dc:creator>
     <cc:Agent>
      <dc:title>Matplotlib v3.9.1, https://matplotlib.org/</dc:title>
     </cc:Agent>
    </dc:creator>
   </cc:Work>
  </rdf:RDF>
 </metadata>
 <defs>
  <style type="text/css">*{stroke-linejoin: round; stroke-linecap: butt}</style>
 </defs>
 <g id="figure_1">
  <g id="patch_1">
   <path d="M 0 143.86 
L 540.36 143.86 
L 540.36 0 
L 0 0 
z
" style="fill: #ffffff"/>
  </g>
  <g id="axes_1">
   <g id="patch_2">
    <path d="M 364.68 31.18 
C 365.396048 31.18 366.082866 30.895511 366.589188 30.389188 
C 367.095511 29.882866 367.38 29.196048 367.38 28.48 
C 367.38 27.763952 367.095511 27.077134 366.589188 26.570812 
C 366.082866 26.064489 365.396048 25.78 364.68 25.78 
C 363.963952 25.78 363.277134 26.064489 362.770812 26.570812 
C 362.264489 27.077134 361.98 27.763952 361.98 28.48 
C 361.98 29.196048 362.264489 29.882866 362.770812 30.389188 
C 363.277134 30.895511 363.963952 31.18 364.68 31.18 
z
" clip-path="url(#pb45b33e3f1)" style="stroke: #000000; stroke-width: 2; stroke-linejoin: miter"/>
   </g>
   <g id="patch_3">
    <path d="M 382.68 31.18 
C 383.396048 31.18 384.082866 30.895511 384.589188 30.389188 
C 385.095511 29.882866 385.38 29.196048 385.38 28.48 
C 385.38 27.763952 385.095511 27.077134 384.589188 26.570812 
C 384.082866 26.064489 383.396048 25.78 382.68 25.78 
C 381.963952 25.78 381.277134 26.064489 380.770812 26.570812 
C 380.264489 27.077134 379.98 27.763952 379.98 28.48 
C 379.98 29.196048 380.264489 29.882866 380.770812 30.389188 
C 381.277134 30.895511 381.963952 31.18 382.68 31.18 
z
" clip-path="url(#pb45b33e3f1)" style="stroke: #000000; stroke-width: 2; stroke-linejoin: miter"/>
   </g>
   <g id="patch_4">
    <path d="M 400.68 31.18 
C 401.396048 31.18 402.082866 30.895511 402.589188 30.389188 
C 403.095511 29.882866 403.38 29.196048 403.38 28.48 
C 403.38 27.763952 403.095511 27.077134 402.589188 26.570812 
C 402.082866 26.064489 401.396048 25.78 400.68 25.78 
C 399.963952 25.78 399.277134 26.064489 398.770812 26.570812 
C 398.264489 27.077134 397.98 27.763952 397.98 28.48 
C 397.98 29.196048 398.264489 29.882866 398.770812 30.389188 
C 399.277134 30.895511 399.963952 31.18 400.68 31.18 
z
" clip-path="url(#pb45b33e3f1)" style="stroke: #000000; stroke-width: 2; stroke-linejoin: miter"/>
   </g>
   <g id="patch_5">
    <path d="M 364.68 139.18 
C 365.396048 139.18 366.082866 138.895511 366.589188 138.389188 
C 367.095511 137.882866 367.38 137.196048 367.38 136.48 
C 367.38 135.763952 367.095511 135.077134 366.589188 134.570812 
C 366.082866 134.064489 365.396048 133.78 364.68 133.78 
C 363.963952 133.78 363.277134 134.064489 362.770812 134.570812 
C 362.264489 135.077134 361.98 135.763952 361.98 136.48 
C 361.98 137.196048 362.264489 137.882866 362.770812 138.389188 
C 363.277134 138.895511 363.963952 139.18 364.68 139.18 
z
" clip-path="url(#pb45b33e3f1)" style="stroke: #000000; stroke-width: 2; stroke-linejoin: miter"/>
   </g>
   <g id="patch_6">
    <path d="M 382.68 139.18 
C 383.396048 139.18 384.082866 138.895511 384.589188 138.389188 
C 385.095511 137.882866 385.38 137.196048 385.38 136.48 
C 385.38 135.763952 385.095511 135.077134 384.589188 134.570812 
C 384.082866 134.064489 383.396048 133.78 382.68 133.78 
C 381.963952 133.78 381.277134 134.064489 380.770812 134.570812 
C 380.264489 135.077134 379.98 135.763952 379.98 136.48 
C 379.98 137.196048 380.264489 137.882866 380.770812 138.389188 
C 381.277134 138.895511 381.963952 139.18 382.68 139.18 
z
" clip-path="url(#pb45b33e3f1)" style="stroke: #000000; stroke-width: 2; stroke-linejoin: miter"/>
   </g>
   <g id="patch_7">
    <path d="M 400.68 139.18 
C 401.396048 139.18 402.082866 138.895511 402.589188 138.389188 
C 403.095511 137.882866 403.38 137.196048 403.38 136.48 
C 403.38 135.763952 403.095511 135.077134 402.589188 134.570812 
C 402.082866 134.064489 401.396048 133.78 400.68 133.78 
C 399.963952 133.78 399.277134 134.064489 398.770812 134.570812 
C 398.264489 135.077134 397.98 135.763952 397.98 136.48 
C 397.98 137.196048 398.264489 137.882866 398.770812 138.389188 
C 399.277134 138.895511 399.963952 139.18 400.68 139.18 
z
" clip-path="url(#pb45b33e3f1)" style="stroke: #000000; stroke-width: 2; stroke-linejoin: miter"/>
   </g>
   <g id="line2d_1">
    <path d="M 4.68 28.48 
L 40.68 28.48 
L 43.68 19.48 
L 49.68 37.48 
L 55.68 19.48 
L 61.68 37.48 
L 67.68 19.48 
L 73.68 37.48 
L 76.68 28.48 
L 112.68 28.48 
" clip-path="url(#pb45b33e3f1)" style="fill: none; stroke: #000000; stroke-width: 2; stroke-linecap: round"/>
   </g>
   <g id="line2d_2">
    <path d="M 112.68 28.48 
L 112.68 64.48 
L 121.68 67.48 
L 103.68 73.48 
L 121.68 79.48 
L 103.68 85.48 
L 121.68 91.48 
L 103.68 97.48 
L 112.68 100.48 
L 112.68 136.48 
" clip-path="url(#pb45b33e3f1)" style="fill: none; stroke: #000000; stroke-width: 2; stroke-linecap: round"/>
   </g>
   <g id="line2d_3">
    <path d="M 112.68 136.48 
L 58.68 136.48 
L 4.68 136.48 
" clip-path="url(#pb45b33e3f1)" style="fill: none; stroke: #000000; stroke-width: 2; stroke-linecap: round"/>
   </g>
   <g id="line2d_4">
    <path d="M 112.68 28.48 
L 148.68 28.48 
L 151.68 19.48 
L 157.68 37.48 
L 163.68 19.48 
L 169.68 37.48 
L 175.68 19.48 
L 181.68 37.48 
L 184.68 28.48 
L 220.68 28.48 
" clip-path="url(#pb45b33e3f1)" style="fill: none; stroke: #000000; stroke-width: 2; stroke-linecap: round"/>
   </g>
   <g id="line2d_5">
    <path d="M 220.68 28.48 
L 220.68 64.48 
L 229.68 67.48 
L 211.68 73.48 
L 229.68 79.48 
L 211.68 85.48 
L 229.68 91.48 
L 211.68 97.48 
L 220.68 100.48 
L 220.68 136.48 
" clip-path="url(#pb45b33e3f1)" style="fill: none; stroke: #000000; stroke-width: 2; stroke-linecap: round"/>
   </g>
   <g id="line2d_6">
    <path d="M 220.68 136.48 
L 166.68 136.48 
L 112.68 136.48 
" clip-path="url(#pb45b33e3f1)" style="fill: none; stroke: #000000; stroke-width: 2; stroke-linecap: round"/>
   </g>
   <g id="line2d_7">
    <path d="M 220.68 28.48 
L 256.68 28.48 
L 259.68 19.48 
L 265.68 37.48 
L 271.68 19.48 
L 277.68 37.48 
L 283.68 19.48 
L 289.68 37.48 
L 292.68 28.48 
L 328.68 28.48 
" clip-path="url(#pb45b33e3f1)" style="fill: none; stroke: #000000; stroke-width: 2; stroke-linecap: round"/>
   </g>
   <g id="line2d_8">
    <path d="M 328.68 28.48 
L 328.68 64.48 
L 337.68 67.48 
L 319.68 73.48 
L 337.68 79.48 
L 319.68 85.48 
L 337.68 91.48 
L 319.68 97.48 
L 328.68 100.48 
L 328.68 136.48 
" clip-path="url(#pb45b33e3f1)" style="fill: none; stroke: #000000; stroke-width: 2; stroke-linecap: round"/>
   </g>
   <g id="line2d_9">
    <path d="M 328.68 136.48 
L 274.68 136.48 
L 220.68 136.48 
" clip-path="url(#pb45b33e3f1)" style="fill: none; stroke: #000000; stroke-width: 2; stroke-linecap: round"/>
   </g>
   <g id="line2d_10">
    <path d="M 328.68 28.48 
L 337.68 28.48 
L 346.68 28.48 
" clip-path="url(#pb45b33e3f1)" style="fill: none; stroke: #000000; stroke-width: 2; stroke-linecap: round"/>
   </g>
   <g id="line2d_11">
    <path d="M 418.68 28.48 
L 454.68 28.48 
L 457.68 19.48 
L 463.68 37.48 
L 469.68 19.48 
L 475.68 37.48 
L 481.68 19.48 
L 487.68 37.48 
L 490.68 28.48 
L 526.68 28.48 
" clip-path="url(#pb45b33e3f1)" style="fill: none; stroke: #000000; stroke-width: 2; stroke-linecap: round"/>
   </g>
   <g id="line2d_12">
    <path d="M 526.68 28.48 
L 526.68 64.48 
L 535.68 67.48 
L 517.68 73.48 
L 535.68 79.48 
L 517.68 85.48 
L 535.68 91.48 
L 517.68 97.48 
L 526.68 100.48 
L 526.68 136.48 
" clip-path="url(#pb45b33e3f1)" style="fill: none; stroke: #000000; stroke-width: 2; stroke-linecap: round"/>
   </g>
   <g id="line2d_13">
    <path d="M 526.68 136.48 
L 472.68 136.48 
L 418.68 136.48 
" clip-path="url(#pb45b33e3f1)" style="fill: none; stroke: #000000; stroke-width: 2; stroke-linecap: round"/>
   </g>
   <g id="line2d_14">
    <path d="M 328.68 136.48 
L 337.68 136.48 
L 346.68 136.48 
" clip-path="url(#pb45b33e3f1)" style="fill: none; stroke: #000000; stroke-width: 2; stroke-linecap: round"/>
   </g>
   <g id="text_1">
    <!-- 3Ω -->
    <g transform="translate(48.876719 12.968438) scale(0.14 -0.14)">
     <defs>
      <path id="DejaVuSans-33" d="M 2597 2516 
Q 3050 2419 3304 2112 
Q 3559 1806 3559 1356 
Q 3559 666 3084 287 
Q 2609 -91 1734 -91 
Q 1441 -91 1130 -33 
Q 819 25 488 141 
L 488 750 
Q 750 597 1062 519 
Q 1375 441 1716 441 
Q 2309 441 2620 675 
Q 2931 909 2931 1356 
Q 2931 1769 2642 2001 
Q 2353 2234 1838 2234 
L 1294 2234 
L 1294 2753 
L 1863 2753 
Q 2328 2753 2575 2939 
Q 2822 3125 2822 3475 
Q 2822 3834 2567 4026 
Q 2313 4219 1838 4219 
Q 1578 4219 1281 4162 
Q 984 4106 628 3988 
L 628 4550 
Q 988 4650 1302 4700 
Q 1616 4750 1894 4750 
Q 2613 4750 3031 4423 
Q 3450 4097 3450 3541 
Q 3450 3153 3228 2886 
Q 3006 2619 2597 2516 
z
" transform="scale(0.015625)"/>
      <path id="DejaVuSans-3a9" d="M 4647 556 
L 4647 0 
L 2772 0 
L 2772 556 
Q 3325 859 3634 1378 
Q 3944 1897 3944 2528 
Q 3944 3278 3531 3731 
Q 3119 4184 2444 4184 
Q 1769 4184 1355 3729 
Q 941 3275 941 2528 
Q 941 1897 1250 1378 
Q 1563 859 2119 556 
L 2119 0 
L 244 0 
L 244 556 
L 1241 556 
Q 747 991 519 1456 
Q 294 1922 294 2497 
Q 294 3491 894 4106 
Q 1491 4722 2444 4722 
Q 3391 4722 3994 4106 
Q 4594 3494 4594 2528 
Q 4594 1922 4372 1459 
Q 4150 997 3647 556 
L 4647 556 
z
" transform="scale(0.015625)"/>
     </defs>
     <use xlink:href="#DejaVuSans-33"/>
     <use xlink:href="#DejaVuSans-3a9" x="63.623047"/>
    </g>
   </g>
   <g id="text_2">
    <!-- 3Ω -->
    <g transform="translate(80.473437 86.343125) scale(0.14 -0.14)">
     <use xlink:href="#DejaVuSans-33"/>
     <use xlink:href="#DejaVuSans-3a9" x="63.623047"/>
    </g>
   </g>
   <g id="text_3">
    <!-- 3Ω -->
    <g transform="translate(156.876719 12.968438) scale(0.14 -0.14)">
     <use xlink:href="#DejaVuSans-33"/>
     <use xlink:href="#DejaVuSans-3a9" x="63.623047"/>
    </g>
   </g>
   <g id="text_4">
    <!-- 3Ω -->
    <g transform="translate(188.473437 86.343125) scale(0.14 -0.14)">
     <use xlink:href="#DejaVuSans-33"/>
     <use xlink:href="#DejaVuSans-3a9" x="63.623047"/>
    </g>
   </g>
   <g id="text_5">
    <!-- 3Ω -->
    <g transform="translate(264.876719 12.968438) scale(0.14 -0.14)">
     <use xlink:href="#DejaVuSans-33"/>
     <use xlink:href="#DejaVuSans-3a9" x="63.623047"/>
    </g>
   </g>
   <g id="text_6">
    <!-- 3Ω -->
    <g transform="translate(296.473437 86.343125) scale(0.14 -0.14)">
     <use xlink:href="#DejaVuSans-33"/>
     <use xlink:href="#DejaVuSans-3a9" x="63.623047"/>
    </g>
   </g>
   <g id="text_7">
    <!-- 3Ω -->
    <g transform="translate(462.876719 12.968438) scale(0.14 -0.14)">
     <use xlink:href="#DejaVuSans-33"/>
     <use xlink:href="#DejaVuSans-3a9" x="63.623047"/>
    </g>
   </g>
   <g id="text_8">
    <!-- 3Ω -->
    <g transform="translate(494.473437 86.343125) scale(0.14 -0.14)">
     <use xlink:href="#DejaVuSans-33"/>
     <use xlink:href="#DejaVuSans-3a9" x="63.623047"/>
    </g>
   </g>
  </g>
 </g>
 <defs>
  <clipPath id="pb45b33e3f1">
   <rect x="0" y="0" width="540.36" height="143.86"/>
  </clipPath>
 </defs>
</svg>