<?xml version="1.0" encoding="utf-8" standalone="no"?>
<!DOCTYPE svg PUBLIC "-//W3C//DTD SVG 1.1//EN"
  "http://www.w3.org/Graphics/SVG/1.1/DTD/svg11.dtd">
<svg xmlns:xlink="http://www.w3.org/1999/xlink" width="452.980313pt" height="416.96pt" viewBox="0 0 452.980313 416.96" xmlns="http://www.w3.org/2000/svg" version="1.1">
 <metadata>
  <rdf:RDF xmlns:dc="http://purl.org/dc/elements/1.1/" xmlns:cc="http://creativecommons.org/ns#" xmlns:rdf="http://www.w3.org/1999/02/22-rdf-syntax-ns#">
   <cc:Work>
    <dc:type rdf:resource="http://purl.org/dc/dcmitype/StillImage"/>
    <dc:date>2024-08-03T10:13:20.205962</dc:date>
    <dc:format>image/svg+xml</dc:format>
    <dc:creator>
     <cc:Agent>
      <dc:title>Matplotlib v3.9.1, https://matplotlib.org/</dc:title>
     </cc:Agent>
    </dc:creator>
   </cc:Work>
  </rdf:RDF>
 </metadata>
 <defs>
  <style type="text/css">*{stroke-linejoin: round; stroke-linecap: butt}</style>
 </defs>
 <g id="figure_1">
  <g id="patch_1">
   <path d="M 0 416.96 
L 452.980313 416.96 
L 452.980313 0 
L 0 0 
z
" style="fill: #ffffff"/>
  </g>
  <g id="axes_1">
   <g id="patch_2">
    <path d="M 70.300313 136.48 
C 75.073968 136.48 79.65275 134.583406 83.028235 131.207922 
C 86.403719 127.832438 88.300313 123.253656 88.300313 118.48 
C 88.300313 113.706344 86.403719 109.127562 83.028235 105.752078 
C 79.65275 102.376594 75.073968 100.48 70.300313 100.48 
C 65.526657 100.48 60.947875 102.376594 57.57239 105.752078 
C 54.196906 109.127562 52.300313 113.706344 52.300313 118.48 
C 52.300313 123.253656 54.196906 127.832438 57.57239 131.207922 
C 60.947875 134.583406 65.526657 136.48 70.300313 136.48 
L 70.300313 136.48 
z
" clip-path="url(#p1a4a381130)" style="fill: none; stroke: #000000; stroke-width: 2; stroke-linejoin: miter"/>
   </g>
   <g id="patch_3">
    <path d="M 430.300313 316.48 
C 435.073968 316.48 439.65275 314.583406 443.028235 311.207922 
C 446.403719 307.832438 448.300313 303.253656 448.300313 298.48 
C 448.300313 293.706344 446.403719 289.127562 443.028235 285.752078 
C 439.65275 282.376594 435.073968 280.48 430.300313 280.48 
C 425.526657 280.48 420.947875 282.376594 417.57239 285.752078 
C 414.196906 289.127562 412.300313 293.706344 412.300313 298.48 
C 412.300313 303.253656 414.196906 307.832438 417.57239 311.207922 
C 420.947875 314.583406 425.526657 316.48 430.300313 316.48 
L 430.300313 316.48 
z
" clip-path="url(#p1a4a381130)" style="fill: none; stroke: #000000; stroke-width: 2; stroke-linejoin: miter"/>
   </g>
   <g id="patch_4">
    <path d="M 70.300313 316.48 
C 75.073968 316.48 79.65275 314.583406 83.028235 311.207922 
C 86.403719 307.832438 88.300313 303.253656 88.300313 298.48 
C 88.300313 293.706344 86.403719 289.127562 83.028235 285.752078 
C 79.65275 282.376594 75.073968 280.48 70.300313 280.48 
C 65.526657 280.48 60.947875 282.376594 57.57239 285.752078 
C 54.196906 289.127562 52.300313 293.706344 52.300313 298.48 
C 52.300313 303.253656 54.196906 307.832438 57.57239 311.207922 
C 60.947875 314.583406 65.526657 316.48 70.300313 316.48 
L 70.300313 316.48 
z
" clip-path="url(#p1a4a381130)" style="fill: none; stroke: #000000; stroke-width: 2; stroke-linejoin: miter"/>
   </g>
   <g id="patch_5">
    <path d="M 430.300313 136.48 
C 435.073968 136.48 439.65275 134.583406 443.028235 131.207922 
C 446.403719 127.832438 448.300313 123.253656 448.300313 118.48 
C 448.300313 113.706344 446.403719 109.127562 443.028235 105.752078 
C 439.65275 102.376594 435.073968 100.48 430.300313 100.48 
C 425.526657 100.48 420.947875 102.376594 417.57239 105.752078 
C 414.196906 109.127562 412.300313 113.706344 412.300313 118.48 
C 412.300313 123.253656 414.196906 127.832438 417.57239 131.207922 
C 420.947875 134.583406 425.526657 136.48 430.300313 136.48 
L 430.300313 136.48 
z
" clip-path="url(#p1a4a381130)" style="fill: none; stroke: #000000; stroke-width: 2; stroke-linejoin: miter"/>
   </g>
   <g id="patch_6">
    <path d="M 191.659904 99.672712 
C 189.878806 96.350365 187.637511 93.380411 185.023619 90.878927 
C 182.409727 88.377443 179.457742 86.377449 176.28304 84.957115 
C 173.108337 83.536781 169.752824 82.714854 166.347648 82.523459 
C 162.942472 82.332065 159.532583 82.773728 156.251252 83.831188 
C 152.969921 84.888648 149.860464 86.547946 147.044411 88.744229 
C 144.228358 90.940511 141.742881 93.644788 139.685124 96.751364 
C 137.627367 99.85794 136.024492 103.325808 134.939147 107.019429 
C 133.853801 110.71305 133.300313 114.583667 133.300313 118.48 
C 133.300313 122.376333 133.853801 126.24695 134.939147 129.940571 
C 136.024492 133.634192 137.627367 137.10206 139.685124 140.208636 
C 141.742881 143.315212 144.228358 146.019489 147.044411 148.215771 
C 149.860464 150.412054 152.969921 152.071352 156.251252 153.128812 
C 159.532583 154.186272 162.942472 154.627935 166.347648 154.436541 
C 169.752824 154.245146 173.108337 153.423219 176.28304 152.002885 
C 179.457742 150.582551 182.409727 148.582557 185.023619 146.081073 
C 187.637511 143.579589 189.878806 140.609635 191.659904 137.287288 
" clip-path="url(#p1a4a381130)" style="fill: none; stroke: #000000; stroke-width: 2; stroke-linejoin: miter"/>
   </g>
   <g id="patch_7">
    <path d="M 196.549799 107.653847 
L 189.545726 101.390225 
L 191.832628 99.989082 
L 191.644555 99.682115 
L 191.675252 99.663308 
L 191.863325 99.970275 
L 194.150227 98.569132 
z
" clip-path="url(#p1a4a381130)" style="stroke: #000000; stroke-linejoin: miter"/>
   </g>
   <g id="patch_8">
    <path d="M 362.659904 99.672712 
C 360.878806 96.350365 358.637511 93.380411 356.023619 90.878927 
C 353.409727 88.377443 350.457742 86.377449 347.28304 84.957115 
C 344.108337 83.536781 340.752824 82.714854 337.347648 82.523459 
C 333.942472 82.332065 330.532583 82.773728 327.251252 83.831188 
C 323.969921 84.888648 320.860464 86.547946 318.044411 88.744229 
C 315.228358 90.940511 312.742881 93.644788 310.685124 96.751364 
C 308.627367 99.85794 307.024492 103.325808 305.939147 107.019429 
C 304.853801 110.71305 304.300313 114.583667 304.300313 118.48 
C 304.300313 122.376333 304.853801 126.24695 305.939147 129.940571 
C 307.024492 133.634192 308.627367 137.10206 310.685124 140.208636 
C 312.742881 143.315212 315.228358 146.019489 318.044411 148.215771 
C 320.860464 150.412054 323.969921 152.071352 327.251252 153.128812 
C 330.532583 154.186272 333.942472 154.627935 337.347648 154.436541 
C 340.752824 154.245146 344.108337 153.423219 347.28304 152.002885 
C 350.457742 150.582551 353.409727 148.582557 356.023619 146.081073 
C 358.637511 143.579589 360.878806 140.609635 362.659904 137.287288 
" clip-path="url(#p1a4a381130)" style="fill: none; stroke: #000000; stroke-width: 2; stroke-linejoin: miter"/>
   </g>
   <g id="patch_9">
    <path d="M 367.549799 107.653847 
L 360.545726 101.390225 
L 362.832628 99.989082 
L 362.644555 99.682115 
L 362.675252 99.663308 
L 362.863325 99.970275 
L 365.150227 98.569132 
z
" clip-path="url(#p1a4a381130)" style="stroke: #000000; stroke-linejoin: miter"/>
   </g>
   <g id="patch_10">
    <path d="M 362.659904 279.672712 
C 360.878806 276.350365 358.637511 273.380411 356.023619 270.878927 
C 353.409727 268.377443 350.457742 266.377449 347.28304 264.957115 
C 344.108337 263.536781 340.752824 262.714854 337.347648 262.523459 
C 333.942472 262.332065 330.532583 262.773728 327.251252 263.831188 
C 323.969921 264.888648 320.860464 266.547946 318.044411 268.744229 
C 315.228358 270.940511 312.742881 273.644788 310.685124 276.751364 
C 308.627367 279.85794 307.024492 283.325808 305.939147 287.019429 
C 304.853801 290.71305 304.300313 294.583667 304.300313 298.48 
C 304.300313 302.376333 304.853801 306.24695 305.939147 309.940571 
C 307.024492 313.634192 308.627367 317.10206 310.685124 320.208636 
C 312.742881 323.315212 315.228358 326.019489 318.044411 328.215771 
C 320.860464 330.412054 323.969921 332.071352 327.251252 333.128812 
C 330.532583 334.186272 333.942472 334.627935 337.347648 334.436541 
C 340.752824 334.245146 344.108337 333.423219 347.28304 332.002885 
C 350.457742 330.582551 353.409727 328.582557 356.023619 326.081073 
C 358.637511 323.579589 360.878806 320.609635 362.659904 317.287288 
" clip-path="url(#p1a4a381130)" style="fill: none; stroke: #000000; stroke-width: 2; stroke-linejoin: miter"/>
   </g>
   <g id="patch_11">
    <path d="M 367.549799 287.653847 
L 360.545726 281.390225 
L 362.832628 279.989082 
L 362.644555 279.682115 
L 362.675252 279.663308 
L 362.863325 279.970275 
L 365.150227 278.569132 
z
" clip-path="url(#p1a4a381130)" style="stroke: #000000; stroke-linejoin: miter"/>
   </g>
   <g id="patch_12">
    <path d="M 191.659904 279.672712 
C 189.878806 276.350365 187.637511 273.380411 185.023619 270.878927 
C 182.409727 268.377443 179.457742 266.377449 176.28304 264.957115 
C 173.108337 263.536781 169.752824 262.714854 166.347648 262.523459 
C 162.942472 262.332065 159.532583 262.773728 156.251252 263.831188 
C 152.969921 264.888648 149.860464 266.547946 147.044411 268.744229 
C 144.228358 270.940511 141.742881 273.644788 139.685124 276.751364 
C 137.627367 279.85794 136.024492 283.325808 134.939147 287.019429 
C 133.853801 290.71305 133.300313 294.583667 133.300313 298.48 
C 133.300313 302.376333 133.853801 306.24695 134.939147 309.940571 
C 136.024492 313.634192 137.627367 317.10206 139.685124 320.208636 
C 141.742881 323.315212 144.228358 326.019489 147.044411 328.215771 
C 149.860464 330.412054 152.969921 332.071352 156.251252 333.128812 
C 159.532583 334.186272 162.942472 334.627935 166.347648 334.436541 
C 169.752824 334.245146 173.108337 333.423219 176.28304 332.002885 
C 179.457742 330.582551 182.409727 328.582557 185.023619 326.081073 
C 187.637511 323.579589 189.878806 320.609635 191.659904 317.287288 
" clip-path="url(#p1a4a381130)" style="fill: none; stroke: #000000; stroke-width: 2; stroke-linejoin: miter"/>
   </g>
   <g id="patch_13">
    <path d="M 196.549799 287.653847 
L 189.545726 281.390225 
L 191.832628 279.989082 
L 191.644555 279.682115 
L 191.675252 279.663308 
L 191.863325 279.970275 
L 194.150227 278.569132 
z
" clip-path="url(#p1a4a381130)" style="stroke: #000000; stroke-linejoin: miter"/>
   </g>
   <g id="line2d_1">
    <path d="M 70.300313 208.48 
L 70.300313 136.48 
L 70.300313 136.48 
M 70.300313 100.48 
L 70.300313 100.48 
L 70.300313 28.48 
" clip-path="url(#p1a4a381130)" style="fill: none; stroke: #000000; stroke-width: 2; stroke-linecap: round"/>
   </g>
   <g id="line2d_2">
    <path d="M 73.900313 127.48 
L 66.700313 127.48 
" clip-path="url(#p1a4a381130)" style="fill: none; stroke: #000000; stroke-width: 2; stroke-linecap: round"/>
   </g>
   <g id="line2d_3">
    <path d="M 70.300313 113.08 
L 70.300313 105.88 
" clip-path="url(#p1a4a381130)" style="fill: none; stroke: #000000; stroke-width: 2; stroke-linecap: round"/>
   </g>
   <g id="line2d_4">
    <path d="M 73.900313 109.48 
L 66.700313 109.48 
" clip-path="url(#p1a4a381130)" style="fill: none; stroke: #000000; stroke-width: 2; stroke-linecap: round"/>
   </g>
   <g id="line2d_5">
    <path d="M 70.300313 28.48 
L 142.300313 28.48 
L 145.300313 19.48 
L 151.300313 37.48 
L 157.300313 19.48 
L 163.300313 37.48 
L 169.300313 19.48 
L 175.300313 37.48 
L 178.300313 28.48 
L 250.300313 28.48 
" clip-path="url(#p1a4a381130)" style="fill: none; stroke: #000000; stroke-width: 2; stroke-linecap: round"/>
   </g>
   <g id="line2d_6">
    <path d="M 250.300313 28.48 
L 250.300313 100.48 
L 259.300313 103.48 
L 241.300313 109.48 
L 259.300313 115.48 
L 241.300313 121.48 
L 259.300313 127.48 
L 241.300313 133.48 
L 250.300313 136.48 
L 250.300313 208.48 
" clip-path="url(#p1a4a381130)" style="fill: none; stroke: #000000; stroke-width: 2; stroke-linecap: round"/>
   </g>
   <g id="line2d_7">
    <path d="M 250.300313 208.48 
L 250.300313 280.48 
L 259.300313 283.48 
L 241.300313 289.48 
L 259.300313 295.48 
L 241.300313 301.48 
L 259.300313 307.48 
L 241.300313 313.48 
L 250.300313 316.48 
L 250.300313 388.48 
" clip-path="url(#p1a4a381130)" style="fill: none; stroke: #000000; stroke-width: 2; stroke-linecap: round"/>
   </g>
   <g id="line2d_8">
    <path d="M 250.300313 388.48 
L 322.300313 388.48 
L 325.300313 379.48 
L 331.300313 397.48 
L 337.300312 379.48 
L 343.300313 397.48 
L 349.300313 379.48 
L 355.300312 397.48 
L 358.300313 388.48 
L 430.300313 388.48 
" clip-path="url(#p1a4a381130)" style="fill: none; stroke: #000000; stroke-width: 2; stroke-linecap: round"/>
   </g>
   <g id="line2d_9">
    <path d="M 430.300313 388.48 
L 430.300313 316.48 
L 430.300313 316.48 
M 430.300313 280.48 
L 430.300313 280.48 
L 430.300313 208.48 
" clip-path="url(#p1a4a381130)" style="fill: none; stroke: #000000; stroke-width: 2; stroke-linecap: round"/>
   </g>
   <g id="line2d_10">
    <path d="M 433.900312 307.48 
L 426.700313 307.48 
" clip-path="url(#p1a4a381130)" style="fill: none; stroke: #000000; stroke-width: 2; stroke-linecap: round"/>
   </g>
   <g id="line2d_11">
    <path d="M 430.300313 293.08 
L 430.300313 285.88 
" clip-path="url(#p1a4a381130)" style="fill: none; stroke: #000000; stroke-width: 2; stroke-linecap: round"/>
   </g>
   <g id="line2d_12">
    <path d="M 433.900312 289.48 
L 426.700313 289.48 
" clip-path="url(#p1a4a381130)" style="fill: none; stroke: #000000; stroke-width: 2; stroke-linecap: round"/>
   </g>
   <g id="line2d_13">
    <path d="M 250.300313 208.48 
L 322.300313 208.48 
L 325.300313 199.48 
L 331.300313 217.48 
L 337.300313 199.48 
L 343.300313 217.48 
L 349.300313 199.48 
L 355.300313 217.48 
L 358.300313 208.48 
L 430.300313 208.48 
" clip-path="url(#p1a4a381130)" style="fill: none; stroke: #000000; stroke-width: 2; stroke-linecap: round"/>
   </g>
   <g id="line2d_14">
    <path d="M 250.300313 388.48 
L 178.300313 388.48 
L 175.300312 397.48 
L 169.300313 379.48 
L 163.300313 397.48 
L 157.300313 379.48 
L 151.300313 397.48 
L 145.300313 379.48 
L 142.300313 388.48 
L 70.300312 388.48 
" clip-path="url(#p1a4a381130)" style="fill: none; stroke: #000000; stroke-width: 2; stroke-linecap: round"/>
   </g>
   <g id="line2d_15">
    <path d="M 70.300312 388.48 
L 70.300313 316.48 
L 70.300313 316.48 
M 70.300313 280.48 
L 70.300313 280.48 
L 70.300313 208.48 
" clip-path="url(#p1a4a381130)" style="fill: none; stroke: #000000; stroke-width: 2; stroke-linecap: round"/>
   </g>
   <g id="line2d_16">
    <path d="M 73.900312 307.48 
L 66.700312 307.48 
" clip-path="url(#p1a4a381130)" style="fill: none; stroke: #000000; stroke-width: 2; stroke-linecap: round"/>
   </g>
   <g id="line2d_17">
    <path d="M 70.300313 293.08 
L 70.300313 285.88 
" clip-path="url(#p1a4a381130)" style="fill: none; stroke: #000000; stroke-width: 2; stroke-linecap: round"/>
   </g>
   <g id="line2d_18">
    <path d="M 73.900312 289.48 
L 66.700312 289.48 
" clip-path="url(#p1a4a381130)" style="fill: none; stroke: #000000; stroke-width: 2; stroke-linecap: round"/>
   </g>
   <g id="line2d_19">
    <path d="M 250.300313 208.48 
L 178.300313 208.48 
L 175.300313 217.48 
L 169.300313 199.48 
L 163.300313 217.48 
L 157.300313 199.48 
L 151.300313 217.48 
L 145.300313 199.48 
L 142.300313 208.48 
L 70.300313 208.48 
" clip-path="url(#p1a4a381130)" style="fill: none; stroke: #000000; stroke-width: 2; stroke-linecap: round"/>
   </g>
   <g id="line2d_20">
    <path d="M 250.300313 28.48 
L 340.300313 28.48 
L 430.300313 28.48 
" clip-path="url(#p1a4a381130)" style="fill: none; stroke: #000000; stroke-width: 2; stroke-linecap: round"/>
   </g>
   <g id="line2d_21">
    <path d="M 430.300313 28.48 
L 430.300313 100.48 
L 430.300313 100.48 
M 430.300313 136.48 
L 430.300313 136.48 
L 430.300313 208.48 
" clip-path="url(#p1a4a381130)" style="fill: none; stroke: #000000; stroke-width: 2; stroke-linecap: round"/>
   </g>
   <g id="line2d_22">
    <path d="M 430.300313 109.48 
L 430.300313 118.48 
" clip-path="url(#p1a4a381130)" style="fill: none; stroke: #000000; stroke-width: 2; stroke-linecap: round"/>
   </g>
   <g id="patch_14">
    <path d="M 433.000313 118.48 
L 430.300313 127.48 
L 427.600313 118.48 
z
" clip-path="url(#p1a4a381130)"/>
   </g>
   <g id="patch_15">
    <path d="M 70.300313 211.18 
C 71.016361 211.18 71.703178 210.895511 72.209501 210.389188 
C 72.715823 209.882866 73.000313 209.196048 73.000313 208.48 
C 73.000313 207.763952 72.715823 207.077134 72.209501 206.570812 
C 71.703178 206.064489 71.016361 205.78 70.300313 205.78 
C 69.584264 205.78 68.897447 206.064489 68.391124 206.570812 
C 67.884802 207.077134 67.600313 207.763952 67.600313 208.48 
C 67.600313 209.196048 67.884802 209.882866 68.391124 210.389188 
C 68.897447 210.895511 69.584264 211.18 70.300313 211.18 
z
" clip-path="url(#p1a4a381130)" style="stroke: #000000; stroke-width: 2; stroke-linejoin: miter"/>
   </g>
   <g id="text_1">
    <!-- V1=2V -->
    <g transform="translate(0 123.693125) scale(0.14 -0.14)">
     <defs>
      <path id="DejaVuSans-56" d="M 1831 0 
L 50 4666 
L 709 4666 
L 2188 738 
L 3669 4666 
L 4325 4666 
L 2547 0 
L 1831 0 
z
" transform="scale(0.015625)"/>
      <path id="DejaVuSans-31" d="M 794 531 
L 1825 531 
L 1825 4091 
L 703 3866 
L 703 4441 
L 1819 4666 
L 2450 4666 
L 2450 531 
L 3481 531 
L 3481 0 
L 794 0 
L 794 531 
z
" transform="scale(0.015625)"/>
      <path id="DejaVuSans-3d" d="M 678 2906 
L 4684 2906 
L 4684 2381 
L 678 2381 
L 678 2906 
z
M 678 1631 
L 4684 1631 
L 4684 1100 
L 678 1100 
L 678 1631 
z
" transform="scale(0.015625)"/>
      <path id="DejaVuSans-32" d="M 1228 531 
L 3431 531 
L 3431 0 
L 469 0 
L 469 531 
Q 828 903 1448 1529 
Q 2069 2156 2228 2338 
Q 2531 2678 2651 2914 
Q 2772 3150 2772 3378 
Q 2772 3750 2511 3984 
Q 2250 4219 1831 4219 
Q 1534 4219 1204 4116 
Q 875 4013 500 3803 
L 500 4441 
Q 881 4594 1212 4672 
Q 1544 4750 1819 4750 
Q 2544 4750 2975 4387 
Q 3406 4025 3406 3419 
Q 3406 3131 3298 2873 
Q 3191 2616 2906 2266 
Q 2828 2175 2409 1742 
Q 1991 1309 1228 531 
z
" transform="scale(0.015625)"/>
     </defs>
     <use xlink:href="#DejaVuSans-56"/>
     <use xlink:href="#DejaVuSans-31" x="68.408203"/>
     <use xlink:href="#DejaVuSans-3d" x="132.03125"/>
     <use xlink:href="#DejaVuSans-32" x="215.820312"/>
     <use xlink:href="#DejaVuSans-56" x="279.443359"/>
    </g>
   </g>
   <g id="text_2">
    <!-- 5 -->
    <g transform="translate(65.846563 225.417812) scale(0.14 -0.14)">
     <defs>
      <path id="DejaVuSans-35" d="M 691 4666 
L 3169 4666 
L 3169 4134 
L 1269 4134 
L 1269 2991 
Q 1406 3038 1543 3061 
Q 1681 3084 1819 3084 
Q 2600 3084 3056 2656 
Q 3513 2228 3513 1497 
Q 3513 744 3044 326 
Q 2575 -91 1722 -91 
Q 1428 -91 1123 -41 
Q 819 9 494 109 
L 494 744 
Q 775 591 1075 516 
Q 1375 441 1709 441 
Q 2250 441 2565 725 
Q 2881 1009 2881 1497 
Q 2881 1984 2565 2268 
Q 2250 2553 1709 2553 
Q 1456 2553 1204 2497 
Q 953 2441 691 2322 
L 691 4666 
z
" transform="scale(0.015625)"/>
     </defs>
     <use xlink:href="#DejaVuSans-35"/>
    </g>
   </g>
   <g id="patch_16">
    <path d="M 70.300313 31.18 
C 71.016361 31.18 71.703178 30.895511 72.209501 30.389188 
C 72.715823 29.882866 73.000313 29.196048 73.000313 28.48 
C 73.000313 27.763952 72.715823 27.077134 72.209501 26.570812 
C 71.703178 26.064489 71.016361 25.78 70.300313 25.78 
C 69.584264 25.78 68.897447 26.064489 68.391124 26.570812 
C 67.884802 27.077134 67.600313 27.763952 67.600313 28.48 
C 67.600313 29.196048 67.884802 29.882866 68.391124 30.389188 
C 68.897447 30.895511 69.584264 31.18 70.300313 31.18 
z
" clip-path="url(#p1a4a381130)" style="stroke: #000000; stroke-width: 2; stroke-linejoin: miter"/>
   </g>
   <g id="text_3">
    <!-- R1=4Ω -->
    <g transform="translate(133.963594 12.968437) scale(0.14 -0.14)">
     <defs>
      <path id="DejaVuSans-52" d="M 2841 2188 
Q 3044 2119 3236 1894 
Q 3428 1669 3622 1275 
L 4263 0 
L 3584 0 
L 2988 1197 
Q 2756 1666 2539 1819 
Q 2322 1972 1947 1972 
L 1259 1972 
L 1259 0 
L 628 0 
L 628 4666 
L 2053 4666 
Q 2853 4666 3247 4331 
Q 3641 3997 3641 3322 
Q 3641 2881 3436 2590 
Q 3231 2300 2841 2188 
z
M 1259 4147 
L 1259 2491 
L 2053 2491 
Q 2509 2491 2742 2702 
Q 2975 2913 2975 3322 
Q 2975 3731 2742 3939 
Q 2509 4147 2053 4147 
L 1259 4147 
z
" transform="scale(0.015625)"/>
      <path id="DejaVuSans-34" d="M 2419 4116 
L 825 1625 
L 2419 1625 
L 2419 4116 
z
M 2253 4666 
L 3047 4666 
L 3047 1625 
L 3713 1625 
L 3713 1100 
L 3047 1100 
L 3047 0 
L 2419 0 
L 2419 1100 
L 313 1100 
L 313 1709 
L 2253 4666 
z
" transform="scale(0.015625)"/>
      <path id="DejaVuSans-3a9" d="M 4647 556 
L 4647 0 
L 2772 0 
L 2772 556 
Q 3325 859 3634 1378 
Q 3944 1897 3944 2528 
Q 3944 3278 3531 3731 
Q 3119 4184 2444 4184 
Q 1769 4184 1355 3729 
Q 941 3275 941 2528 
Q 941 1897 1250 1378 
Q 1563 859 2119 556 
L 2119 0 
L 244 0 
L 244 556 
L 1241 556 
Q 747 991 519 1456 
Q 294 1922 294 2497 
Q 294 3491 894 4106 
Q 1491 4722 2444 4722 
Q 3391 4722 3994 4106 
Q 4594 3494 4594 2528 
Q 4594 1922 4372 1459 
Q 4150 997 3647 556 
L 4647 556 
z
" transform="scale(0.015625)"/>
     </defs>
     <use xlink:href="#DejaVuSans-52"/>
     <use xlink:href="#DejaVuSans-31" x="69.482422"/>
     <use xlink:href="#DejaVuSans-3d" x="133.105469"/>
     <use xlink:href="#DejaVuSans-34" x="216.894531"/>
     <use xlink:href="#DejaVuSans-3a9" x="280.517578"/>
    </g>
   </g>
   <g id="text_4">
    <!-- 1 -->
    <g transform="translate(55.092813 32.343125) scale(0.14 -0.14)">
     <use xlink:href="#DejaVuSans-31"/>
    </g>
   </g>
   <g id="patch_17">
    <path d="M 250.300313 31.18 
C 251.016361 31.18 251.703178 30.895511 252.209501 30.389188 
C 252.715823 29.882866 253.000313 29.196048 253.000313 28.48 
C 253.000313 27.763952 252.715823 27.077134 252.209501 26.570812 
C 251.703178 26.064489 251.016361 25.78 250.300313 25.78 
C 249.584264 25.78 248.897447 26.064489 248.391124 26.570812 
C 247.884802 27.077134 247.600313 27.763952 247.600313 28.48 
C 247.600313 29.196048 247.884802 29.882866 248.391124 30.389188 
C 248.897447 30.895511 249.584264 31.18 250.300313 31.18 
z
" clip-path="url(#p1a4a381130)" style="stroke: #000000; stroke-width: 2; stroke-linejoin: miter"/>
   </g>
   <g id="text_5">
    <!-- R2=1Ω -->
    <g transform="translate(265.811875 92.143281) rotate(-270) scale(0.14 -0.14)">
     <use xlink:href="#DejaVuSans-52"/>
     <use xlink:href="#DejaVuSans-32" x="69.482422"/>
     <use xlink:href="#DejaVuSans-3d" x="133.105469"/>
     <use xlink:href="#DejaVuSans-31" x="216.894531"/>
     <use xlink:href="#DejaVuSans-3a9" x="280.517578"/>
    </g>
   </g>
   <g id="text_6">
    <!-- 2 -->
    <g transform="translate(245.846563 19.268437) scale(0.14 -0.14)">
     <use xlink:href="#DejaVuSans-32"/>
    </g>
   </g>
   <g id="text_7">
    <!-- 3 -->
    <g transform="translate(245.846563 222.717812) scale(0.14 -0.14)">
     <defs>
      <path id="DejaVuSans-33" d="M 2597 2516 
Q 3050 2419 3304 2112 
Q 3559 1806 3559 1356 
Q 3559 666 3084 287 
Q 2609 -91 1734 -91 
Q 1441 -91 1130 -33 
Q 819 25 488 141 
L 488 750 
Q 750 597 1062 519 
Q 1375 441 1716 441 
Q 2309 441 2620 675 
Q 2931 909 2931 1356 
Q 2931 1769 2642 2001 
Q 2353 2234 1838 2234 
L 1294 2234 
L 1294 2753 
L 1863 2753 
Q 2328 2753 2575 2939 
Q 2822 3125 2822 3475 
Q 2822 3834 2567 4026 
Q 2313 4219 1838 4219 
Q 1578 4219 1281 4162 
Q 984 4106 628 3988 
L 628 4550 
Q 988 4650 1302 4700 
Q 1616 4750 1894 4750 
Q 2613 4750 3031 4423 
Q 3450 4097 3450 3541 
Q 3450 3153 3228 2886 
Q 3006 2619 2597 2516 
z
" transform="scale(0.015625)"/>
     </defs>
     <use xlink:href="#DejaVuSans-33"/>
    </g>
   </g>
   <g id="patch_18">
    <path d="M 250.300313 211.18 
C 251.016361 211.18 251.703178 210.895511 252.209501 210.389188 
C 252.715823 209.882866 253.000313 209.196048 253.000313 208.48 
C 253.000313 207.763952 252.715823 207.077134 252.209501 206.570812 
C 251.703178 206.064489 251.016361 205.78 250.300313 205.78 
C 249.584264 205.78 248.897447 206.064489 248.391124 206.570812 
C 247.884802 207.077134 247.600313 207.763952 247.600313 208.48 
C 247.600313 209.196048 247.884802 209.882866 248.391124 210.389188 
C 248.897447 210.895511 249.584264 211.18 250.300313 211.18 
z
" clip-path="url(#p1a4a381130)" style="stroke: #000000; stroke-width: 2; stroke-linejoin: miter"/>
   </g>
   <g id="text_8">
    <!-- R3=2Ω -->
    <g transform="translate(187.726875 300.993125) scale(0.14 -0.14)">
     <use xlink:href="#DejaVuSans-52"/>
     <use xlink:href="#DejaVuSans-33" x="69.482422"/>
     <use xlink:href="#DejaVuSans-3d" x="133.105469"/>
     <use xlink:href="#DejaVuSans-32" x="216.894531"/>
     <use xlink:href="#DejaVuSans-3a9" x="280.517578"/>
    </g>
   </g>
   <g id="text_9">
    <!-- 4 -->
    <g transform="translate(245.846563 402.717812) scale(0.14 -0.14)">
     <use xlink:href="#DejaVuSans-34"/>
    </g>
   </g>
   <g id="text_10">
    <!-- R4=3Ω -->
    <g transform="translate(315.313594 372.968437) scale(0.14 -0.14)">
     <use xlink:href="#DejaVuSans-52"/>
     <use xlink:href="#DejaVuSans-34" x="69.482422"/>
     <use xlink:href="#DejaVuSans-3d" x="133.105469"/>
     <use xlink:href="#DejaVuSans-33" x="216.894531"/>
     <use xlink:href="#DejaVuSans-3a9" x="280.517578"/>
    </g>
   </g>
   <g id="patch_19">
    <path d="M 430.300313 391.18 
C 431.016361 391.18 431.703178 390.895511 432.209501 390.389188 
C 432.715823 389.882866 433.000313 389.196048 433.000313 388.48 
C 433.000313 387.763952 432.715823 387.077134 432.209501 386.570812 
C 431.703178 386.064489 431.016361 385.78 430.300313 385.78 
C 429.584264 385.78 428.897447 386.064489 428.391124 386.570812 
C 427.884802 387.077134 427.600313 387.763952 427.600313 388.48 
C 427.600313 389.196048 427.884802 389.882866 428.391124 390.389188 
C 428.897447 390.895511 429.584264 391.18 430.300313 391.18 
z
" clip-path="url(#p1a4a381130)" style="stroke: #000000; stroke-width: 2; stroke-linejoin: miter"/>
   </g>
   <g id="text_11">
    <!-- V2=3V -->
    <g transform="translate(360 303.693125) scale(0.14 -0.14)">
     <use xlink:href="#DejaVuSans-56"/>
     <use xlink:href="#DejaVuSans-32" x="68.408203"/>
     <use xlink:href="#DejaVuSans-3d" x="132.03125"/>
     <use xlink:href="#DejaVuSans-33" x="215.820312"/>
     <use xlink:href="#DejaVuSans-56" x="279.443359"/>
    </g>
   </g>
   <g id="text_12">
    <!-- 7 -->
    <g transform="translate(425.846563 405.417812) scale(0.14 -0.14)">
     <defs>
      <path id="DejaVuSans-37" d="M 525 4666 
L 3525 4666 
L 3525 4397 
L 1831 0 
L 1172 0 
L 2766 4134 
L 525 4134 
L 525 4666 
z
" transform="scale(0.015625)"/>
     </defs>
     <use xlink:href="#DejaVuSans-37"/>
    </g>
   </g>
   <g id="text_13">
    <!-- R5=4Ω -->
    <g transform="translate(315.313594 231.717812) scale(0.14 -0.14)">
     <use xlink:href="#DejaVuSans-52"/>
     <use xlink:href="#DejaVuSans-35" x="69.482422"/>
     <use xlink:href="#DejaVuSans-3d" x="133.105469"/>
     <use xlink:href="#DejaVuSans-34" x="216.894531"/>
     <use xlink:href="#DejaVuSans-3a9" x="280.517578"/>
    </g>
   </g>
   <g id="patch_20">
    <path d="M 250.300313 391.18 
C 251.016361 391.18 251.703178 390.895511 252.209501 390.389188 
C 252.715823 389.882866 253.000313 389.196048 253.000313 388.48 
C 253.000313 387.763952 252.715823 387.077134 252.209501 386.570812 
C 251.703178 386.064489 251.016361 385.78 250.300313 385.78 
C 249.584264 385.78 248.897447 386.064489 248.391124 386.570812 
C 247.884802 387.077134 247.600313 387.763952 247.600313 388.48 
C 247.600313 389.196048 247.884802 389.882866 248.391124 390.389188 
C 248.897447 390.895511 249.584264 391.18 250.300313 391.18 
z
" clip-path="url(#p1a4a381130)" style="stroke: #000000; stroke-width: 2; stroke-linejoin: miter"/>
   </g>
   <g id="text_14">
    <!-- R6=5Ω -->
    <g transform="translate(136.663594 411.717812) scale(0.14 -0.14)">
     <defs>
      <path id="DejaVuSans-36" d="M 2113 2584 
Q 1688 2584 1439 2293 
Q 1191 2003 1191 1497 
Q 1191 994 1439 701 
Q 1688 409 2113 409 
Q 2538 409 2786 701 
Q 3034 994 3034 1497 
Q 3034 2003 2786 2293 
Q 2538 2584 2113 2584 
z
M 3366 4563 
L 3366 3988 
Q 3128 4100 2886 4159 
Q 2644 4219 2406 4219 
Q 1781 4219 1451 3797 
Q 1122 3375 1075 2522 
Q 1259 2794 1537 2939 
Q 1816 3084 2150 3084 
Q 2853 3084 3261 2657 
Q 3669 2231 3669 1497 
Q 3669 778 3244 343 
Q 2819 -91 2113 -91 
Q 1303 -91 875 529 
Q 447 1150 447 2328 
Q 447 3434 972 4092 
Q 1497 4750 2381 4750 
Q 2619 4750 2861 4703 
Q 3103 4656 3366 4563 
z
" transform="scale(0.015625)"/>
     </defs>
     <use xlink:href="#DejaVuSans-52"/>
     <use xlink:href="#DejaVuSans-36" x="69.482422"/>
     <use xlink:href="#DejaVuSans-3d" x="133.105469"/>
     <use xlink:href="#DejaVuSans-35" x="216.894531"/>
     <use xlink:href="#DejaVuSans-3a9" x="280.517578"/>
    </g>
   </g>
   <g id="text_15">
    <!-- 8 -->
    <g transform="translate(57.792813 392.343125) scale(0.14 -0.14)">
     <defs>
      <path id="DejaVuSans-38" d="M 2034 2216 
Q 1584 2216 1326 1975 
Q 1069 1734 1069 1313 
Q 1069 891 1326 650 
Q 1584 409 2034 409 
Q 2484 409 2743 651 
Q 3003 894 3003 1313 
Q 3003 1734 2745 1975 
Q 2488 2216 2034 2216 
z
M 1403 2484 
Q 997 2584 770 2862 
Q 544 3141 544 3541 
Q 544 4100 942 4425 
Q 1341 4750 2034 4750 
Q 2731 4750 3128 4425 
Q 3525 4100 3525 3541 
Q 3525 3141 3298 2862 
Q 3072 2584 2669 2484 
Q 3125 2378 3379 2068 
Q 3634 1759 3634 1313 
Q 3634 634 3220 271 
Q 2806 -91 2034 -91 
Q 1263 -91 848 271 
Q 434 634 434 1313 
Q 434 1759 690 2068 
Q 947 2378 1403 2484 
z
M 1172 3481 
Q 1172 3119 1398 2916 
Q 1625 2713 2034 2713 
Q 2441 2713 2670 2916 
Q 2900 3119 2900 3481 
Q 2900 3844 2670 4047 
Q 2441 4250 2034 4250 
Q 1625 4250 1398 4047 
Q 1172 3844 1172 3481 
z
" transform="scale(0.015625)"/>
     </defs>
     <use xlink:href="#DejaVuSans-38"/>
    </g>
   </g>
   <g id="text_16">
    <!-- V3=4V -->
    <g transform="translate(0 302.343125) scale(0.14 -0.14)">
     <use xlink:href="#DejaVuSans-56"/>
     <use xlink:href="#DejaVuSans-33" x="68.408203"/>
     <use xlink:href="#DejaVuSans-3d" x="132.03125"/>
     <use xlink:href="#DejaVuSans-34" x="215.820312"/>
     <use xlink:href="#DejaVuSans-56" x="279.443359"/>
    </g>
   </g>
   <g id="text_17">
    <!-- R7=1Ω -->
    <g transform="translate(135.313594 231.717812) scale(0.14 -0.14)">
     <use xlink:href="#DejaVuSans-52"/>
     <use xlink:href="#DejaVuSans-37" x="69.482422"/>
     <use xlink:href="#DejaVuSans-3d" x="133.105469"/>
     <use xlink:href="#DejaVuSans-31" x="216.894531"/>
     <use xlink:href="#DejaVuSans-3a9" x="280.517578"/>
    </g>
   </g>
   <g id="patch_21">
    <path d="M 430.300313 31.18 
C 431.016361 31.18 431.703178 30.895511 432.209501 30.389188 
C 432.715823 29.882866 433.000313 29.196048 433.000313 28.48 
C 433.000313 27.763952 432.715823 27.077134 432.209501 26.570812 
C 431.703178 26.064489 431.016361 25.78 430.300313 25.78 
C 429.584264 25.78 428.897447 26.064489 428.391124 26.570812 
C 427.884802 27.077134 427.600313 27.763952 427.600313 28.48 
C 427.600313 29.196048 427.884802 29.882866 428.391124 30.389188 
C 428.897447 30.895511 429.584264 31.18 430.300313 31.18 
z
" clip-path="url(#p1a4a381130)" style="stroke: #000000; stroke-width: 2; stroke-linejoin: miter"/>
   </g>
   <g id="text_18">
    <!-- I1=1A -->
    <g transform="translate(365.446875 120.993125) scale(0.14 -0.14)">
     <defs>
      <path id="DejaVuSans-49" d="M 628 4666 
L 1259 4666 
L 1259 0 
L 628 0 
L 628 4666 
z
" transform="scale(0.015625)"/>
      <path id="DejaVuSans-41" d="M 2188 4044 
L 1331 1722 
L 3047 1722 
L 2188 4044 
z
M 1831 4666 
L 2547 4666 
L 4325 0 
L 3669 0 
L 3244 1197 
L 1141 1197 
L 716 0 
L 50 0 
L 1831 4666 
z
" transform="scale(0.015625)"/>
     </defs>
     <use xlink:href="#DejaVuSans-49"/>
     <use xlink:href="#DejaVuSans-31" x="29.492188"/>
     <use xlink:href="#DejaVuSans-3d" x="93.115234"/>
     <use xlink:href="#DejaVuSans-31" x="176.904297"/>
     <use xlink:href="#DejaVuSans-41" x="240.527344"/>
    </g>
   </g>
   <g id="text_19">
    <!-- 6 -->
    <g transform="translate(425.846563 222.717812) scale(0.14 -0.14)">
     <use xlink:href="#DejaVuSans-36"/>
    </g>
   </g>
   <g id="text_20">
    <!-- $I_1$ -->
    <g transform="translate(159.410313 122.343125) scale(0.14 -0.14)">
     <defs>
      <path id="DejaVuSans-Oblique-49" d="M 1081 4666 
L 1716 4666 
L 806 0 
L 172 0 
L 1081 4666 
z
" transform="scale(0.015625)"/>
     </defs>
     <use xlink:href="#DejaVuSans-Oblique-49" transform="translate(0 0.09375)"/>
     <use xlink:href="#DejaVuSans-31" transform="translate(29.492188 -16.3125) scale(0.7)"/>
    </g>
   </g>
   <g id="text_21">
    <!-- $I_2$ -->
    <g transform="translate(330.410313 122.343125) scale(0.14 -0.14)">
     <use xlink:href="#DejaVuSans-Oblique-49" transform="translate(0 0.09375)"/>
     <use xlink:href="#DejaVuSans-32" transform="translate(29.492188 -16.3125) scale(0.7)"/>
    </g>
   </g>
   <g id="text_22">
    <!-- $I_3$ -->
    <g transform="translate(330.410313 302.343125) scale(0.14 -0.14)">
     <use xlink:href="#DejaVuSans-Oblique-49" transform="translate(0 0.09375)"/>
     <use xlink:href="#DejaVuSans-33" transform="translate(29.492188 -16.3125) scale(0.7)"/>
    </g>
   </g>
   <g id="text_23">
    <!-- $I_4$ -->
    <g transform="translate(159.410313 302.343125) scale(0.14 -0.14)">
     <use xlink:href="#DejaVuSans-Oblique-49" transform="translate(0 0.09375)"/>
     <use xlink:href="#DejaVuSans-34" transform="translate(29.492188 -16.3125) scale(0.7)"/>
    </g>
   </g>
   <g id="patch_22">
    <path d="M 250.300313 31.18 
C 251.016361 31.18 251.703178 30.895511 252.209501 30.389188 
C 252.715823 29.882866 253.000313 29.196048 253.000313 28.48 
C 253.000313 27.763952 252.715823 27.077134 252.209501 26.570812 
C 251.703178 26.064489 251.016361 25.78 250.300313 25.78 
C 249.584264 25.78 248.897447 26.064489 248.391124 26.570812 
C 247.884802 27.077134 247.600313 27.763952 247.600313 28.48 
C 247.600313 29.196048 247.884802 29.882866 248.391124 30.389188 
C 248.897447 30.895511 249.584264 31.18 250.300313 31.18 
z
" clip-path="url(#p1a4a381130)" style="stroke: #000000; stroke-width: 2; stroke-linejoin: miter"/>
   </g>
   <g id="patch_23">
    <path d="M 70.300313 211.18 
C 71.016361 211.18 71.703178 210.895511 72.209501 210.389188 
C 72.715823 209.882866 73.000313 209.196048 73.000313 208.48 
C 73.000313 207.763952 72.715823 207.077134 72.209501 206.570812 
C 71.703178 206.064489 71.016361 205.78 70.300313 205.78 
C 69.584264 205.78 68.897447 206.064489 68.391124 206.570812 
C 67.884802 207.077134 67.600313 207.763952 67.600313 208.48 
C 67.600313 209.196048 67.884802 209.882866 68.391124 210.389188 
C 68.897447 210.895511 69.584264 211.18 70.300313 211.18 
z
" clip-path="url(#p1a4a381130)" style="stroke: #000000; stroke-width: 2; stroke-linejoin: miter"/>
   </g>
  </g>
 </g>
 <defs>
  <clipPath id="p1a4a381130">
   <rect x="1.264312" y="-0" width="451.716" height="416.96"/>
  </clipPath>
 </defs>
</svg>