<?xml version="1.0" encoding="utf-8" standalone="no"?>
<!DOCTYPE svg PUBLIC "-//W3C//DTD SVG 1.1//EN"
  "http://www.w3.org/Graphics/SVG/1.1/DTD/svg11.dtd">
<svg xmlns:xlink="http://www.w3.org/1999/xlink" width="303.336pt" height="230.26pt" viewBox="0 0 303.336 230.26" xmlns="http://www.w3.org/2000/svg" version="1.1">
 <metadata>
  <rdf:RDF xmlns:dc="http://purl.org/dc/elements/1.1/" xmlns:cc="http://creativecommons.org/ns#" xmlns:rdf="http://www.w3.org/1999/02/22-rdf-syntax-ns#">
   <cc:Work>
    <dc:type rdf:resource="http://purl.org/dc/dcmitype/StillImage"/>
    <dc:date>2024-08-02T20:39:33.534607</dc:date>
    <dc:format>image/svg+xml</dc:format>
    <dc:creator>
     <cc:Agent>
      <dc:title>Matplotlib v3.9.1, https://matplotlib.org/</dc:title>
     </cc:Agent>
    </dc:creator>
   </cc:Work>
  </rdf:RDF>
 </metadata>
 <defs>
  <style type="text/css">*{stroke-linejoin: round; stroke-linecap: butt}</style>
 </defs>
 <g id="figure_1">
  <g id="patch_1">
   <path d="M 0 230.26 
L 303.336 230.26 
L 303.336 0 
L 0 0 
z
" style="fill: #ffffff"/>
  </g>
  <g id="axes_1">
   <g id="patch_2">
    <path d="M 43.668 186.88 
C 48.441656 186.88 53.020438 184.983406 56.395922 181.607922 
C 59.771406 178.232438 61.668 173.653656 61.668 168.88 
C 61.668 164.106344 59.771406 159.527562 56.395922 156.152078 
C 53.020438 152.776594 48.441656 150.88 43.668 150.88 
C 38.894344 150.88 34.315562 152.776594 30.940078 156.152078 
C 27.564594 159.527562 25.668 164.106344 25.668 168.88 
C 25.668 173.653656 27.564594 178.232438 30.940078 181.607922 
C 34.315562 184.983406 38.894344 186.88 43.668 186.88 
L 43.668 186.88 
z
" clip-path="url(#p6228179eeb)" style="fill: none; stroke: #000000; stroke-width: 2; stroke-linejoin: miter"/>
   </g>
   <g id="patch_3">
    <path d="M 259.668 186.88 
C 264.441656 186.88 269.020438 184.983406 272.395922 181.607922 
C 275.771406 178.232438 277.668 173.653656 277.668 168.88 
C 277.668 164.106344 275.771406 159.527562 272.395922 156.152078 
C 269.020438 152.776594 264.441656 150.88 259.668 150.88 
C 254.894344 150.88 250.315562 152.776594 246.940078 156.152078 
C 243.564594 159.527562 241.668 164.106344 241.668 168.88 
C 241.668 173.653656 243.564594 178.232438 246.940078 181.607922 
C 250.315562 184.983406 254.894344 186.88 259.668 186.88 
L 259.668 186.88 
z
" clip-path="url(#p6228179eeb)" style="fill: none; stroke: #000000; stroke-width: 2; stroke-linejoin: miter"/>
   </g>
   <g id="line2d_1">
    <path d="M 43.668 222.88 
L 43.668 186.88 
L 43.668 186.88 
M 43.668 150.88 
L 43.668 150.88 
L 43.668 114.88 
" clip-path="url(#p6228179eeb)" style="fill: none; stroke: #000000; stroke-width: 2; stroke-linecap: round"/>
   </g>
   <g id="line2d_2">
    <path d="M 43.668 177.88 
L 43.668 168.88 
" clip-path="url(#p6228179eeb)" style="fill: none; stroke: #000000; stroke-width: 2; stroke-linecap: round"/>
   </g>
   <g id="patch_4">
    <path d="M 40.968 168.88 
L 43.668 159.88 
L 46.368 168.88 
z
" clip-path="url(#p6228179eeb)"/>
   </g>
   <g id="line2d_3">
    <path d="M 43.668 114.88 
L 79.668 114.88 
L 82.668 105.88 
L 88.668 123.88 
L 94.668 105.88 
L 100.668 123.88 
L 106.668 105.88 
L 112.668 123.88 
L 115.668 114.88 
L 151.668 114.88 
" clip-path="url(#p6228179eeb)" style="fill: none; stroke: #000000; stroke-width: 2; stroke-linecap: round"/>
   </g>
   <g id="line2d_4">
    <path d="M 151.668 114.88 
L 151.668 150.88 
L 160.668 153.88 
L 142.668 159.88 
L 160.668 165.88 
L 142.668 171.88 
L 160.668 177.88 
L 142.668 183.88 
L 151.668 186.88 
L 151.668 222.88 
" clip-path="url(#p6228179eeb)" style="fill: none; stroke: #000000; stroke-width: 2; stroke-linecap: round"/>
   </g>
   <g id="line2d_5">
    <path d="M 151.668 114.88 
L 187.668 114.88 
L 190.668 105.88 
L 196.668 123.88 
L 202.668 105.88 
L 208.668 123.88 
L 214.668 105.88 
L 220.668 123.88 
L 223.668 114.88 
L 259.668 114.88 
" clip-path="url(#p6228179eeb)" style="fill: none; stroke: #000000; stroke-width: 2; stroke-linecap: round"/>
   </g>
   <g id="line2d_6">
    <path d="M 259.668 114.88 
L 259.668 150.88 
L 259.668 150.88 
M 259.668 186.88 
L 259.668 186.88 
L 259.668 222.88 
" clip-path="url(#p6228179eeb)" style="fill: none; stroke: #000000; stroke-width: 2; stroke-linecap: round"/>
   </g>
   <g id="line2d_7">
    <path d="M 263.268 177.88 
L 256.068 177.88 
" clip-path="url(#p6228179eeb)" style="fill: none; stroke: #000000; stroke-width: 2; stroke-linecap: round"/>
   </g>
   <g id="line2d_8">
    <path d="M 259.668 156.28 
L 259.668 163.48 
" clip-path="url(#p6228179eeb)" style="fill: none; stroke: #000000; stroke-width: 2; stroke-linecap: round"/>
   </g>
   <g id="line2d_9">
    <path d="M 263.268 159.88 
L 256.068 159.88 
" clip-path="url(#p6228179eeb)" style="fill: none; stroke: #000000; stroke-width: 2; stroke-linecap: round"/>
   </g>
   <g id="line2d_10">
    <path d="M 259.668 222.88 
L 151.668 222.88 
L 43.668 222.88 
" clip-path="url(#p6228179eeb)" style="fill: none; stroke: #000000; stroke-width: 2; stroke-linecap: round"/>
   </g>
   <g id="line2d_11">
    <path d="M 43.668 114.88 
L 43.668 71.68 
L 43.668 28.48 
" clip-path="url(#p6228179eeb)" style="fill: none; stroke: #000000; stroke-width: 2; stroke-linecap: round"/>
   </g>
   <g id="line2d_12">
    <path d="M 43.668 28.48 
L 133.668 28.48 
L 136.668 19.48 
L 142.668 37.48 
L 148.668 19.48 
L 154.668 37.48 
L 160.668 19.48 
L 166.668 37.48 
L 169.668 28.48 
L 259.668 28.48 
" clip-path="url(#p6228179eeb)" style="fill: none; stroke: #000000; stroke-width: 2; stroke-linecap: round"/>
   </g>
   <g id="line2d_13">
    <path d="M 259.668 28.48 
L 259.668 71.68 
L 259.668 114.88 
" clip-path="url(#p6228179eeb)" style="fill: none; stroke: #000000; stroke-width: 2; stroke-linecap: round"/>
   </g>
   <g id="line2d_14">
    <path d="M 115.668 48.28 
L 176.868 48.28 
" clip-path="url(#p6228179eeb)" style="fill: none; stroke: #000000; stroke-width: 2; stroke-linecap: round"/>
   </g>
   <g id="patch_5">
    <path d="M 176.868 44.68 
L 187.668 48.28 
L 176.868 51.88 
z
" clip-path="url(#p6228179eeb)"/>
   </g>
   <g id="patch_6">
    <path d="M 43.668 117.58 
C 44.384048 117.58 45.070866 117.295511 45.577188 116.789188 
C 46.083511 116.282866 46.368 115.596048 46.368 114.88 
C 46.368 114.163952 46.083511 113.477134 45.577188 112.970812 
C 45.070866 112.464489 44.384048 112.18 43.668 112.18 
C 42.951952 112.18 42.265134 112.464489 41.758812 112.970812 
C 41.252489 113.477134 40.968 114.163952 40.968 114.88 
C 40.968 115.596048 41.252489 116.282866 41.758812 116.789188 
C 42.265134 117.295511 42.951952 117.58 43.668 117.58 
z
" clip-path="url(#p6228179eeb)" style="stroke: #000000; stroke-width: 2; stroke-linejoin: miter"/>
   </g>
   <g id="text_1">
    <!-- 5A -->
    <g transform="translate(3.583625 171.393125) scale(0.14 -0.14)">
     <defs>
      <path id="DejaVuSans-35" d="M 691 4666 
L 3169 4666 
L 3169 4134 
L 1269 4134 
L 1269 2991 
Q 1406 3038 1543 3061 
Q 1681 3084 1819 3084 
Q 2600 3084 3056 2656 
Q 3513 2228 3513 1497 
Q 3513 744 3044 326 
Q 2575 -91 1722 -91 
Q 1428 -91 1123 -41 
Q 819 9 494 109 
L 494 744 
Q 775 591 1075 516 
Q 1375 441 1709 441 
Q 2250 441 2565 725 
Q 2881 1009 2881 1497 
Q 2881 1984 2565 2268 
Q 2250 2553 1709 2553 
Q 1456 2553 1204 2497 
Q 953 2441 691 2322 
L 691 4666 
z
" transform="scale(0.015625)"/>
      <path id="DejaVuSans-41" d="M 2188 4044 
L 1331 1722 
L 3047 1722 
L 2188 4044 
z
M 1831 4666 
L 2547 4666 
L 4325 0 
L 3669 0 
L 3244 1197 
L 1141 1197 
L 716 0 
L 50 0 
L 1831 4666 
z
" transform="scale(0.015625)"/>
     </defs>
     <use xlink:href="#DejaVuSans-35"/>
     <use xlink:href="#DejaVuSans-41" x="63.623047"/>
    </g>
   </g>
   <g id="patch_7">
    <path d="M 151.668 117.58 
C 152.384048 117.58 153.070866 117.295511 153.577188 116.789188 
C 154.083511 116.282866 154.368 115.596048 154.368 114.88 
C 154.368 114.163952 154.083511 113.477134 153.577188 112.970812 
C 153.070866 112.464489 152.384048 112.18 151.668 112.18 
C 150.951952 112.18 150.265134 112.464489 149.758812 112.970812 
C 149.252489 113.477134 148.968 114.163952 148.968 114.88 
C 148.968 115.596048 149.252489 116.282866 149.758812 116.789188 
C 150.265134 117.295511 150.951952 117.58 151.668 117.58 
z
" clip-path="url(#p6228179eeb)" style="stroke: #000000; stroke-width: 2; stroke-linejoin: miter"/>
   </g>
   <g id="text_2">
    <!-- 3立 -->
    <g transform="translate(89.214719 99.368437) scale(0.14 -0.14)">
     <defs>
      <path id="DejaVuSans-33" d="M 2597 2516 
Q 3050 2419 3304 2112 
Q 3559 1806 3559 1356 
Q 3559 666 3084 287 
Q 2609 -91 1734 -91 
Q 1441 -91 1130 -33 
Q 819 25 488 141 
L 488 750 
Q 750 597 1062 519 
Q 1375 441 1716 441 
Q 2309 441 2620 675 
Q 2931 909 2931 1356 
Q 2931 1769 2642 2001 
Q 2353 2234 1838 2234 
L 1294 2234 
L 1294 2753 
L 1863 2753 
Q 2328 2753 2575 2939 
Q 2822 3125 2822 3475 
Q 2822 3834 2567 4026 
Q 2313 4219 1838 4219 
Q 1578 4219 1281 4162 
Q 984 4106 628 3988 
L 628 4550 
Q 988 4650 1302 4700 
Q 1616 4750 1894 4750 
Q 2613 4750 3031 4423 
Q 3450 4097 3450 3541 
Q 3450 3153 3228 2886 
Q 3006 2619 2597 2516 
z
" transform="scale(0.015625)"/>
      <path id="DejaVuSans-3a9" d="M 4647 556 
L 4647 0 
L 2772 0 
L 2772 556 
Q 3325 859 3634 1378 
Q 3944 1897 3944 2528 
Q 3944 3278 3531 3731 
Q 3119 4184 2444 4184 
Q 1769 4184 1355 3729 
Q 941 3275 941 2528 
Q 941 1897 1250 1378 
Q 1563 859 2119 556 
L 2119 0 
L 244 0 
L 244 556 
L 1241 556 
Q 747 991 519 1456 
Q 294 1922 294 2497 
Q 294 3491 894 4106 
Q 1491 4722 2444 4722 
Q 3391 4722 3994 4106 
Q 4594 3494 4594 2528 
Q 4594 1922 4372 1459 
Q 4150 997 3647 556 
L 4647 556 
z
" transform="scale(0.015625)"/>
     </defs>
     <use xlink:href="#DejaVuSans-33"/>
     <use xlink:href="#DejaVuSans-3a9" x="63.623047"/>
    </g>
   </g>
   <g id="patch_8">
    <path d="M 151.668 225.58 
C 152.384048 225.58 153.070866 225.295511 153.577188 224.789188 
C 154.083511 224.282866 154.368 223.596048 154.368 222.88 
C 154.368 222.163952 154.083511 221.477134 153.577188 220.970812 
C 153.070866 220.464489 152.384048 220.18 151.668 220.18 
C 150.951952 220.18 150.265134 220.464489 149.758812 220.970812 
C 149.252489 221.477134 148.968 222.163952 148.968 222.88 
C 148.968 223.596048 149.252489 224.282866 149.758812 224.789188 
C 150.265134 225.295511 150.951952 225.58 151.668 225.58 
z
" clip-path="url(#p6228179eeb)" style="stroke: #000000; stroke-width: 2; stroke-linejoin: miter"/>
   </g>
   <g id="text_3">
    <!-- 2立 -->
    <g transform="translate(119.461438 174.093125) scale(0.14 -0.14)">
     <defs>
      <path id="DejaVuSans-32" d="M 1228 531 
L 3431 531 
L 3431 0 
L 469 0 
L 469 531 
Q 828 903 1448 1529 
Q 2069 2156 2228 2338 
Q 2531 2678 2651 2914 
Q 2772 3150 2772 3378 
Q 2772 3750 2511 3984 
Q 2250 4219 1831 4219 
Q 1534 4219 1204 4116 
Q 875 4013 500 3803 
L 500 4441 
Q 881 4594 1212 4672 
Q 1544 4750 1819 4750 
Q 2544 4750 2975 4387 
Q 3406 4025 3406 3419 
Q 3406 3131 3298 2873 
Q 3191 2616 2906 2266 
Q 2828 2175 2409 1742 
Q 1991 1309 1228 531 
z
" transform="scale(0.015625)"/>
     </defs>
     <use xlink:href="#DejaVuSans-32"/>
     <use xlink:href="#DejaVuSans-3a9" x="63.623047"/>
    </g>
   </g>
   <g id="patch_9">
    <path d="M 259.668 117.58 
C 260.384048 117.58 261.070866 117.295511 261.577188 116.789188 
C 262.083511 116.282866 262.368 115.596048 262.368 114.88 
C 262.368 114.163952 262.083511 113.477134 261.577188 112.970812 
C 261.070866 112.464489 260.384048 112.18 259.668 112.18 
C 258.951952 112.18 258.265134 112.464489 257.758812 112.970812 
C 257.252489 113.477134 256.968 114.163952 256.968 114.88 
C 256.968 115.596048 257.252489 116.282866 257.758812 116.789188 
C 258.265134 117.295511 258.951952 117.58 259.668 117.58 
z
" clip-path="url(#p6228179eeb)" style="stroke: #000000; stroke-width: 2; stroke-linejoin: miter"/>
   </g>
   <g id="text_4">
    <!-- 5立 -->
    <g transform="translate(197.214719 99.368437) scale(0.14 -0.14)">
     <use xlink:href="#DejaVuSans-35"/>
     <use xlink:href="#DejaVuSans-3a9" x="63.623047"/>
    </g>
   </g>
   <g id="text_5">
    <!-- 5V -->
    <g transform="translate(281.268 172.743125) scale(0.14 -0.14)">
     <defs>
      <path id="DejaVuSans-56" d="M 1831 0 
L 50 4666 
L 709 4666 
L 2188 738 
L 3669 4666 
L 4325 4666 
L 2547 0 
L 1831 0 
z
" transform="scale(0.015625)"/>
     </defs>
     <use xlink:href="#DejaVuSans-35"/>
     <use xlink:href="#DejaVuSans-56" x="63.623047"/>
    </g>
   </g>
   <g id="text_6">
    <!-- 3立 -->
    <g transform="translate(141.864719 12.968437) scale(0.14 -0.14)">
     <use xlink:href="#DejaVuSans-33"/>
     <use xlink:href="#DejaVuSans-3a9" x="63.623047"/>
    </g>
   </g>
   <g id="text_7">
    <!-- $i_g$ -->
    <g transform="translate(146.418 62.52) scale(0.14 -0.14)">
     <defs>
      <path id="DejaVuSans-Oblique-69" d="M 1172 4863 
L 1747 4863 
L 1606 4134 
L 1031 4134 
L 1172 4863 
z
M 909 3500 
L 1484 3500 
L 800 0 
L 225 0 
L 909 3500 
z
" transform="scale(0.015625)"/>
      <path id="DejaVuSans-Oblique-67" d="M 3816 3500 
L 3219 434 
Q 3047 -456 2561 -893 
Q 2075 -1331 1253 -1331 
Q 950 -1331 690 -1286 
Q 431 -1241 206 -1147 
L 313 -588 
Q 525 -725 762 -790 
Q 1000 -856 1269 -856 
Q 1816 -856 2167 -557 
Q 2519 -259 2631 300 
L 2681 563 
Q 2441 288 2122 144 
Q 1803 0 1434 0 
Q 903 0 598 351 
Q 294 703 294 1319 
Q 294 1803 478 2267 
Q 663 2731 997 3091 
Q 1219 3328 1514 3456 
Q 1809 3584 2131 3584 
Q 2484 3584 2746 3420 
Q 3009 3256 3138 2956 
L 3238 3500 
L 3816 3500 
z
M 2950 2216 
Q 2950 2641 2750 2872 
Q 2550 3103 2181 3103 
Q 1953 3103 1747 3012 
Q 1541 2922 1394 2759 
Q 1156 2491 1023 2127 
Q 891 1763 891 1375 
Q 891 944 1092 712 
Q 1294 481 1672 481 
Q 2219 481 2584 976 
Q 2950 1472 2950 2216 
z
" transform="scale(0.015625)"/>
     </defs>
     <use xlink:href="#DejaVuSans-Oblique-69" transform="translate(0 0.015625)"/>
     <use xlink:href="#DejaVuSans-Oblique-67" transform="translate(27.783203 -16.390625) scale(0.7)"/>
    </g>
   </g>
  </g>
 </g>
 <defs>
  <clipPath id="p6228179eeb">
   <rect x="0" y="0" width="303.336" height="230.26"/>
  </clipPath>
 </defs>
</svg>