<?xml version="1.0" encoding="utf-8" standalone="no"?>
<!DOCTYPE svg PUBLIC "-//W3C//DTD SVG 1.1//EN"
  "http://www.w3.org/Graphics/SVG/1.1/DTD/svg11.dtd">
<svg xmlns:xlink="http://www.w3.org/1999/xlink" width="269.976pt" height="139.18pt" viewBox="0 0 269.976 139.18" xmlns="http://www.w3.org/2000/svg" version="1.1">
 <metadata>
  <rdf:RDF xmlns:dc="http://purl.org/dc/elements/1.1/" xmlns:cc="http://creativecommons.org/ns#" xmlns:rdf="http://www.w3.org/1999/02/22-rdf-syntax-ns#">
   <cc:Work>
    <dc:type rdf:resource="http://purl.org/dc/dcmitype/StillImage"/>
    <dc:date>2024-08-02T22:35:43.801303</dc:date>
    <dc:format>image/svg+xml</dc:format>
    <dc:creator>
     <cc:Agent>
      <dc:title>Matplotlib v3.9.1, https://matplotlib.org/</dc:title>
     </cc:Agent>
    </dc:creator>
   </cc:Work>
  </rdf:RDF>
 </metadata>
 <defs>
  <style type="text/css">*{stroke-linejoin: round; stroke-linecap: butt}</style>
 </defs>
 <g id="figure_1">
  <g id="patch_1">
   <path d="M 0 139.18 
L 269.976 139.18 
L 269.976 0 
L 0 0 
z
" style="fill: #ffffff"/>
  </g>
  <g id="axes_1">
   <g id="patch_2">
    <path d="M 43.668 95.8 
C 48.441656 95.8 53.020438 93.903406 56.395922 90.527922 
C 59.771406 87.152438 61.668 82.573656 61.668 77.8 
C 61.668 73.026344 59.771406 68.447562 56.395922 65.072078 
C 53.020438 61.696594 48.441656 59.8 43.668 59.8 
C 38.894344 59.8 34.315562 61.696594 30.940078 65.072078 
C 27.564594 68.447562 25.668 73.026344 25.668 77.8 
C 25.668 82.573656 27.564594 87.152438 30.940078 90.527922 
C 34.315562 93.903406 38.894344 95.8 43.668 95.8 
L 43.668 95.8 
z
" clip-path="url(#p503822deda)" style="fill: none; stroke: #000000; stroke-width: 2; stroke-linejoin: miter"/>
   </g>
   <g id="patch_3">
    <path d="M 140.644091 35.741545 
C 137.969835 35.53197 135.261709 35.860511 132.869636 36.684716 
C 130.477563 37.50892 128.509208 38.791692 127.218905 40.367282 
" clip-path="url(#p503822deda)" style="fill: none; stroke: #000000; stroke-width: 2; stroke-linejoin: miter"/>
   </g>
   <g id="patch_4">
    <path d="M 149.940084 36.834302 
L 140.686411 38.465111 
L 140.999527 35.801451 
L 140.641989 35.759422 
L 140.646192 35.723668 
L 141.00373 35.765697 
L 141.316847 33.102038 
z
" clip-path="url(#p503822deda)" style="stroke: #000000; stroke-linejoin: miter"/>
   </g>
   <g id="line2d_1">
    <path d="M 43.668 131.8 
L 43.668 95.8 
L 43.668 95.8 
M 43.668 59.8 
L 43.668 59.8 
L 43.668 23.8 
" clip-path="url(#p503822deda)" style="fill: none; stroke: #000000; stroke-width: 2; stroke-linecap: round"/>
   </g>
   <g id="line2d_2">
    <path d="M 47.268 86.8 
L 40.068 86.8 
" clip-path="url(#p503822deda)" style="fill: none; stroke: #000000; stroke-width: 2; stroke-linecap: round"/>
   </g>
   <g id="line2d_3">
    <path d="M 43.668 72.4 
L 43.668 65.2 
" clip-path="url(#p503822deda)" style="fill: none; stroke: #000000; stroke-width: 2; stroke-linecap: round"/>
   </g>
   <g id="line2d_4">
    <path d="M 47.268 68.8 
L 40.068 68.8 
" clip-path="url(#p503822deda)" style="fill: none; stroke: #000000; stroke-width: 2; stroke-linecap: round"/>
   </g>
   <g id="line2d_5">
    <path d="M 43.668 23.8 
L 84.168 23.8 
L 124.668 23.8 
" clip-path="url(#p503822deda)" style="fill: none; stroke: #000000; stroke-width: 2; stroke-linecap: round"/>
   </g>
   <g id="line2d_6">
    <path d="M 139.068 55.48 
M 135.468 46.84 
L 130.068 30.28 
M 124.668 19.48 
" clip-path="url(#p503822deda)" style="fill: none; stroke: #000000; stroke-width: 2; stroke-linecap: round"/>
   </g>
   <g id="line2d_7">
    <path d="M 153.468 23.8 
L 193.968 23.8 
L 234.468 23.8 
" clip-path="url(#p503822deda)" style="fill: none; stroke: #000000; stroke-width: 2; stroke-linecap: round"/>
   </g>
   <g id="line2d_8">
    <path d="M 234.468 23.8 
L 234.468 59.8 
L 243.468 62.8 
L 225.468 68.8 
L 243.468 74.8 
L 225.468 80.8 
L 243.468 86.8 
L 225.468 92.8 
L 234.468 95.8 
L 234.468 131.8 
" clip-path="url(#p503822deda)" style="fill: none; stroke: #000000; stroke-width: 2; stroke-linecap: round"/>
   </g>
   <g id="line2d_9">
    <path d="M 234.468 131.8 
L 139.068 131.8 
L 43.668 131.8 
" clip-path="url(#p503822deda)" style="fill: none; stroke: #000000; stroke-width: 2; stroke-linecap: round"/>
   </g>
   <g id="line2d_10">
    <path d="M 139.068 51.16 
L 139.068 88.24 
M 148.068 88.24 
L 130.068 88.24 
M 148.068 94.72 
L 130.068 94.72 
M 139.068 94.72 
L 139.068 131.8 
" clip-path="url(#p503822deda)" style="fill: none; stroke: #000000; stroke-width: 2; stroke-linecap: round"/>
   </g>
   <g id="text_1">
    <!-- 5V -->
    <g transform="translate(3.583625 81.663125) scale(0.14 -0.14)">
     <defs>
      <path id="DejaVuSans-35" d="M 691 4666 
L 3169 4666 
L 3169 4134 
L 1269 4134 
L 1269 2991 
Q 1406 3038 1543 3061 
Q 1681 3084 1819 3084 
Q 2600 3084 3056 2656 
Q 3513 2228 3513 1497 
Q 3513 744 3044 326 
Q 2575 -91 1722 -91 
Q 1428 -91 1123 -41 
Q 819 9 494 109 
L 494 744 
Q 775 591 1075 516 
Q 1375 441 1709 441 
Q 2250 441 2565 725 
Q 2881 1009 2881 1497 
Q 2881 1984 2565 2268 
Q 2250 2553 1709 2553 
Q 1456 2553 1204 2497 
Q 953 2441 691 2322 
L 691 4666 
z
" transform="scale(0.015625)"/>
      <path id="DejaVuSans-56" d="M 1831 0 
L 50 4666 
L 709 4666 
L 2188 738 
L 3669 4666 
L 4325 4666 
L 2547 0 
L 1831 0 
z
" transform="scale(0.015625)"/>
     </defs>
     <use xlink:href="#DejaVuSans-35"/>
     <use xlink:href="#DejaVuSans-56" x="63.623047"/>
    </g>
   </g>
   <g id="patch_5">
    <path d="M 139.068 55.48 
C 140.213677 55.48 141.312585 55.024818 142.122701 54.214701 
C 142.932818 53.404585 143.388 52.305677 143.388 51.16 
C 143.388 50.014323 142.932818 48.915415 142.122701 48.105299 
C 141.312585 47.295182 140.213677 46.84 139.068 46.84 
C 137.922323 46.84 136.823415 47.295182 136.013299 48.105299 
C 135.203182 48.915415 134.748 50.014323 134.748 51.16 
C 134.748 52.305677 135.203182 53.404585 136.013299 54.214701 
C 136.823415 55.024818 137.922323 55.48 139.068 55.48 
z
" clip-path="url(#p503822deda)" style="fill: #ffffff; stroke: #000000; stroke-width: 2; stroke-linejoin: miter"/>
   </g>
   <g id="patch_6">
    <path d="M 153.468 28.12 
C 154.613677 28.12 155.712585 27.664818 156.522701 26.854701 
C 157.332818 26.044585 157.788 24.945677 157.788 23.8 
C 157.788 22.654323 157.332818 21.555415 156.522701 20.745299 
C 155.712585 19.935182 154.613677 19.48 153.468 19.48 
C 152.322323 19.48 151.223415 19.935182 150.413299 20.745299 
C 149.603182 21.555415 149.148 22.654323 149.148 23.8 
C 149.148 24.945677 149.603182 26.044585 150.413299 26.854701 
C 151.223415 27.664818 152.322323 28.12 153.468 28.12 
z
" clip-path="url(#p503822deda)" style="fill: #ffffff; stroke: #000000; stroke-width: 2; stroke-linejoin: miter"/>
   </g>
   <g id="patch_7">
    <path d="M 124.668 28.12 
C 125.813677 28.12 126.912585 27.664818 127.722701 26.854701 
C 128.532818 26.044585 128.988 24.945677 128.988 23.8 
C 128.988 22.654323 128.532818 21.555415 127.722701 20.745299 
C 126.912585 19.935182 125.813677 19.48 124.668 19.48 
C 123.522323 19.48 122.423415 19.935182 121.613299 20.745299 
C 120.803182 21.555415 120.348 22.654323 120.348 23.8 
C 120.348 24.945677 120.803182 26.044585 121.613299 26.854701 
C 122.423415 27.664818 123.522323 28.12 124.668 28.12 
z
" clip-path="url(#p503822deda)" style="fill: #ffffff; stroke: #000000; stroke-width: 2; stroke-linejoin: miter"/>
   </g>
   <g id="text_2">
    <!-- $t=0$ -->
    <g transform="translate(123.248 12.968438) scale(0.14 -0.14)">
     <defs>
      <path id="DejaVuSans-Oblique-74" d="M 2706 3500 
L 2619 3053 
L 1472 3053 
L 1100 1153 
Q 1081 1047 1072 975 
Q 1063 903 1063 863 
Q 1063 663 1183 572 
Q 1303 481 1569 481 
L 2150 481 
L 2053 0 
L 1503 0 
Q 991 0 739 200 
Q 488 400 488 806 
Q 488 878 497 964 
Q 506 1050 525 1153 
L 897 3053 
L 409 3053 
L 500 3500 
L 978 3500 
L 1172 4494 
L 1747 4494 
L 1556 3500 
L 2706 3500 
z
" transform="scale(0.015625)"/>
      <path id="DejaVuSans-3d" d="M 678 2906 
L 4684 2906 
L 4684 2381 
L 678 2381 
L 678 2906 
z
M 678 1631 
L 4684 1631 
L 4684 1100 
L 678 1100 
L 678 1631 
z
" transform="scale(0.015625)"/>
      <path id="DejaVuSans-30" d="M 2034 4250 
Q 1547 4250 1301 3770 
Q 1056 3291 1056 2328 
Q 1056 1369 1301 889 
Q 1547 409 2034 409 
Q 2525 409 2770 889 
Q 3016 1369 3016 2328 
Q 3016 3291 2770 3770 
Q 2525 4250 2034 4250 
z
M 2034 4750 
Q 2819 4750 3233 4129 
Q 3647 3509 3647 2328 
Q 3647 1150 3233 529 
Q 2819 -91 2034 -91 
Q 1250 -91 836 529 
Q 422 1150 422 2328 
Q 422 3509 836 4129 
Q 1250 4750 2034 4750 
z
" transform="scale(0.015625)"/>
     </defs>
     <use xlink:href="#DejaVuSans-Oblique-74" transform="translate(0 0.78125)"/>
     <use xlink:href="#DejaVuSans-3d" transform="translate(58.691406 0.78125)"/>
     <use xlink:href="#DejaVuSans-30" transform="translate(161.962891 0.78125)"/>
    </g>
   </g>
   <g id="text_3">
    <!-- $100\Omega$ -->
    <g transform="translate(184.348 81.663125) scale(0.14 -0.14)">
     <defs>
      <path id="DejaVuSans-31" d="M 794 531 
L 1825 531 
L 1825 4091 
L 703 3866 
L 703 4441 
L 1819 4666 
L 2450 4666 
L 2450 531 
L 3481 531 
L 3481 0 
L 794 0 
L 794 531 
z
" transform="scale(0.015625)"/>
      <path id="DejaVuSans-3a9" d="M 4647 556 
L 4647 0 
L 2772 0 
L 2772 556 
Q 3325 859 3634 1378 
Q 3944 1897 3944 2528 
Q 3944 3278 3531 3731 
Q 3119 4184 2444 4184 
Q 1769 4184 1355 3729 
Q 941 3275 941 2528 
Q 941 1897 1250 1378 
Q 1563 859 2119 556 
L 2119 0 
L 244 0 
L 244 556 
L 1241 556 
Q 747 991 519 1456 
Q 294 1922 294 2497 
Q 294 3491 894 4106 
Q 1491 4722 2444 4722 
Q 3391 4722 3994 4106 
Q 4594 3494 4594 2528 
Q 4594 1922 4372 1459 
Q 4150 997 3647 556 
L 4647 556 
z
" transform="scale(0.015625)"/>
     </defs>
     <use xlink:href="#DejaVuSans-31" transform="translate(0 0.78125)"/>
     <use xlink:href="#DejaVuSans-30" transform="translate(63.623047 0.78125)"/>
     <use xlink:href="#DejaVuSans-30" transform="translate(127.246094 0.78125)"/>
     <use xlink:href="#DejaVuSans-3a9" transform="translate(190.869141 0.78125)"/>
    </g>
   </g>
   <g id="text_4">
    <!-- + -->
    <g transform="translate(247.068 54.663125) scale(0.14 -0.14)">
     <defs>
      <path id="DejaVuSans-2b" d="M 2944 4013 
L 2944 2272 
L 4684 2272 
L 4684 1741 
L 2944 1741 
L 2944 0 
L 2419 0 
L 2419 1741 
L 678 1741 
L 678 2272 
L 2419 2272 
L 2419 4013 
L 2944 4013 
z
" transform="scale(0.015625)"/>
     </defs>
     <use xlink:href="#DejaVuSans-2b"/>
    </g>
   </g>
   <g id="text_5">
    <!-- $v_o$ -->
    <g transform="translate(247.068 81.663125) scale(0.14 -0.14)">
     <defs>
      <path id="DejaVuSans-Oblique-76" d="M 459 3500 
L 1069 3500 
L 1581 525 
L 3256 3500 
L 3866 3500 
L 1875 0 
L 1100 0 
L 459 3500 
z
" transform="scale(0.015625)"/>
      <path id="DejaVuSans-Oblique-6f" d="M 1625 -91 
Q 1009 -91 651 289 
Q 294 669 294 1325 
Q 294 1706 417 2101 
Q 541 2497 738 2766 
Q 1047 3184 1428 3384 
Q 1809 3584 2291 3584 
Q 2888 3584 3255 3212 
Q 3622 2841 3622 2241 
Q 3622 1825 3500 1412 
Q 3378 1000 3181 728 
Q 2875 309 2494 109 
Q 2113 -91 1625 -91 
z
M 891 1344 
Q 891 869 1089 633 
Q 1288 397 1691 397 
Q 2269 397 2648 901 
Q 3028 1406 3028 2181 
Q 3028 2634 2825 2865 
Q 2622 3097 2228 3097 
Q 1903 3097 1650 2945 
Q 1397 2794 1197 2484 
Q 1050 2253 970 1956 
Q 891 1659 891 1344 
z
" transform="scale(0.015625)"/>
     </defs>
     <use xlink:href="#DejaVuSans-Oblique-76" transform="translate(0 0.3125)"/>
     <use xlink:href="#DejaVuSans-Oblique-6f" transform="translate(59.179688 -16.09375) scale(0.7)"/>
    </g>
   </g>
   <g id="text_6">
    <!-- - -->
    <g transform="translate(247.068 108.663125) scale(0.14 -0.14)">
     <defs>
      <path id="DejaVuSans-2d" d="M 313 2009 
L 1997 2009 
L 1997 1497 
L 313 1497 
L 313 2009 
z
" transform="scale(0.015625)"/>
     </defs>
     <use xlink:href="#DejaVuSans-2d"/>
    </g>
   </g>
   <g id="patch_8">
    <path d="M 139.068 134.5 
C 139.784048 134.5 140.470866 134.215511 140.977188 133.709188 
C 141.483511 133.202866 141.768 132.516048 141.768 131.8 
C 141.768 131.083952 141.483511 130.397134 140.977188 129.890812 
C 140.470866 129.384489 139.784048 129.1 139.068 129.1 
C 138.351952 129.1 137.665134 129.384489 137.158812 129.890812 
C 136.652489 130.397134 136.368 131.083952 136.368 131.8 
C 136.368 132.516048 136.652489 133.202866 137.158812 133.709188 
C 137.665134 134.215511 138.351952 134.5 139.068 134.5 
z
" clip-path="url(#p503822deda)" style="stroke: #000000; stroke-width: 2; stroke-linejoin: miter"/>
   </g>
   <g id="text_7">
    <!-- 1$\mu$F -->
    <g transform="translate(100.568 96.664687) scale(0.14 -0.14)">
     <defs>
      <path id="DejaVuSans-Oblique-3bc" d="M -84 -1331 
L 856 3500 
L 1434 3500 
L 1009 1322 
Q 997 1256 987 1175 
Q 978 1094 978 1013 
Q 978 722 1161 565 
Q 1344 409 1684 409 
Q 2147 409 2431 671 
Q 2716 934 2816 1459 
L 3213 3500 
L 3788 3500 
L 3266 809 
Q 3253 750 3248 706 
Q 3244 663 3244 628 
Q 3244 531 3283 486 
Q 3322 441 3406 441 
Q 3438 441 3492 456 
Q 3547 472 3647 513 
L 3559 50 
Q 3422 -19 3297 -55 
Q 3172 -91 3053 -91 
Q 2847 -91 2730 40 
Q 2613 172 2613 403 
Q 2438 153 2195 31 
Q 1953 -91 1625 -91 
Q 1334 -91 1117 43 
Q 900 178 831 397 
L 494 -1331 
L -84 -1331 
z
" transform="scale(0.015625)"/>
      <path id="DejaVuSans-46" d="M 628 4666 
L 3309 4666 
L 3309 4134 
L 1259 4134 
L 1259 2759 
L 3109 2759 
L 3109 2228 
L 1259 2228 
L 1259 0 
L 628 0 
L 628 4666 
z
" transform="scale(0.015625)"/>
     </defs>
     <use xlink:href="#DejaVuSans-31" transform="translate(0 0.09375)"/>
     <use xlink:href="#DejaVuSans-Oblique-3bc" transform="translate(63.623047 0.09375)"/>
     <use xlink:href="#DejaVuSans-46" transform="translate(127.246094 0.09375)"/>
    </g>
   </g>
  </g>
 </g>
 <defs>
  <clipPath id="p503822deda">
   <rect x="0" y="0" width="269.976" height="139.18"/>
  </clipPath>
 </defs>
</svg>