<?xml version="1.0" encoding="utf-8" standalone="no"?>
<!DOCTYPE svg PUBLIC "-//W3C//DTD SVG 1.1//EN"
  "http://www.w3.org/Graphics/SVG/1.1/DTD/svg11.dtd">
<svg xmlns:xlink="http://www.w3.org/1999/xlink" width="447.336pt" height="215.86pt" viewBox="0 0 447.336 215.86" xmlns="http://www.w3.org/2000/svg" version="1.1">
 <metadata>
  <rdf:RDF xmlns:dc="http://purl.org/dc/elements/1.1/" xmlns:cc="http://creativecommons.org/ns#" xmlns:rdf="http://www.w3.org/1999/02/22-rdf-syntax-ns#">
   <cc:Work>
    <dc:type rdf:resource="http://purl.org/dc/dcmitype/StillImage"/>
    <dc:date>2024-08-02T20:36:36.203164</dc:date>
    <dc:format>image/svg+xml</dc:format>
    <dc:creator>
     <cc:Agent>
      <dc:title>Matplotlib v3.9.1, https://matplotlib.org/</dc:title>
     </cc:Agent>
    </dc:creator>
   </cc:Work>
  </rdf:RDF>
 </metadata>
 <defs>
  <style type="text/css">*{stroke-linejoin: round; stroke-linecap: butt}</style>
 </defs>
 <g id="figure_1">
  <g id="patch_1">
   <path d="M 0 215.86 
L 447.336 215.86 
L 447.336 0 
L 0 0 
z
" style="fill: #ffffff"/>
  </g>
  <g id="axes_1">
   <g id="patch_2">
    <path d="M 43.668 136.48 
C 48.441656 136.48 53.020438 134.583406 56.395922 131.207922 
C 59.771406 127.832438 61.668 123.253656 61.668 118.48 
C 61.668 113.706344 59.771406 109.127562 56.395922 105.752078 
C 53.020438 102.376594 48.441656 100.48 43.668 100.48 
C 38.894344 100.48 34.315562 102.376594 30.940078 105.752078 
C 27.564594 109.127562 25.668 113.706344 25.668 118.48 
C 25.668 123.253656 27.564594 127.832438 30.940078 131.207922 
C 34.315562 134.583406 38.894344 136.48 43.668 136.48 
L 43.668 136.48 
z
" clip-path="url(#pe0abdfb673)" style="fill: none; stroke: #000000; stroke-width: 2; stroke-linejoin: miter"/>
   </g>
   <g id="patch_3">
    <path d="M 403.668 136.48 
C 408.441656 136.48 413.020438 134.583406 416.395922 131.207922 
C 419.771406 127.832438 421.668 123.253656 421.668 118.48 
C 421.668 113.706344 419.771406 109.127562 416.395922 105.752078 
C 413.020438 102.376594 408.441656 100.48 403.668 100.48 
C 398.894344 100.48 394.315562 102.376594 390.940078 105.752078 
C 387.564594 109.127562 385.668 113.706344 385.668 118.48 
C 385.668 123.253656 387.564594 127.832438 390.940078 131.207922 
C 394.315562 134.583406 398.894344 136.48 403.668 136.48 
L 403.668 136.48 
z
" clip-path="url(#pe0abdfb673)" style="fill: none; stroke: #000000; stroke-width: 2; stroke-linejoin: miter"/>
   </g>
   <g id="patch_4">
    <path d="M 165.831574 103.609757 
C 164.168759 99.684155 162.011873 96.139441 159.448545 93.119624 
C 156.885216 90.099806 153.950633 87.646341 150.764016 85.858902 
C 147.577399 84.071463 144.182494 82.974589 140.717223 82.612841 
C 137.251952 82.251093 133.763886 82.629438 130.394731 83.732504 
C 127.025576 84.835571 123.821584 86.648216 120.912921 89.096799 
C 118.004258 91.545383 115.430853 94.596291 113.297254 98.125576 
C 111.163656 101.654861 109.499153 105.614074 108.371369 109.842368 
C 107.243584 114.070662 106.668 118.50999 106.668 122.98 
C 106.668 127.45001 107.243584 131.889338 108.371369 136.117632 
C 109.499153 140.345926 111.163656 144.305139 113.297254 147.834424 
C 115.430853 151.363709 118.004258 154.414617 120.912921 156.863201 
C 123.821584 159.311784 127.025576 161.124429 130.394731 162.227496 
C 133.763886 163.330562 137.251952 163.708907 140.717223 163.347159 
C 144.182494 162.985411 147.577399 161.888537 150.764016 160.101098 
C 153.950633 158.313659 156.885216 155.860194 159.448545 152.840376 
C 162.011873 149.820559 164.168759 146.275845 165.831574 142.350243 
" clip-path="url(#pe0abdfb673)" style="fill: none; stroke: #000000; stroke-width: 2; stroke-linejoin: miter"/>
   </g>
   <g id="patch_5">
    <path d="M 170.308253 111.82979 
L 163.632591 105.217261 
L 165.987946 103.934521 
L 165.815766 103.618366 
L 165.847382 103.601148 
L 166.019562 103.917303 
L 168.374918 102.634562 
z
" clip-path="url(#pe0abdfb673)" style="stroke: #000000; stroke-linejoin: miter"/>
   </g>
   <g id="patch_6">
    <path d="M 336.831574 103.609757 
C 335.168759 99.684155 333.011873 96.139441 330.448545 93.119624 
C 327.885216 90.099806 324.950633 87.646341 321.764016 85.858902 
C 318.577399 84.071463 315.182494 82.974589 311.717223 82.612841 
C 308.251952 82.251093 304.763886 82.629438 301.394731 83.732504 
C 298.025576 84.835571 294.821584 86.648216 291.912921 89.096799 
C 289.004258 91.545383 286.430853 94.596291 284.297254 98.125576 
C 282.163656 101.654861 280.499153 105.614074 279.371369 109.842368 
C 278.243584 114.070662 277.668 118.50999 277.668 122.98 
C 277.668 127.45001 278.243584 131.889338 279.371369 136.117632 
C 280.499153 140.345926 282.163656 144.305139 284.297254 147.834424 
C 286.430853 151.363709 289.004258 154.414617 291.912921 156.863201 
C 294.821584 159.311784 298.025576 161.124429 301.394731 162.227496 
C 304.763886 163.330562 308.251952 163.708907 311.717223 163.347159 
C 315.182494 162.985411 318.577399 161.888537 321.764016 160.101098 
C 324.950633 158.313659 327.885216 155.860194 330.448545 152.840376 
C 333.011873 149.820559 335.168759 146.275845 336.831574 142.350243 
" clip-path="url(#pe0abdfb673)" style="fill: none; stroke: #000000; stroke-width: 2; stroke-linejoin: miter"/>
   </g>
   <g id="patch_7">
    <path d="M 341.308253 111.82979 
L 334.632591 105.217261 
L 336.987946 103.934521 
L 336.815766 103.618366 
L 336.847382 103.601148 
L 337.019562 103.917303 
L 339.374918 102.634562 
z
" clip-path="url(#pe0abdfb673)" style="stroke: #000000; stroke-linejoin: miter"/>
   </g>
   <g id="line2d_1">
    <path d="M 43.668 208.48 
L 43.668 136.48 
L 43.668 136.48 
M 43.668 100.48 
L 43.668 100.48 
L 43.668 28.48 
" clip-path="url(#pe0abdfb673)" style="fill: none; stroke: #000000; stroke-width: 2; stroke-linecap: round"/>
   </g>
   <g id="line2d_2">
    <path d="M 47.268 127.48 
L 40.068 127.48 
" clip-path="url(#pe0abdfb673)" style="fill: none; stroke: #000000; stroke-width: 2; stroke-linecap: round"/>
   </g>
   <g id="line2d_3">
    <path d="M 43.668 113.08 
L 43.668 105.88 
" clip-path="url(#pe0abdfb673)" style="fill: none; stroke: #000000; stroke-width: 2; stroke-linecap: round"/>
   </g>
   <g id="line2d_4">
    <path d="M 47.268 109.48 
L 40.068 109.48 
" clip-path="url(#pe0abdfb673)" style="fill: none; stroke: #000000; stroke-width: 2; stroke-linecap: round"/>
   </g>
   <g id="line2d_5">
    <path d="M 43.668 28.48 
L 115.668 28.48 
L 118.668 19.48 
L 124.668 37.48 
L 130.668 19.48 
L 136.668 37.48 
L 142.668 19.48 
L 148.668 37.48 
L 151.668 28.48 
L 223.668 28.48 
" clip-path="url(#pe0abdfb673)" style="fill: none; stroke: #000000; stroke-width: 2; stroke-linecap: round"/>
   </g>
   <g id="line2d_6">
    <path d="M 223.668 28.48 
L 223.668 100.48 
L 232.668 103.48 
L 214.668 109.48 
L 232.668 115.48 
L 214.668 121.48 
L 232.668 127.48 
L 214.668 133.48 
L 223.668 136.48 
L 223.668 208.48 
" clip-path="url(#pe0abdfb673)" style="fill: none; stroke: #000000; stroke-width: 2; stroke-linecap: round"/>
   </g>
   <g id="line2d_7">
    <path d="M 223.668 28.48 
L 313.668 28.48 
L 403.668 28.48 
" clip-path="url(#pe0abdfb673)" style="fill: none; stroke: #000000; stroke-width: 2; stroke-linecap: round"/>
   </g>
   <g id="line2d_8">
    <path d="M 403.668 28.48 
L 403.668 100.48 
L 403.668 100.48 
M 403.668 136.48 
L 403.668 136.48 
L 403.668 208.48 
" clip-path="url(#pe0abdfb673)" style="fill: none; stroke: #000000; stroke-width: 2; stroke-linecap: round"/>
   </g>
   <g id="line2d_9">
    <path d="M 403.668 109.48 
L 403.668 118.48 
" clip-path="url(#pe0abdfb673)" style="fill: none; stroke: #000000; stroke-width: 2; stroke-linecap: round"/>
   </g>
   <g id="patch_8">
    <path d="M 406.368 118.48 
L 403.668 127.48 
L 400.968 118.48 
z
" clip-path="url(#pe0abdfb673)"/>
   </g>
   <g id="line2d_10">
    <path d="M 403.668 208.48 
L 223.668 208.48 
L 43.668 208.48 
" clip-path="url(#pe0abdfb673)" style="fill: none; stroke: #000000; stroke-width: 2; stroke-linecap: round"/>
   </g>
   <g id="text_1">
    <!-- 2V -->
    <g transform="translate(3.583625 122.343125) scale(0.14 -0.14)">
     <defs>
      <path id="DejaVuSans-32" d="M 1228 531 
L 3431 531 
L 3431 0 
L 469 0 
L 469 531 
Q 828 903 1448 1529 
Q 2069 2156 2228 2338 
Q 2531 2678 2651 2914 
Q 2772 3150 2772 3378 
Q 2772 3750 2511 3984 
Q 2250 4219 1831 4219 
Q 1534 4219 1204 4116 
Q 875 4013 500 3803 
L 500 4441 
Q 881 4594 1212 4672 
Q 1544 4750 1819 4750 
Q 2544 4750 2975 4387 
Q 3406 4025 3406 3419 
Q 3406 3131 3298 2873 
Q 3191 2616 2906 2266 
Q 2828 2175 2409 1742 
Q 1991 1309 1228 531 
z
" transform="scale(0.015625)"/>
      <path id="DejaVuSans-56" d="M 1831 0 
L 50 4666 
L 709 4666 
L 2188 738 
L 3669 4666 
L 4325 4666 
L 2547 0 
L 1831 0 
z
" transform="scale(0.015625)"/>
     </defs>
     <use xlink:href="#DejaVuSans-32"/>
     <use xlink:href="#DejaVuSans-56" x="63.623047"/>
    </g>
   </g>
   <g id="text_2">
    <!-- 4Ω -->
    <g transform="translate(123.864719 12.968437) scale(0.14 -0.14)">
     <defs>
      <path id="DejaVuSans-34" d="M 2419 4116 
L 825 1625 
L 2419 1625 
L 2419 4116 
z
M 2253 4666 
L 3047 4666 
L 3047 1625 
L 3713 1625 
L 3713 1100 
L 3047 1100 
L 3047 0 
L 2419 0 
L 2419 1100 
L 313 1100 
L 313 1709 
L 2253 4666 
z
" transform="scale(0.015625)"/>
      <path id="DejaVuSans-3a9" d="M 4647 556 
L 4647 0 
L 2772 0 
L 2772 556 
Q 3325 859 3634 1378 
Q 3944 1897 3944 2528 
Q 3944 3278 3531 3731 
Q 3119 4184 2444 4184 
Q 1769 4184 1355 3729 
Q 941 3275 941 2528 
Q 941 1897 1250 1378 
Q 1563 859 2119 556 
L 2119 0 
L 244 0 
L 244 556 
L 1241 556 
Q 747 991 519 1456 
Q 294 1922 294 2497 
Q 294 3491 894 4106 
Q 1491 4722 2444 4722 
Q 3391 4722 3994 4106 
Q 4594 3494 4594 2528 
Q 4594 1922 4372 1459 
Q 4150 997 3647 556 
L 4647 556 
z
" transform="scale(0.015625)"/>
     </defs>
     <use xlink:href="#DejaVuSans-34"/>
     <use xlink:href="#DejaVuSans-3a9" x="63.623047"/>
    </g>
   </g>
   <g id="text_3">
    <!-- 1Ω -->
    <g transform="translate(239.179563 108.676719) rotate(-270) scale(0.14 -0.14)">
     <defs>
      <path id="DejaVuSans-31" d="M 794 531 
L 1825 531 
L 1825 4091 
L 703 3866 
L 703 4441 
L 1819 4666 
L 2450 4666 
L 2450 531 
L 3481 531 
L 3481 0 
L 794 0 
L 794 531 
z
" transform="scale(0.015625)"/>
     </defs>
     <use xlink:href="#DejaVuSans-31"/>
     <use xlink:href="#DejaVuSans-3a9" x="63.623047"/>
    </g>
   </g>
   <g id="text_4">
    <!-- 1A -->
    <g transform="translate(425.268 122.343125) scale(0.14 -0.14)">
     <defs>
      <path id="DejaVuSans-41" d="M 2188 4044 
L 1331 1722 
L 3047 1722 
L 2188 4044 
z
M 1831 4666 
L 2547 4666 
L 4325 0 
L 3669 0 
L 3244 1197 
L 1141 1197 
L 716 0 
L 50 0 
L 1831 4666 
z
" transform="scale(0.015625)"/>
     </defs>
     <use xlink:href="#DejaVuSans-31"/>
     <use xlink:href="#DejaVuSans-41" x="63.623047"/>
    </g>
   </g>
   <g id="text_5">
    <!-- $I_1$ -->
    <g transform="translate(132.778 126.843125) scale(0.14 -0.14)">
     <defs>
      <path id="DejaVuSans-Oblique-49" d="M 1081 4666 
L 1716 4666 
L 806 0 
L 172 0 
L 1081 4666 
z
" transform="scale(0.015625)"/>
     </defs>
     <use xlink:href="#DejaVuSans-Oblique-49" transform="translate(0 0.09375)"/>
     <use xlink:href="#DejaVuSans-31" transform="translate(29.492188 -16.3125) scale(0.7)"/>
    </g>
   </g>
   <g id="text_6">
    <!-- $I_2$ -->
    <g transform="translate(303.778 126.843125) scale(0.14 -0.14)">
     <use xlink:href="#DejaVuSans-Oblique-49" transform="translate(0 0.09375)"/>
     <use xlink:href="#DejaVuSans-32" transform="translate(29.492188 -16.3125) scale(0.7)"/>
    </g>
   </g>
   <g id="patch_9">
    <path d="M 223.668 31.18 
C 224.384048 31.18 225.070866 30.895511 225.577188 30.389188 
C 226.083511 29.882866 226.368 29.196048 226.368 28.48 
C 226.368 27.763952 226.083511 27.077134 225.577188 26.570812 
C 225.070866 26.064489 224.384048 25.78 223.668 25.78 
C 222.951952 25.78 222.265134 26.064489 221.758812 26.570812 
C 221.252489 27.077134 220.968 27.763952 220.968 28.48 
C 220.968 29.196048 221.252489 29.882866 221.758812 30.389188 
C 222.265134 30.895511 222.951952 31.18 223.668 31.18 
z
" clip-path="url(#pe0abdfb673)" style="stroke: #000000; stroke-width: 2; stroke-linejoin: miter"/>
   </g>
   <g id="patch_10">
    <path d="M 223.668 211.18 
C 224.384048 211.18 225.070866 210.895511 225.577188 210.389188 
C 226.083511 209.882866 226.368 209.196048 226.368 208.48 
C 226.368 207.763952 226.083511 207.077134 225.577188 206.570812 
C 225.070866 206.064489 224.384048 205.78 223.668 205.78 
C 222.951952 205.78 222.265134 206.064489 221.758812 206.570812 
C 221.252489 207.077134 220.968 207.763952 220.968 208.48 
C 220.968 209.196048 221.252489 209.882866 221.758812 210.389188 
C 222.265134 210.895511 222.951952 211.18 223.668 211.18 
z
" clip-path="url(#pe0abdfb673)" style="stroke: #000000; stroke-width: 2; stroke-linejoin: miter"/>
   </g>
  </g>
 </g>
 <defs>
  <clipPath id="pe0abdfb673">
   <rect x="0" y="0" width="447.336" height="215.86"/>
  </clipPath>
 </defs>
</svg>