<?xml version="1.0" encoding="utf-8" standalone="no"?>
<!DOCTYPE svg PUBLIC "-//W3C//DTD SVG 1.1//EN"
  "http://www.w3.org/Graphics/SVG/1.1/DTD/svg11.dtd">
<svg xmlns:xlink="http://www.w3.org/1999/xlink" width="371.463426pt" height="230.66pt" viewBox="0 0 371.463426 230.66" xmlns="http://www.w3.org/2000/svg" version="1.1">
 <metadata>
  <rdf:RDF xmlns:dc="http://purl.org/dc/elements/1.1/" xmlns:cc="http://creativecommons.org/ns#" xmlns:rdf="http://www.w3.org/1999/02/22-rdf-syntax-ns#">
   <cc:Work>
    <dc:type rdf:resource="http://purl.org/dc/dcmitype/StillImage"/>
    <dc:date>2024-08-04T10:47:18.958612</dc:date>
    <dc:format>image/svg+xml</dc:format>
    <dc:creator>
     <cc:Agent>
      <dc:title>Matplotlib v3.9.1, https://matplotlib.org/</dc:title>
     </cc:Agent>
    </dc:creator>
   </cc:Work>
  </rdf:RDF>
 </metadata>
 <defs>
  <style type="text/css">*{stroke-linejoin: round; stroke-linecap: butt}</style>
 </defs>
 <g id="figure_1">
  <g id="patch_1">
   <path d="M 0 230.66 
L 371.463426 230.66 
L 371.463426 0 
L 0 0 
z
" style="fill: #ffffff"/>
  </g>
  <g id="axes_1">
   <g id="patch_2">
    <path d="M 181.893437 136.48 
C 186.667093 136.48 191.245875 134.583406 194.62136 131.207922 
C 197.996844 127.832438 199.893437 123.253656 199.893437 118.48 
C 199.893437 113.706344 197.996844 109.127562 194.62136 105.752078 
C 191.245875 102.376594 186.667093 100.48 181.893437 100.48 
C 177.119782 100.48 172.541 102.376594 169.165515 105.752078 
C 165.790031 109.127562 163.893437 113.706344 163.893437 118.48 
C 163.893437 123.253656 165.790031 127.832438 169.165515 131.207922 
C 172.541 134.583406 177.119782 136.48 181.893437 136.48 
L 181.893437 136.48 
z
" clip-path="url(#p41edb117f3)" style="fill: none; stroke: #000000; stroke-width: 2; stroke-linejoin: miter"/>
   </g>
   <g id="patch_3">
    <path d="M 361.893437 109.48 
C 363.086454 109.48 364.231828 109.005571 365.075418 108.161981 
C 365.919008 107.31839 366.393437 106.173016 366.393437 104.98 
C 366.393437 103.786984 365.919008 102.64161 365.075418 101.798019 
C 364.231828 100.954429 363.086454 100.48 361.893437 100.48 
" clip-path="url(#p41edb117f3)" style="fill: none; stroke: #000000; stroke-width: 2; stroke-linejoin: miter"/>
   </g>
   <g id="patch_4">
    <path d="M 361.893437 118.48 
C 363.086454 118.48 364.231828 118.005571 365.075418 117.161981 
C 365.919008 116.31839 366.393437 115.173016 366.393437 113.98 
C 366.393437 112.786984 365.919008 111.64161 365.075418 110.798019 
C 364.231828 109.954429 363.086454 109.48 361.893437 109.48 
" clip-path="url(#p41edb117f3)" style="fill: none; stroke: #000000; stroke-width: 2; stroke-linejoin: miter"/>
   </g>
   <g id="patch_5">
    <path d="M 361.893437 127.48 
C 363.086454 127.48 364.231828 127.005571 365.075418 126.161981 
C 365.919008 125.31839 366.393437 124.173016 366.393437 122.98 
C 366.393437 121.786984 365.919008 120.64161 365.075418 119.798019 
C 364.231828 118.954429 363.086454 118.48 361.893437 118.48 
" clip-path="url(#p41edb117f3)" style="fill: none; stroke: #000000; stroke-width: 2; stroke-linejoin: miter"/>
   </g>
   <g id="patch_6">
    <path d="M 361.893437 136.48 
C 363.086454 136.48 364.231828 136.005571 365.075418 135.161981 
C 365.919008 134.31839 366.393437 133.173016 366.393437 131.98 
C 366.393437 130.786984 365.919008 129.64161 365.075418 128.798019 
C 364.231828 127.954429 363.086454 127.48 361.893437 127.48 
" clip-path="url(#p41edb117f3)" style="fill: none; stroke: #000000; stroke-width: 2; stroke-linejoin: miter"/>
   </g>
   <g id="line2d_1">
    <path d="M 181.893437 208.48 
L 181.893437 136.48 
L 181.893437 136.48 
M 181.893437 100.48 
L 181.893437 100.48 
L 181.893437 28.48 
" clip-path="url(#p41edb117f3)" style="fill: none; stroke: #000000; stroke-width: 2; stroke-linecap: round"/>
   </g>
   <g id="line2d_2">
    <path d="M 185.493437 127.48 
L 178.293437 127.48 
" clip-path="url(#p41edb117f3)" style="fill: none; stroke: #000000; stroke-width: 2; stroke-linecap: round"/>
   </g>
   <g id="line2d_3">
    <path d="M 181.893437 113.08 
L 181.893437 105.88 
" clip-path="url(#p41edb117f3)" style="fill: none; stroke: #000000; stroke-width: 2; stroke-linecap: round"/>
   </g>
   <g id="line2d_4">
    <path d="M 185.493437 109.48 
L 178.293437 109.48 
" clip-path="url(#p41edb117f3)" style="fill: none; stroke: #000000; stroke-width: 2; stroke-linecap: round"/>
   </g>
   <g id="line2d_5">
    <path d="M 181.893437 28.48 
L 253.893437 28.48 
L 256.893438 19.48 
L 262.893438 37.48 
L 268.893438 19.48 
L 274.893437 37.48 
L 280.893438 19.48 
L 286.893437 37.48 
L 289.893438 28.48 
L 361.893437 28.48 
" clip-path="url(#p41edb117f3)" style="fill: none; stroke: #000000; stroke-width: 2; stroke-linecap: round"/>
   </g>
   <g id="line2d_6">
    <path d="M 361.893437 28.48 
L 361.893437 100.48 
M 361.893437 136.48 
L 361.893437 208.48 
" clip-path="url(#p41edb117f3)" style="fill: none; stroke: #000000; stroke-width: 2; stroke-linecap: round"/>
   </g>
   <g id="line2d_7">
    <path d="M 361.893437 208.48 
L 271.893437 208.48 
L 181.893437 208.48 
" clip-path="url(#p41edb117f3)" style="fill: none; stroke: #000000; stroke-width: 2; stroke-linecap: round"/>
   </g>
   <g id="patch_7">
    <path d="M 181.893437 211.18 
C 182.609486 211.18 183.296303 210.895511 183.802626 210.389188 
C 184.308948 209.882866 184.593437 209.196048 184.593437 208.48 
C 184.593437 207.763952 184.308948 207.077134 183.802626 206.570812 
C 183.296303 206.064489 182.609486 205.78 181.893437 205.78 
C 181.177389 205.78 180.490572 206.064489 179.984249 206.570812 
C 179.477927 207.077134 179.193437 207.763952 179.193437 208.48 
C 179.193437 209.196048 179.477927 209.882866 179.984249 210.389188 
C 180.490572 210.895511 181.177389 211.18 181.893437 211.18 
z
" clip-path="url(#p41edb117f3)" style="stroke: #000000; stroke-width: 2; stroke-linejoin: miter"/>
   </g>
   <g id="text_1">
    <!-- V1=exp(-3t)cos(5t)u(t) -->
    <g transform="translate(-0 123.693125) scale(0.14 -0.14)">
     <defs>
      <path id="DejaVuSans-56" d="M 1831 0 
L 50 4666 
L 709 4666 
L 2188 738 
L 3669 4666 
L 4325 4666 
L 2547 0 
L 1831 0 
z
" transform="scale(0.015625)"/>
      <path id="DejaVuSans-31" d="M 794 531 
L 1825 531 
L 1825 4091 
L 703 3866 
L 703 4441 
L 1819 4666 
L 2450 4666 
L 2450 531 
L 3481 531 
L 3481 0 
L 794 0 
L 794 531 
z
" transform="scale(0.015625)"/>
      <path id="DejaVuSans-3d" d="M 678 2906 
L 4684 2906 
L 4684 2381 
L 678 2381 
L 678 2906 
z
M 678 1631 
L 4684 1631 
L 4684 1100 
L 678 1100 
L 678 1631 
z
" transform="scale(0.015625)"/>
      <path id="DejaVuSans-65" d="M 3597 1894 
L 3597 1613 
L 953 1613 
Q 991 1019 1311 708 
Q 1631 397 2203 397 
Q 2534 397 2845 478 
Q 3156 559 3463 722 
L 3463 178 
Q 3153 47 2828 -22 
Q 2503 -91 2169 -91 
Q 1331 -91 842 396 
Q 353 884 353 1716 
Q 353 2575 817 3079 
Q 1281 3584 2069 3584 
Q 2775 3584 3186 3129 
Q 3597 2675 3597 1894 
z
M 3022 2063 
Q 3016 2534 2758 2815 
Q 2500 3097 2075 3097 
Q 1594 3097 1305 2825 
Q 1016 2553 972 2059 
L 3022 2063 
z
" transform="scale(0.015625)"/>
      <path id="DejaVuSans-78" d="M 3513 3500 
L 2247 1797 
L 3578 0 
L 2900 0 
L 1881 1375 
L 863 0 
L 184 0 
L 1544 1831 
L 300 3500 
L 978 3500 
L 1906 2253 
L 2834 3500 
L 3513 3500 
z
" transform="scale(0.015625)"/>
      <path id="DejaVuSans-70" d="M 1159 525 
L 1159 -1331 
L 581 -1331 
L 581 3500 
L 1159 3500 
L 1159 2969 
Q 1341 3281 1617 3432 
Q 1894 3584 2278 3584 
Q 2916 3584 3314 3078 
Q 3713 2572 3713 1747 
Q 3713 922 3314 415 
Q 2916 -91 2278 -91 
Q 1894 -91 1617 61 
Q 1341 213 1159 525 
z
M 3116 1747 
Q 3116 2381 2855 2742 
Q 2594 3103 2138 3103 
Q 1681 3103 1420 2742 
Q 1159 2381 1159 1747 
Q 1159 1113 1420 752 
Q 1681 391 2138 391 
Q 2594 391 2855 752 
Q 3116 1113 3116 1747 
z
" transform="scale(0.015625)"/>
      <path id="DejaVuSans-28" d="M 1984 4856 
Q 1566 4138 1362 3434 
Q 1159 2731 1159 2009 
Q 1159 1288 1364 580 
Q 1569 -128 1984 -844 
L 1484 -844 
Q 1016 -109 783 600 
Q 550 1309 550 2009 
Q 550 2706 781 3412 
Q 1013 4119 1484 4856 
L 1984 4856 
z
" transform="scale(0.015625)"/>
      <path id="DejaVuSans-2d" d="M 313 2009 
L 1997 2009 
L 1997 1497 
L 313 1497 
L 313 2009 
z
" transform="scale(0.015625)"/>
      <path id="DejaVuSans-33" d="M 2597 2516 
Q 3050 2419 3304 2112 
Q 3559 1806 3559 1356 
Q 3559 666 3084 287 
Q 2609 -91 1734 -91 
Q 1441 -91 1130 -33 
Q 819 25 488 141 
L 488 750 
Q 750 597 1062 519 
Q 1375 441 1716 441 
Q 2309 441 2620 675 
Q 2931 909 2931 1356 
Q 2931 1769 2642 2001 
Q 2353 2234 1838 2234 
L 1294 2234 
L 1294 2753 
L 1863 2753 
Q 2328 2753 2575 2939 
Q 2822 3125 2822 3475 
Q 2822 3834 2567 4026 
Q 2313 4219 1838 4219 
Q 1578 4219 1281 4162 
Q 984 4106 628 3988 
L 628 4550 
Q 988 4650 1302 4700 
Q 1616 4750 1894 4750 
Q 2613 4750 3031 4423 
Q 3450 4097 3450 3541 
Q 3450 3153 3228 2886 
Q 3006 2619 2597 2516 
z
" transform="scale(0.015625)"/>
      <path id="DejaVuSans-74" d="M 1172 4494 
L 1172 3500 
L 2356 3500 
L 2356 3053 
L 1172 3053 
L 1172 1153 
Q 1172 725 1289 603 
Q 1406 481 1766 481 
L 2356 481 
L 2356 0 
L 1766 0 
Q 1100 0 847 248 
Q 594 497 594 1153 
L 594 3053 
L 172 3053 
L 172 3500 
L 594 3500 
L 594 4494 
L 1172 4494 
z
" transform="scale(0.015625)"/>
      <path id="DejaVuSans-29" d="M 513 4856 
L 1013 4856 
Q 1481 4119 1714 3412 
Q 1947 2706 1947 2009 
Q 1947 1309 1714 600 
Q 1481 -109 1013 -844 
L 513 -844 
Q 928 -128 1133 580 
Q 1338 1288 1338 2009 
Q 1338 2731 1133 3434 
Q 928 4138 513 4856 
z
" transform="scale(0.015625)"/>
      <path id="DejaVuSans-63" d="M 3122 3366 
L 3122 2828 
Q 2878 2963 2633 3030 
Q 2388 3097 2138 3097 
Q 1578 3097 1268 2742 
Q 959 2388 959 1747 
Q 959 1106 1268 751 
Q 1578 397 2138 397 
Q 2388 397 2633 464 
Q 2878 531 3122 666 
L 3122 134 
Q 2881 22 2623 -34 
Q 2366 -91 2075 -91 
Q 1284 -91 818 406 
Q 353 903 353 1747 
Q 353 2603 823 3093 
Q 1294 3584 2113 3584 
Q 2378 3584 2631 3529 
Q 2884 3475 3122 3366 
z
" transform="scale(0.015625)"/>
      <path id="DejaVuSans-6f" d="M 1959 3097 
Q 1497 3097 1228 2736 
Q 959 2375 959 1747 
Q 959 1119 1226 758 
Q 1494 397 1959 397 
Q 2419 397 2687 759 
Q 2956 1122 2956 1747 
Q 2956 2369 2687 2733 
Q 2419 3097 1959 3097 
z
M 1959 3584 
Q 2709 3584 3137 3096 
Q 3566 2609 3566 1747 
Q 3566 888 3137 398 
Q 2709 -91 1959 -91 
Q 1206 -91 779 398 
Q 353 888 353 1747 
Q 353 2609 779 3096 
Q 1206 3584 1959 3584 
z
" transform="scale(0.015625)"/>
      <path id="DejaVuSans-73" d="M 2834 3397 
L 2834 2853 
Q 2591 2978 2328 3040 
Q 2066 3103 1784 3103 
Q 1356 3103 1142 2972 
Q 928 2841 928 2578 
Q 928 2378 1081 2264 
Q 1234 2150 1697 2047 
L 1894 2003 
Q 2506 1872 2764 1633 
Q 3022 1394 3022 966 
Q 3022 478 2636 193 
Q 2250 -91 1575 -91 
Q 1294 -91 989 -36 
Q 684 19 347 128 
L 347 722 
Q 666 556 975 473 
Q 1284 391 1588 391 
Q 1994 391 2212 530 
Q 2431 669 2431 922 
Q 2431 1156 2273 1281 
Q 2116 1406 1581 1522 
L 1381 1569 
Q 847 1681 609 1914 
Q 372 2147 372 2553 
Q 372 3047 722 3315 
Q 1072 3584 1716 3584 
Q 2034 3584 2315 3537 
Q 2597 3491 2834 3397 
z
" transform="scale(0.015625)"/>
      <path id="DejaVuSans-35" d="M 691 4666 
L 3169 4666 
L 3169 4134 
L 1269 4134 
L 1269 2991 
Q 1406 3038 1543 3061 
Q 1681 3084 1819 3084 
Q 2600 3084 3056 2656 
Q 3513 2228 3513 1497 
Q 3513 744 3044 326 
Q 2575 -91 1722 -91 
Q 1428 -91 1123 -41 
Q 819 9 494 109 
L 494 744 
Q 775 591 1075 516 
Q 1375 441 1709 441 
Q 2250 441 2565 725 
Q 2881 1009 2881 1497 
Q 2881 1984 2565 2268 
Q 2250 2553 1709 2553 
Q 1456 2553 1204 2497 
Q 953 2441 691 2322 
L 691 4666 
z
" transform="scale(0.015625)"/>
      <path id="DejaVuSans-75" d="M 544 1381 
L 544 3500 
L 1119 3500 
L 1119 1403 
Q 1119 906 1312 657 
Q 1506 409 1894 409 
Q 2359 409 2629 706 
Q 2900 1003 2900 1516 
L 2900 3500 
L 3475 3500 
L 3475 0 
L 2900 0 
L 2900 538 
Q 2691 219 2414 64 
Q 2138 -91 1772 -91 
Q 1169 -91 856 284 
Q 544 659 544 1381 
z
M 1991 3584 
L 1991 3584 
z
" transform="scale(0.015625)"/>
     </defs>
     <use xlink:href="#DejaVuSans-56"/>
     <use xlink:href="#DejaVuSans-31" x="68.408203"/>
     <use xlink:href="#DejaVuSans-3d" x="132.03125"/>
     <use xlink:href="#DejaVuSans-65" x="215.820312"/>
     <use xlink:href="#DejaVuSans-78" x="275.59375"/>
     <use xlink:href="#DejaVuSans-70" x="334.773438"/>
     <use xlink:href="#DejaVuSans-28" x="398.25"/>
     <use xlink:href="#DejaVuSans-2d" x="437.263672"/>
     <use xlink:href="#DejaVuSans-33" x="473.347656"/>
     <use xlink:href="#DejaVuSans-74" x="536.970703"/>
     <use xlink:href="#DejaVuSans-29" x="576.179688"/>
     <use xlink:href="#DejaVuSans-63" x="615.193359"/>
     <use xlink:href="#DejaVuSans-6f" x="670.173828"/>
     <use xlink:href="#DejaVuSans-73" x="731.355469"/>
     <use xlink:href="#DejaVuSans-28" x="783.455078"/>
     <use xlink:href="#DejaVuSans-35" x="822.46875"/>
     <use xlink:href="#DejaVuSans-74" x="886.091797"/>
     <use xlink:href="#DejaVuSans-29" x="925.300781"/>
     <use xlink:href="#DejaVuSans-75" x="964.314453"/>
     <use xlink:href="#DejaVuSans-28" x="1027.693359"/>
     <use xlink:href="#DejaVuSans-74" x="1066.707031"/>
     <use xlink:href="#DejaVuSans-29" x="1105.916016"/>
    </g>
   </g>
   <g id="text_2">
    <!-- 5 -->
    <g transform="translate(177.439687 225.417812) scale(0.14 -0.14)">
     <use xlink:href="#DejaVuSans-35"/>
    </g>
   </g>
   <g id="patch_8">
    <path d="M 181.893437 31.18 
C 182.609486 31.18 183.296303 30.895511 183.802626 30.389188 
C 184.308948 29.882866 184.593437 29.196048 184.593437 28.48 
C 184.593437 27.763952 184.308948 27.077134 183.802626 26.570812 
C 183.296303 26.064489 182.609486 25.78 181.893437 25.78 
C 181.177389 25.78 180.490572 26.064489 179.984249 26.570812 
C 179.477927 27.077134 179.193437 27.763952 179.193437 28.48 
C 179.193437 29.196048 179.477927 29.882866 179.984249 30.389188 
C 180.490572 30.895511 181.177389 31.18 181.893437 31.18 
z
" clip-path="url(#p41edb117f3)" style="stroke: #000000; stroke-width: 2; stroke-linejoin: miter"/>
   </g>
   <g id="text_3">
    <!-- R1=1Ω -->
    <g transform="translate(245.556719 12.968437) scale(0.14 -0.14)">
     <defs>
      <path id="DejaVuSans-52" d="M 2841 2188 
Q 3044 2119 3236 1894 
Q 3428 1669 3622 1275 
L 4263 0 
L 3584 0 
L 2988 1197 
Q 2756 1666 2539 1819 
Q 2322 1972 1947 1972 
L 1259 1972 
L 1259 0 
L 628 0 
L 628 4666 
L 2053 4666 
Q 2853 4666 3247 4331 
Q 3641 3997 3641 3322 
Q 3641 2881 3436 2590 
Q 3231 2300 2841 2188 
z
M 1259 4147 
L 1259 2491 
L 2053 2491 
Q 2509 2491 2742 2702 
Q 2975 2913 2975 3322 
Q 2975 3731 2742 3939 
Q 2509 4147 2053 4147 
L 1259 4147 
z
" transform="scale(0.015625)"/>
      <path id="DejaVuSans-3a9" d="M 4647 556 
L 4647 0 
L 2772 0 
L 2772 556 
Q 3325 859 3634 1378 
Q 3944 1897 3944 2528 
Q 3944 3278 3531 3731 
Q 3119 4184 2444 4184 
Q 1769 4184 1355 3729 
Q 941 3275 941 2528 
Q 941 1897 1250 1378 
Q 1563 859 2119 556 
L 2119 0 
L 244 0 
L 244 556 
L 1241 556 
Q 747 991 519 1456 
Q 294 1922 294 2497 
Q 294 3491 894 4106 
Q 1491 4722 2444 4722 
Q 3391 4722 3994 4106 
Q 4594 3494 4594 2528 
Q 4594 1922 4372 1459 
Q 4150 997 3647 556 
L 4647 556 
z
" transform="scale(0.015625)"/>
     </defs>
     <use xlink:href="#DejaVuSans-52"/>
     <use xlink:href="#DejaVuSans-31" x="69.482422"/>
     <use xlink:href="#DejaVuSans-3d" x="133.105469"/>
     <use xlink:href="#DejaVuSans-31" x="216.894531"/>
     <use xlink:href="#DejaVuSans-3a9" x="280.517578"/>
    </g>
   </g>
   <g id="text_4">
    <!-- 1 -->
    <g transform="translate(166.685937 32.343125) scale(0.14 -0.14)">
     <use xlink:href="#DejaVuSans-31"/>
    </g>
   </g>
   <g id="patch_9">
    <path d="M 361.893437 31.18 
C 362.609486 31.18 363.296303 30.895511 363.802626 30.389188 
C 364.308948 29.882866 364.593437 29.196048 364.593437 28.48 
C 364.593437 27.763952 364.308948 27.077134 363.802626 26.570812 
C 363.296303 26.064489 362.609486 25.78 361.893437 25.78 
C 361.177389 25.78 360.490572 26.064489 359.984249 26.570812 
C 359.477927 27.077134 359.193437 27.763952 359.193437 28.48 
C 359.193437 29.196048 359.477927 29.882866 359.984249 30.389188 
C 360.490572 30.895511 361.177389 31.18 361.893437 31.18 
z
" clip-path="url(#p41edb117f3)" style="stroke: #000000; stroke-width: 2; stroke-linejoin: miter"/>
   </g>
   <g id="text_5">
    <!-- L1=1H -->
    <g transform="translate(307.717812 120.993125) scale(0.14 -0.14)">
     <defs>
      <path id="DejaVuSans-4c" d="M 628 4666 
L 1259 4666 
L 1259 531 
L 3531 531 
L 3531 0 
L 628 0 
L 628 4666 
z
" transform="scale(0.015625)"/>
      <path id="DejaVuSans-48" d="M 628 4666 
L 1259 4666 
L 1259 2753 
L 3553 2753 
L 3553 4666 
L 4184 4666 
L 4184 0 
L 3553 0 
L 3553 2222 
L 1259 2222 
L 1259 0 
L 628 0 
L 628 4666 
z
" transform="scale(0.015625)"/>
     </defs>
     <use xlink:href="#DejaVuSans-4c"/>
     <use xlink:href="#DejaVuSans-31" x="55.712891"/>
     <use xlink:href="#DejaVuSans-3d" x="119.335938"/>
     <use xlink:href="#DejaVuSans-31" x="203.125"/>
     <use xlink:href="#DejaVuSans-48" x="266.748047"/>
    </g>
   </g>
   <g id="text_6">
    <!-- 2 -->
    <g transform="translate(358.339676 19.268437) scale(0.14 -0.14)">
     <defs>
      <path id="DejaVuSans-32" d="M 1228 531 
L 3431 531 
L 3431 0 
L 469 0 
L 469 531 
Q 828 903 1448 1529 
Q 2069 2156 2228 2338 
Q 2531 2678 2651 2914 
Q 2772 3150 2772 3378 
Q 2772 3750 2511 3984 
Q 2250 4219 1831 4219 
Q 1534 4219 1204 4116 
Q 875 4013 500 3803 
L 500 4441 
Q 881 4594 1212 4672 
Q 1544 4750 1819 4750 
Q 2544 4750 2975 4387 
Q 3406 4025 3406 3419 
Q 3406 3131 3298 2873 
Q 3191 2616 2906 2266 
Q 2828 2175 2409 1742 
Q 1991 1309 1228 531 
z
" transform="scale(0.015625)"/>
     </defs>
     <use xlink:href="#DejaVuSans-32"/>
    </g>
   </g>
  </g>
 </g>
 <defs>
  <clipPath id="p41edb117f3">
   <rect x="13.065438" y="-0" width="358.397989" height="230.66"/>
  </clipPath>
 </defs>
</svg>