<?xml version="1.0" encoding="utf-8" standalone="no"?>
<!DOCTYPE svg PUBLIC "-//W3C//DTD SVG 1.1//EN"
  "http://www.w3.org/Graphics/SVG/1.1/DTD/svg11.dtd">
<svg xmlns:xlink="http://www.w3.org/1999/xlink" width="954.911532pt" height="381.587532pt" viewBox="0 0 954.911532 381.587532" xmlns="http://www.w3.org/2000/svg" version="1.1">
 <metadata>
  <rdf:RDF xmlns:dc="http://purl.org/dc/elements/1.1/" xmlns:cc="http://creativecommons.org/ns#" xmlns:rdf="http://www.w3.org/1999/02/22-rdf-syntax-ns#">
   <cc:Work>
    <dc:type rdf:resource="http://purl.org/dc/dcmitype/StillImage"/>
    <dc:date>2024-08-01T15:40:03.144323</dc:date>
    <dc:format>image/svg+xml</dc:format>
    <dc:creator>
     <cc:Agent>
      <dc:title>Matplotlib v3.9.1, https://matplotlib.org/</dc:title>
     </cc:Agent>
    </dc:creator>
   </cc:Work>
  </rdf:RDF>
 </metadata>
 <defs>
  <style type="text/css">*{stroke-linejoin: round; stroke-linecap: butt}</style>
 </defs>
 <g id="figure_1">
  <g id="patch_1">
   <path d="M 0 381.587532 
L 954.911532 381.587532 
L 954.911532 0 
L 0 0 
z
" style="fill: #ffffff"/>
  </g>
  <g id="axes_1">
   <g id="patch_2">
    <path d="M 135.4435 43.654578 
L 150.717007 41.108993 
L 148.171422 56.3825 
L 135.4435 43.654578 
z
" clip-path="url(#p5545959c1b)" style="fill: none; stroke: #000000; stroke-width: 2; stroke-linecap: round"/>
   </g>
   <g id="patch_3">
    <path d="M 224.538954 34.745032 
L 227.084539 50.018539 
L 211.811032 47.472954 
L 224.538954 34.745032 
z
" clip-path="url(#p5545959c1b)" style="fill: none; stroke: #000000; stroke-width: 2; stroke-linecap: round"/>
   </g>
   <g id="patch_4">
    <path d="M 211.811032 120.02211 
L 227.084539 117.476526 
L 224.538954 132.750032 
L 211.811032 120.02211 
z
" clip-path="url(#p5545959c1b)" style="fill: none; stroke: #000000; stroke-width: 2; stroke-linecap: round"/>
   </g>
   <g id="patch_5">
    <path d="M 148.171422 111.112565 
L 150.717007 126.386071 
L 135.4435 123.840487 
L 148.171422 111.112565 
z
" clip-path="url(#p5545959c1b)" style="fill: none; stroke: #000000; stroke-width: 2; stroke-linecap: round"/>
   </g>
   <g id="patch_6">
    <path d="M 609.893532 110.807532 
C 615.144554 110.807532 620.181214 108.721279 623.894247 105.008247 
C 627.607279 101.295214 629.693532 96.258554 629.693532 91.007532 
C 629.693532 85.756511 627.607279 80.719851 623.894247 77.006818 
C 620.181214 73.293785 615.144554 71.207532 609.893532 71.207532 
C 604.642511 71.207532 599.605851 73.293785 595.892818 77.006818 
C 592.179785 80.719851 590.093532 85.756511 590.093532 91.007532 
C 590.093532 96.258554 592.179785 101.295214 595.892818 105.008247 
C 599.605851 108.721279 604.642511 110.807532 609.893532 110.807532 
L 609.893532 110.807532 
z
" clip-path="url(#p5545959c1b)" style="fill: none; stroke: #000000; stroke-width: 2; stroke-linejoin: miter"/>
   </g>
   <g id="patch_7">
    <path d="M 548.813532 191.867532 
C 554.064554 191.867532 559.101214 189.781279 562.814247 186.068247 
C 566.527279 182.355214 568.613532 177.318554 568.613532 172.067532 
C 568.613532 166.816511 566.527279 161.779851 562.814247 158.066818 
C 559.101214 154.353785 554.064554 152.267532 548.813532 152.267532 
C 543.562511 152.267532 538.525851 154.353785 534.812818 158.066818 
C 531.099785 161.779851 529.013532 166.816511 529.013532 172.067532 
C 529.013532 177.318554 531.099785 182.355214 534.812818 186.068247 
C 538.525851 189.781279 543.562511 191.867532 548.813532 191.867532 
L 548.813532 191.867532 
z
" clip-path="url(#p5545959c1b)" style="fill: none; stroke: #000000; stroke-width: 2; stroke-linejoin: miter"/>
   </g>
   <g id="patch_8">
    <path d="M 539.813532 306.167532 
L 548.813532 293.567532 
L 557.813532 306.167532 
L 539.813532 306.167532 
z
" clip-path="url(#p5545959c1b)" style="fill: none; stroke: #000000; stroke-width: 2; stroke-linecap: round"/>
   </g>
   <g id="line2d_1">
    <path d="M 108.078468 83.747532 
L 141.807461 50.018539 
M 144.353046 34.745032 
L 157.080968 47.472954 
M 150.717007 41.108993 
L 184.446 7.38 
" clip-path="url(#p5545959c1b)" style="fill: none; stroke: #000000; stroke-width: 2; stroke-linecap: round"/>
   </g>
   <g id="line2d_2">
    <path d="M 184.446 7.38 
L 218.174993 41.108993 
M 233.4485 43.654578 
L 220.720578 56.3825 
M 227.084539 50.018539 
L 260.813532 83.747532 
" clip-path="url(#p5545959c1b)" style="fill: none; stroke: #000000; stroke-width: 2; stroke-linecap: round"/>
   </g>
   <g id="line2d_3">
    <path d="M 260.813532 83.747532 
L 227.084539 117.476526 
M 220.720578 111.112565 
L 233.4485 123.840487 
M 218.174993 126.386071 
L 184.446 160.115065 
" clip-path="url(#p5545959c1b)" style="fill: none; stroke: #000000; stroke-width: 2; stroke-linecap: round"/>
   </g>
   <g id="line2d_4">
    <path d="M 184.446 160.115065 
L 150.717007 126.386071 
M 157.080968 120.02211 
L 144.353046 132.750032 
M 141.807461 117.476526 
L 108.078468 83.747532 
" clip-path="url(#p5545959c1b)" style="fill: none; stroke: #000000; stroke-width: 2; stroke-linecap: round"/>
   </g>
   <g id="line2d_5">
    <path d="M 184.446 7.38 
L 103.446 7.38 
L 22.446 7.38 
" clip-path="url(#p5545959c1b)" style="fill: none; stroke: #000000; stroke-width: 2; stroke-linecap: round"/>
   </g>
   <g id="line2d_6">
    <path d="M 184.446 160.115065 
L 103.446 160.115065 
L 22.446 160.115065 
" clip-path="url(#p5545959c1b)" style="fill: none; stroke: #000000; stroke-width: 2; stroke-linecap: round"/>
   </g>
   <g id="line2d_7">
    <path d="M 260.813532 83.747532 
L 422.813532 83.747532 
L 584.813532 83.747532 
" clip-path="url(#p5545959c1b)" style="fill: none; stroke: #000000; stroke-width: 2; stroke-linecap: round"/>
   </g>
   <g id="line2d_8">
    <path d="M 609.893532 110.807532 
L 609.893532 97.607532 
" clip-path="url(#p5545959c1b)" style="fill: none; stroke: #000000; stroke-width: 2; stroke-linecap: round"/>
   </g>
   <g id="line2d_9">
    <path d="M 596.693532 97.607532 
L 623.093532 97.607532 
" clip-path="url(#p5545959c1b)" style="fill: none; stroke: #000000; stroke-width: 2; stroke-linecap: round"/>
   </g>
   <g id="line2d_10">
    <path d="M 603.293532 97.607532 
L 591.413532 83.747532 
L 584.813532 83.747532 
" clip-path="url(#p5545959c1b)" style="fill: none; stroke: #000000; stroke-width: 2; stroke-linecap: round"/>
   </g>
   <g id="line2d_11">
    <path d="M 616.493532 97.607532 
L 628.373532 83.747532 
L 634.973532 83.747532 
" clip-path="url(#p5545959c1b)" style="fill: none; stroke: #000000; stroke-width: 2; stroke-linecap: round"/>
   </g>
   <g id="line2d_12">
    <path d="M 616.493532 97.607532 
L 622.51641 90.580842 
" clip-path="url(#p5545959c1b)" style="fill: none; stroke: #000000; stroke-width: 2; stroke-linecap: round"/>
   </g>
   <g id="patch_9">
    <path d="M 619.783086 88.237993 
L 628.373532 83.747532 
L 625.249734 92.923691 
z
" clip-path="url(#p5545959c1b)"/>
   </g>
   <g id="line2d_13">
    <path d="M 609.893532 110.807532 
L 609.893532 137.807532 
L 609.893532 164.807532 
" clip-path="url(#p5545959c1b)" style="fill: none; stroke: #000000; stroke-width: 2; stroke-linecap: round"/>
   </g>
   <g id="line2d_14">
    <path d="M 609.893532 164.807532 
L 591.893532 164.807532 
L 573.893532 164.807532 
" clip-path="url(#p5545959c1b)" style="fill: none; stroke: #000000; stroke-width: 2; stroke-linecap: round"/>
   </g>
   <g id="line2d_15">
    <path d="M 548.813532 191.867532 
L 548.813532 178.667532 
" clip-path="url(#p5545959c1b)" style="fill: none; stroke: #000000; stroke-width: 2; stroke-linecap: round"/>
   </g>
   <g id="line2d_16">
    <path d="M 535.613532 178.667532 
L 562.013532 178.667532 
" clip-path="url(#p5545959c1b)" style="fill: none; stroke: #000000; stroke-width: 2; stroke-linecap: round"/>
   </g>
   <g id="line2d_17">
    <path d="M 542.213532 178.667532 
L 530.333532 164.807532 
L 523.733532 164.807532 
" clip-path="url(#p5545959c1b)" style="fill: none; stroke: #000000; stroke-width: 2; stroke-linecap: round"/>
   </g>
   <g id="line2d_18">
    <path d="M 555.413532 178.667532 
L 567.293532 164.807532 
L 573.893532 164.807532 
" clip-path="url(#p5545959c1b)" style="fill: none; stroke: #000000; stroke-width: 2; stroke-linecap: round"/>
   </g>
   <g id="line2d_19">
    <path d="M 555.413532 178.667532 
L 561.43641 171.640842 
" clip-path="url(#p5545959c1b)" style="fill: none; stroke: #000000; stroke-width: 2; stroke-linecap: round"/>
   </g>
   <g id="patch_10">
    <path d="M 558.703086 169.297993 
L 567.293532 164.807532 
L 564.169734 173.983691 
z
" clip-path="url(#p5545959c1b)"/>
   </g>
   <g id="line2d_20">
    <path d="M 523.733532 164.807532 
L 523.733532 124.277532 
L 523.733532 83.747532 
" clip-path="url(#p5545959c1b)" style="fill: none; stroke: #000000; stroke-width: 2; stroke-linecap: round"/>
   </g>
   <g id="line2d_21">
    <path d="M 548.813532 191.867532 
L 548.813532 218.867532 
L 548.813532 245.867532 
" clip-path="url(#p5545959c1b)" style="fill: none; stroke: #000000; stroke-width: 2; stroke-linecap: round"/>
   </g>
   <g id="line2d_22">
    <path d="M 548.813532 245.867532 
L 548.813532 293.567532 
M 539.813532 293.567532 
L 557.813532 293.567532 
M 548.813532 306.167532 
L 548.813532 353.867532 
" clip-path="url(#p5545959c1b)" style="fill: none; stroke: #000000; stroke-width: 2; stroke-linecap: round"/>
   </g>
   <g id="line2d_23">
    <path d="M 561.413532 289.967532 
L 557.813532 293.567532 
" clip-path="url(#p5545959c1b)" style="fill: none; stroke: #000000; stroke-width: 2; stroke-linecap: round"/>
   </g>
   <g id="line2d_24">
    <path d="M 536.213532 297.167532 
L 539.813532 293.567532 
" clip-path="url(#p5545959c1b)" style="fill: none; stroke: #000000; stroke-width: 2; stroke-linecap: round"/>
   </g>
   <g id="line2d_25">
    <path d="M 548.813532 353.867532 
L 548.813532 368.267532 
L 539.813532 368.267532 
L 557.813532 368.267532 
M 542.513532 372.587532 
L 555.113532 372.587532 
M 547.013532 376.907532 
L 550.613532 376.907532 
" clip-path="url(#p5545959c1b)" style="fill: none; stroke: #000000; stroke-width: 2; stroke-linecap: round"/>
   </g>
   <g id="line2d_26">
    <path d="M 548.813532 353.867532 
L 494.813532 353.867532 
L 440.813532 353.867532 
" clip-path="url(#p5545959c1b)" style="fill: none; stroke: #000000; stroke-width: 2; stroke-linecap: round"/>
   </g>
   <g id="line2d_27">
    <path d="M 440.813532 353.867532 
L 440.813532 303.107532 
M 449.813532 303.107532 
L 431.813532 303.107532 
M 449.813532 296.627532 
L 431.813532 296.627532 
M 440.813532 296.627532 
L 440.813532 245.867532 
" clip-path="url(#p5545959c1b)" style="fill: none; stroke: #000000; stroke-width: 2; stroke-linecap: round"/>
   </g>
   <g id="line2d_28">
    <path d="M 440.813532 245.867532 
L 494.813532 245.867532 
L 548.813532 245.867532 
" clip-path="url(#p5545959c1b)" style="fill: none; stroke: #000000; stroke-width: 2; stroke-linecap: round"/>
   </g>
   <g id="line2d_29">
    <path d="M 440.813532 245.867532 
L 440.813532 182.807532 
L 431.813532 179.807532 
L 449.813532 173.807532 
L 431.813532 167.807532 
L 449.813532 161.807532 
L 431.813532 155.807532 
L 449.813532 149.807532 
L 440.813532 146.807532 
L 440.813532 83.747532 
" clip-path="url(#p5545959c1b)" style="fill: none; stroke: #000000; stroke-width: 2; stroke-linecap: round"/>
   </g>
   <g id="line2d_30">
    <path d="M 332.813532 83.747532 
L 332.813532 215.567532 
M 323.813532 215.567532 
L 341.813532 215.567532 
M 323.813532 222.047532 
L 341.813532 222.047532 
M 332.813532 222.047532 
L 332.813532 353.867532 
" clip-path="url(#p5545959c1b)" style="fill: none; stroke: #000000; stroke-width: 2; stroke-linecap: round"/>
   </g>
   <g id="line2d_31">
    <path d="M 548.813532 353.867532 
L 328.446 353.867532 
L 108.078468 353.867532 
" clip-path="url(#p5545959c1b)" style="fill: none; stroke: #000000; stroke-width: 2; stroke-linecap: round"/>
   </g>
   <g id="line2d_32">
    <path d="M 108.078468 353.867532 
L 108.078468 218.807532 
L 108.078468 83.747532 
" clip-path="url(#p5545959c1b)" style="fill: none; stroke: #000000; stroke-width: 2; stroke-linecap: round"/>
   </g>
   <g id="line2d_33">
    <path d="M 609.893532 164.807532 
L 645.893532 164.807532 
L 648.893532 155.807532 
L 654.893532 173.807532 
L 660.893532 155.807532 
L 666.893532 173.807532 
L 672.893532 155.807532 
L 678.893532 173.807532 
L 681.893532 164.807532 
L 717.893532 164.807532 
" clip-path="url(#p5545959c1b)" style="fill: none; stroke: #000000; stroke-width: 2; stroke-linecap: round"/>
   </g>
   <g id="line2d_34">
    <path d="M 717.893532 164.807532 
L 717.893532 124.277532 
L 717.893532 83.747532 
" clip-path="url(#p5545959c1b)" style="fill: none; stroke: #000000; stroke-width: 2; stroke-linecap: round"/>
   </g>
   <g id="line2d_35">
    <path d="M 717.893532 83.747532 
L 676.433532 83.747532 
L 634.973532 83.747532 
" clip-path="url(#p5545959c1b)" style="fill: none; stroke: #000000; stroke-width: 2; stroke-linecap: round"/>
   </g>
   <g id="line2d_36">
    <path d="M 717.893532 164.807532 
L 717.893532 256.097532 
M 726.893532 256.097532 
L 708.893532 256.097532 
M 726.893532 262.577532 
L 708.893532 262.577532 
M 717.893532 262.577532 
L 717.893532 353.867532 
" clip-path="url(#p5545959c1b)" style="fill: none; stroke: #000000; stroke-width: 2; stroke-linecap: round"/>
   </g>
   <g id="line2d_37">
    <path d="M 717.893532 353.867532 
L 633.353532 353.867532 
L 548.813532 353.867532 
" clip-path="url(#p5545959c1b)" style="fill: none; stroke: #000000; stroke-width: 2; stroke-linecap: round"/>
   </g>
   <g id="line2d_38">
    <path d="M 717.893532 353.867532 
L 771.893532 353.867532 
L 825.893532 353.867532 
" clip-path="url(#p5545959c1b)" style="fill: none; stroke: #000000; stroke-width: 2; stroke-linecap: round"/>
   </g>
   <g id="line2d_39">
    <path d="M 825.893532 353.867532 
L 825.893532 236.807532 
L 816.893532 233.807532 
L 834.893532 227.807532 
L 816.893532 221.807532 
L 834.893532 215.807532 
L 816.893532 209.807532 
L 834.893532 203.807532 
L 825.893532 200.807532 
L 825.893532 83.747532 
" clip-path="url(#p5545959c1b)" style="fill: none; stroke: #000000; stroke-width: 2; stroke-linecap: round"/>
   </g>
   <g id="line2d_40">
    <path d="M 825.893532 83.747532 
L 771.893532 83.747532 
L 717.893532 83.747532 
" clip-path="url(#p5545959c1b)" style="fill: none; stroke: #000000; stroke-width: 2; stroke-linecap: round"/>
   </g>
   <g id="line2d_41">
    <path d="M 825.893532 83.747532 
L 879.893532 83.747532 
L 933.893532 83.747532 
" clip-path="url(#p5545959c1b)" style="fill: none; stroke: #000000; stroke-width: 2; stroke-linecap: round"/>
   </g>
   <g id="line2d_42">
    <path d="M 933.893532 353.867532 
L 879.893532 353.867532 
L 825.893532 353.867532 
" clip-path="url(#p5545959c1b)" style="fill: none; stroke: #000000; stroke-width: 2; stroke-linecap: round"/>
   </g>
   <g id="patch_11">
    <path d="M 22.446 10.08 
C 23.162048 10.08 23.848866 9.795511 24.355188 9.289188 
C 24.861511 8.782866 25.146 8.096048 25.146 7.38 
C 25.146 6.663952 24.861511 5.977134 24.355188 5.470812 
C 23.848866 4.964489 23.162048 4.68 22.446 4.68 
C 21.729952 4.68 21.043134 4.964489 20.536812 5.470812 
C 20.030489 5.977134 19.746 6.663952 19.746 7.38 
C 19.746 8.096048 20.030489 8.782866 20.536812 9.289188 
C 21.043134 9.795511 21.729952 10.08 22.446 10.08 
z
" clip-path="url(#p5545959c1b)" style="fill: #ffffff; stroke: #000000; stroke-width: 2; stroke-linejoin: miter"/>
   </g>
   <g id="patch_12">
    <path d="M 184.446 10.08 
C 185.162048 10.08 185.848866 9.795511 186.355188 9.289188 
C 186.861511 8.782866 187.146 8.096048 187.146 7.38 
C 187.146 6.663952 186.861511 5.977134 186.355188 5.470812 
C 185.848866 4.964489 185.162048 4.68 184.446 4.68 
C 183.729952 4.68 183.043134 4.964489 182.536812 5.470812 
C 182.030489 5.977134 181.746 6.663952 181.746 7.38 
C 181.746 8.096048 182.030489 8.782866 182.536812 9.289188 
C 183.043134 9.795511 183.729952 10.08 184.446 10.08 
z
" clip-path="url(#p5545959c1b)" style="stroke: #000000; stroke-width: 2; stroke-linejoin: miter"/>
   </g>
   <g id="patch_13">
    <path d="M 22.446 162.815065 
C 23.162048 162.815065 23.848866 162.530576 24.355188 162.024253 
C 24.861511 161.51793 25.146 160.831113 25.146 160.115065 
C 25.146 159.399016 24.861511 158.712199 24.355188 158.205876 
C 23.848866 157.699554 23.162048 157.415065 22.446 157.415065 
C 21.729952 157.415065 21.043134 157.699554 20.536812 158.205876 
C 20.030489 158.712199 19.746 159.399016 19.746 160.115065 
C 19.746 160.831113 20.030489 161.51793 20.536812 162.024253 
C 21.043134 162.530576 21.729952 162.815065 22.446 162.815065 
z
" clip-path="url(#p5545959c1b)" style="fill: #ffffff; stroke: #000000; stroke-width: 2; stroke-linejoin: miter"/>
   </g>
   <g id="patch_14">
    <path d="M 184.446 162.815065 
C 185.162048 162.815065 185.848866 162.530576 186.355188 162.024253 
C 186.861511 161.51793 187.146 160.831113 187.146 160.115065 
C 187.146 159.399016 186.861511 158.712199 186.355188 158.205876 
C 185.848866 157.699554 185.162048 157.415065 184.446 157.415065 
C 183.729952 157.415065 183.043134 157.699554 182.536812 158.205876 
C 182.030489 158.712199 181.746 159.399016 181.746 160.115065 
C 181.746 160.831113 182.030489 161.51793 182.536812 162.024253 
C 183.043134 162.530576 183.729952 162.815065 184.446 162.815065 
z
" clip-path="url(#p5545959c1b)" style="stroke: #000000; stroke-width: 2; stroke-linejoin: miter"/>
   </g>
   <g id="text_1">
    <!-- – -->
    <g transform="translate(18.946 125.794424) scale(0.14 -0.14)">
     <defs>
      <path id="DejaVuSans-2013" d="M 313 1978 
L 2888 1978 
L 2888 1528 
L 313 1528 
L 313 1978 
z
" transform="scale(0.015625)"/>
     </defs>
     <use xlink:href="#DejaVuSans-2013"/>
    </g>
   </g>
   <g id="text_2">
    <!-- AC IN -->
    <g transform="translate(3.365531 87.610657) scale(0.14 -0.14)">
     <defs>
      <path id="DejaVuSans-41" d="M 2188 4044 
L 1331 1722 
L 3047 1722 
L 2188 4044 
z
M 1831 4666 
L 2547 4666 
L 4325 0 
L 3669 0 
L 3244 1197 
L 1141 1197 
L 716 0 
L 50 0 
L 1831 4666 
z
" transform="scale(0.015625)"/>
      <path id="DejaVuSans-43" d="M 4122 4306 
L 4122 3641 
Q 3803 3938 3442 4084 
Q 3081 4231 2675 4231 
Q 1875 4231 1450 3742 
Q 1025 3253 1025 2328 
Q 1025 1406 1450 917 
Q 1875 428 2675 428 
Q 3081 428 3442 575 
Q 3803 722 4122 1019 
L 4122 359 
Q 3791 134 3420 21 
Q 3050 -91 2638 -91 
Q 1578 -91 968 557 
Q 359 1206 359 2328 
Q 359 3453 968 4101 
Q 1578 4750 2638 4750 
Q 3056 4750 3426 4639 
Q 3797 4528 4122 4306 
z
" transform="scale(0.015625)"/>
      <path id="DejaVuSans-20" transform="scale(0.015625)"/>
      <path id="DejaVuSans-49" d="M 628 4666 
L 1259 4666 
L 1259 0 
L 628 0 
L 628 4666 
z
" transform="scale(0.015625)"/>
      <path id="DejaVuSans-4e" d="M 628 4666 
L 1478 4666 
L 3547 763 
L 3547 4666 
L 4159 4666 
L 4159 0 
L 3309 0 
L 1241 3903 
L 1241 0 
L 628 0 
L 628 4666 
z
" transform="scale(0.015625)"/>
     </defs>
     <use xlink:href="#DejaVuSans-41"/>
     <use xlink:href="#DejaVuSans-43" x="66.658203"/>
     <use xlink:href="#DejaVuSans-20" x="136.482422"/>
     <use xlink:href="#DejaVuSans-49" x="168.269531"/>
     <use xlink:href="#DejaVuSans-4e" x="197.761719"/>
    </g>
   </g>
   <g id="text_3">
    <!-- + -->
    <g transform="translate(16.580219 49.426891) scale(0.14 -0.14)">
     <defs>
      <path id="DejaVuSans-2b" d="M 2944 4013 
L 2944 2272 
L 4684 2272 
L 4684 1741 
L 2944 1741 
L 2944 0 
L 2419 0 
L 2419 1741 
L 678 1741 
L 678 2272 
L 2419 2272 
L 2419 4013 
L 2944 4013 
z
" transform="scale(0.015625)"/>
     </defs>
     <use xlink:href="#DejaVuSans-2b"/>
    </g>
   </g>
   <g id="patch_15">
    <path d="M 260.813532 86.447532 
C 261.529581 86.447532 262.216398 86.163043 262.722721 85.656721 
C 263.229043 85.150398 263.513532 84.463581 263.513532 83.747532 
C 263.513532 83.031484 263.229043 82.344667 262.722721 81.838344 
C 262.216398 81.332021 261.529581 81.047532 260.813532 81.047532 
C 260.097484 81.047532 259.410667 81.332021 258.904344 81.838344 
C 258.398021 82.344667 258.113532 83.031484 258.113532 83.747532 
C 258.113532 84.463581 258.398021 85.150398 258.904344 85.656721 
C 259.410667 86.163043 260.097484 86.447532 260.813532 86.447532 
z
" clip-path="url(#p5545959c1b)" style="stroke: #000000; stroke-width: 2; stroke-linejoin: miter"/>
   </g>
   <g id="text_4">
    <!-- Q2 -->
    <g transform="translate(600.22947 51.146595) scale(0.14 -0.14)">
     <defs>
      <path id="DejaVuSans-51" d="M 2522 4238 
Q 1834 4238 1429 3725 
Q 1025 3213 1025 2328 
Q 1025 1447 1429 934 
Q 1834 422 2522 422 
Q 3209 422 3611 934 
Q 4013 1447 4013 2328 
Q 4013 3213 3611 3725 
Q 3209 4238 2522 4238 
z
M 3406 84 
L 4238 -825 
L 3475 -825 
L 2784 -78 
Q 2681 -84 2626 -87 
Q 2572 -91 2522 -91 
Q 1538 -91 948 567 
Q 359 1225 359 2328 
Q 359 3434 948 4092 
Q 1538 4750 2522 4750 
Q 3503 4750 4090 4092 
Q 4678 3434 4678 2328 
Q 4678 1516 4351 937 
Q 4025 359 3406 84 
z
" transform="scale(0.015625)"/>
      <path id="DejaVuSans-32" d="M 1228 531 
L 3431 531 
L 3431 0 
L 469 0 
L 469 531 
Q 828 903 1448 1529 
Q 2069 2156 2228 2338 
Q 2531 2678 2651 2914 
Q 2772 3150 2772 3378 
Q 2772 3750 2511 3984 
Q 2250 4219 1831 4219 
Q 1534 4219 1204 4116 
Q 875 4013 500 3803 
L 500 4441 
Q 881 4594 1212 4672 
Q 1544 4750 1819 4750 
Q 2544 4750 2975 4387 
Q 3406 4025 3406 3419 
Q 3406 3131 3298 2873 
Q 3191 2616 2906 2266 
Q 2828 2175 2409 1742 
Q 1991 1309 1228 531 
z
" transform="scale(0.015625)"/>
     </defs>
     <use xlink:href="#DejaVuSans-51"/>
     <use xlink:href="#DejaVuSans-32" x="78.710938"/>
    </g>
    <!-- 2n3055 -->
    <g transform="translate(583.488532 64.69597) scale(0.14 -0.14)">
     <defs>
      <path id="DejaVuSans-6e" d="M 3513 2113 
L 3513 0 
L 2938 0 
L 2938 2094 
Q 2938 2591 2744 2837 
Q 2550 3084 2163 3084 
Q 1697 3084 1428 2787 
Q 1159 2491 1159 1978 
L 1159 0 
L 581 0 
L 581 3500 
L 1159 3500 
L 1159 2956 
Q 1366 3272 1645 3428 
Q 1925 3584 2291 3584 
Q 2894 3584 3203 3211 
Q 3513 2838 3513 2113 
z
" transform="scale(0.015625)"/>
      <path id="DejaVuSans-33" d="M 2597 2516 
Q 3050 2419 3304 2112 
Q 3559 1806 3559 1356 
Q 3559 666 3084 287 
Q 2609 -91 1734 -91 
Q 1441 -91 1130 -33 
Q 819 25 488 141 
L 488 750 
Q 750 597 1062 519 
Q 1375 441 1716 441 
Q 2309 441 2620 675 
Q 2931 909 2931 1356 
Q 2931 1769 2642 2001 
Q 2353 2234 1838 2234 
L 1294 2234 
L 1294 2753 
L 1863 2753 
Q 2328 2753 2575 2939 
Q 2822 3125 2822 3475 
Q 2822 3834 2567 4026 
Q 2313 4219 1838 4219 
Q 1578 4219 1281 4162 
Q 984 4106 628 3988 
L 628 4550 
Q 988 4650 1302 4700 
Q 1616 4750 1894 4750 
Q 2613 4750 3031 4423 
Q 3450 4097 3450 3541 
Q 3450 3153 3228 2886 
Q 3006 2619 2597 2516 
z
" transform="scale(0.015625)"/>
      <path id="DejaVuSans-30" d="M 2034 4250 
Q 1547 4250 1301 3770 
Q 1056 3291 1056 2328 
Q 1056 1369 1301 889 
Q 1547 409 2034 409 
Q 2525 409 2770 889 
Q 3016 1369 3016 2328 
Q 3016 3291 2770 3770 
Q 2525 4250 2034 4250 
z
M 2034 4750 
Q 2819 4750 3233 4129 
Q 3647 3509 3647 2328 
Q 3647 1150 3233 529 
Q 2819 -91 2034 -91 
Q 1250 -91 836 529 
Q 422 1150 422 2328 
Q 422 3509 836 4129 
Q 1250 4750 2034 4750 
z
" transform="scale(0.015625)"/>
      <path id="DejaVuSans-35" d="M 691 4666 
L 3169 4666 
L 3169 4134 
L 1269 4134 
L 1269 2991 
Q 1406 3038 1543 3061 
Q 1681 3084 1819 3084 
Q 2600 3084 3056 2656 
Q 3513 2228 3513 1497 
Q 3513 744 3044 326 
Q 2575 -91 1722 -91 
Q 1428 -91 1123 -41 
Q 819 9 494 109 
L 494 744 
Q 775 591 1075 516 
Q 1375 441 1709 441 
Q 2250 441 2565 725 
Q 2881 1009 2881 1497 
Q 2881 1984 2565 2268 
Q 2250 2553 1709 2553 
Q 1456 2553 1204 2497 
Q 953 2441 691 2322 
L 691 4666 
z
" transform="scale(0.015625)"/>
     </defs>
     <use xlink:href="#DejaVuSans-32"/>
     <use xlink:href="#DejaVuSans-6e" x="63.623047"/>
     <use xlink:href="#DejaVuSans-33" x="127.001953"/>
     <use xlink:href="#DejaVuSans-30" x="190.625"/>
     <use xlink:href="#DejaVuSans-35" x="254.248047"/>
     <use xlink:href="#DejaVuSans-35" x="317.871094"/>
    </g>
   </g>
   <g id="text_5">
    <!-- Q1 -->
    <g transform="translate(539.14947 132.206595) scale(0.14 -0.14)">
     <defs>
      <path id="DejaVuSans-31" d="M 794 531 
L 1825 531 
L 1825 4091 
L 703 3866 
L 703 4441 
L 1819 4666 
L 2450 4666 
L 2450 531 
L 3481 531 
L 3481 0 
L 794 0 
L 794 531 
z
" transform="scale(0.015625)"/>
     </defs>
     <use xlink:href="#DejaVuSans-51"/>
     <use xlink:href="#DejaVuSans-31" x="78.710938"/>
    </g>
    <!--     2n3054 -->
    <g transform="translate(513.509782 145.75597) scale(0.14 -0.14)">
     <defs>
      <path id="DejaVuSans-34" d="M 2419 4116 
L 825 1625 
L 2419 1625 
L 2419 4116 
z
M 2253 4666 
L 3047 4666 
L 3047 1625 
L 3713 1625 
L 3713 1100 
L 3047 1100 
L 3047 0 
L 2419 0 
L 2419 1100 
L 313 1100 
L 313 1709 
L 2253 4666 
z
" transform="scale(0.015625)"/>
     </defs>
     <use xlink:href="#DejaVuSans-20"/>
     <use xlink:href="#DejaVuSans-20" x="31.787109"/>
     <use xlink:href="#DejaVuSans-20" x="63.574219"/>
     <use xlink:href="#DejaVuSans-20" x="95.361328"/>
     <use xlink:href="#DejaVuSans-32" x="127.148438"/>
     <use xlink:href="#DejaVuSans-6e" x="190.771484"/>
     <use xlink:href="#DejaVuSans-33" x="254.150391"/>
     <use xlink:href="#DejaVuSans-30" x="317.773438"/>
     <use xlink:href="#DejaVuSans-35" x="381.396484"/>
     <use xlink:href="#DejaVuSans-34" x="445.019531"/>
    </g>
   </g>
   <g id="patch_16">
    <path d="M 523.733532 86.447532 
C 524.449581 86.447532 525.136398 86.163043 525.642721 85.656721 
C 526.149043 85.150398 526.433532 84.463581 526.433532 83.747532 
C 526.433532 83.031484 526.149043 82.344667 525.642721 81.838344 
C 525.136398 81.332021 524.449581 81.047532 523.733532 81.047532 
C 523.017484 81.047532 522.330667 81.332021 521.824344 81.838344 
C 521.318021 82.344667 521.033532 83.031484 521.033532 83.747532 
C 521.033532 84.463581 521.318021 85.150398 521.824344 85.656721 
C 522.330667 86.163043 523.017484 86.447532 523.733532 86.447532 
z
" clip-path="url(#p5545959c1b)" style="stroke: #000000; stroke-width: 2; stroke-linejoin: miter"/>
   </g>
   <g id="patch_17">
    <path d="M 548.813532 248.567532 
C 549.529581 248.567532 550.216398 248.283043 550.722721 247.776721 
C 551.229043 247.270398 551.513532 246.583581 551.513532 245.867532 
C 551.513532 245.151484 551.229043 244.464667 550.722721 243.958344 
C 550.216398 243.452021 549.529581 243.167532 548.813532 243.167532 
C 548.097484 243.167532 547.410667 243.452021 546.904344 243.958344 
C 546.398021 244.464667 546.113532 245.151484 546.113532 245.867532 
C 546.113532 246.583581 546.398021 247.270398 546.904344 247.776721 
C 547.410667 248.283043 548.097484 248.567532 548.813532 248.567532 
z
" clip-path="url(#p5545959c1b)" style="stroke: #000000; stroke-width: 2; stroke-linejoin: miter"/>
   </g>
   <g id="patch_18">
    <path d="M 548.813532 356.567532 
C 549.529581 356.567532 550.216398 356.283043 550.722721 355.776721 
C 551.229043 355.270398 551.513532 354.583581 551.513532 353.867532 
C 551.513532 353.151484 551.229043 352.464667 550.722721 351.958344 
C 550.216398 351.452021 549.529581 351.167532 548.813532 351.167532 
C 548.097484 351.167532 547.410667 351.452021 546.904344 351.958344 
C 546.398021 352.464667 546.113532 353.151484 546.113532 353.867532 
C 546.113532 354.583581 546.398021 355.270398 546.904344 355.776721 
C 547.410667 356.283043 548.097484 356.567532 548.813532 356.567532 
z
" clip-path="url(#p5545959c1b)" style="stroke: #000000; stroke-width: 2; stroke-linejoin: miter"/>
   </g>
   <g id="text_6">
    <!-- D2 -->
    <g transform="translate(565.013532 298.30597) scale(0.14 -0.14)">
     <defs>
      <path id="DejaVuSans-44" d="M 1259 4147 
L 1259 519 
L 2022 519 
Q 2988 519 3436 956 
Q 3884 1394 3884 2338 
Q 3884 3275 3436 3711 
Q 2988 4147 2022 4147 
L 1259 4147 
z
M 628 4666 
L 1925 4666 
Q 3281 4666 3915 4102 
Q 4550 3538 4550 2338 
Q 4550 1131 3912 565 
Q 3275 0 1925 0 
L 628 0 
L 628 4666 
z
" transform="scale(0.015625)"/>
     </defs>
     <use xlink:href="#DejaVuSans-44"/>
     <use xlink:href="#DejaVuSans-32" x="77.001953"/>
    </g>
    <!-- 500mA -->
    <g transform="translate(565.013532 311.855345) scale(0.14 -0.14)">
     <defs>
      <path id="DejaVuSans-6d" d="M 3328 2828 
Q 3544 3216 3844 3400 
Q 4144 3584 4550 3584 
Q 5097 3584 5394 3201 
Q 5691 2819 5691 2113 
L 5691 0 
L 5113 0 
L 5113 2094 
Q 5113 2597 4934 2840 
Q 4756 3084 4391 3084 
Q 3944 3084 3684 2787 
Q 3425 2491 3425 1978 
L 3425 0 
L 2847 0 
L 2847 2094 
Q 2847 2600 2669 2842 
Q 2491 3084 2119 3084 
Q 1678 3084 1418 2786 
Q 1159 2488 1159 1978 
L 1159 0 
L 581 0 
L 581 3500 
L 1159 3500 
L 1159 2956 
Q 1356 3278 1631 3431 
Q 1906 3584 2284 3584 
Q 2666 3584 2933 3390 
Q 3200 3197 3328 2828 
z
" transform="scale(0.015625)"/>
     </defs>
     <use xlink:href="#DejaVuSans-35"/>
     <use xlink:href="#DejaVuSans-30" x="63.623047"/>
     <use xlink:href="#DejaVuSans-30" x="127.246094"/>
     <use xlink:href="#DejaVuSans-6d" x="190.869141"/>
     <use xlink:href="#DejaVuSans-41" x="288.28125"/>
    </g>
   </g>
   <g id="patch_19">
    <path d="M 440.813532 356.567532 
C 441.529581 356.567532 442.216398 356.283043 442.722721 355.776721 
C 443.229043 355.270398 443.513532 354.583581 443.513532 353.867532 
C 443.513532 353.151484 443.229043 352.464667 442.722721 351.958344 
C 442.216398 351.452021 441.529581 351.167532 440.813532 351.167532 
C 440.097484 351.167532 439.410667 351.452021 438.904344 351.958344 
C 438.398021 352.464667 438.113532 353.151484 438.113532 353.867532 
C 438.113532 354.583581 438.398021 355.270398 438.904344 355.776721 
C 439.410667 356.283043 440.097484 356.567532 440.813532 356.567532 
z
" clip-path="url(#p5545959c1b)" style="stroke: #000000; stroke-width: 2; stroke-linejoin: miter"/>
   </g>
   <g id="text_7">
    <!-- + -->
    <g transform="translate(428.467751 292.714657) scale(0.14 -0.14)">
     <use xlink:href="#DejaVuSans-2b"/>
    </g>
   </g>
   <g id="patch_20">
    <path d="M 440.813532 248.567532 
C 441.529581 248.567532 442.216398 248.283043 442.722721 247.776721 
C 443.229043 247.270398 443.513532 246.583581 443.513532 245.867532 
C 443.513532 245.151484 443.229043 244.464667 442.722721 243.958344 
C 442.216398 243.452021 441.529581 243.167532 440.813532 243.167532 
C 440.097484 243.167532 439.410667 243.452021 438.904344 243.958344 
C 438.398021 244.464667 438.113532 245.151484 438.113532 245.867532 
C 438.113532 246.583581 438.398021 247.270398 438.904344 247.776721 
C 439.410667 248.283043 440.097484 248.567532 440.813532 248.567532 
z
" clip-path="url(#p5545959c1b)" style="stroke: #000000; stroke-width: 2; stroke-linejoin: miter"/>
   </g>
   <g id="text_8">
    <!-- C2 -->
    <g transform="translate(453.413532 288.817064) scale(0.14 -0.14)">
     <use xlink:href="#DejaVuSans-43"/>
     <use xlink:href="#DejaVuSans-32" x="69.824219"/>
    </g>
    <!-- 100$\mu$F -->
    <g transform="translate(453.413532 302.366439) scale(0.14 -0.14)">
     <defs>
      <path id="DejaVuSans-Oblique-3bc" d="M -84 -1331 
L 856 3500 
L 1434 3500 
L 1009 1322 
Q 997 1256 987 1175 
Q 978 1094 978 1013 
Q 978 722 1161 565 
Q 1344 409 1684 409 
Q 2147 409 2431 671 
Q 2716 934 2816 1459 
L 3213 3500 
L 3788 3500 
L 3266 809 
Q 3253 750 3248 706 
Q 3244 663 3244 628 
Q 3244 531 3283 486 
Q 3322 441 3406 441 
Q 3438 441 3492 456 
Q 3547 472 3647 513 
L 3559 50 
Q 3422 -19 3297 -55 
Q 3172 -91 3053 -91 
Q 2847 -91 2730 40 
Q 2613 172 2613 403 
Q 2438 153 2195 31 
Q 1953 -91 1625 -91 
Q 1334 -91 1117 43 
Q 900 178 831 397 
L 494 -1331 
L -84 -1331 
z
" transform="scale(0.015625)"/>
      <path id="DejaVuSans-46" d="M 628 4666 
L 3309 4666 
L 3309 4134 
L 1259 4134 
L 1259 2759 
L 3109 2759 
L 3109 2228 
L 1259 2228 
L 1259 0 
L 628 0 
L 628 4666 
z
" transform="scale(0.015625)"/>
     </defs>
     <use xlink:href="#DejaVuSans-31" transform="translate(0 0.78125)"/>
     <use xlink:href="#DejaVuSans-30" transform="translate(63.623047 0.78125)"/>
     <use xlink:href="#DejaVuSans-30" transform="translate(127.246094 0.78125)"/>
     <use xlink:href="#DejaVuSans-Oblique-3bc" transform="translate(190.869141 0.78125)"/>
     <use xlink:href="#DejaVuSans-46" transform="translate(254.492188 0.78125)"/>
    </g>
    <!-- 50V -->
    <g transform="translate(453.413532 315.944251) scale(0.14 -0.14)">
     <defs>
      <path id="DejaVuSans-56" d="M 1831 0 
L 50 4666 
L 709 4666 
L 2188 738 
L 3669 4666 
L 4325 4666 
L 2547 0 
L 1831 0 
z
" transform="scale(0.015625)"/>
     </defs>
     <use xlink:href="#DejaVuSans-35"/>
     <use xlink:href="#DejaVuSans-30" x="63.623047"/>
     <use xlink:href="#DejaVuSans-56" x="127.246094"/>
    </g>
   </g>
   <g id="patch_21">
    <path d="M 440.813532 86.447532 
C 441.529581 86.447532 442.216398 86.163043 442.722721 85.656721 
C 443.229043 85.150398 443.513532 84.463581 443.513532 83.747532 
C 443.513532 83.031484 443.229043 82.344667 442.722721 81.838344 
C 442.216398 81.332021 441.529581 81.047532 440.813532 81.047532 
C 440.097484 81.047532 439.410667 81.332021 438.904344 81.838344 
C 438.398021 82.344667 438.113532 83.031484 438.113532 83.747532 
C 438.113532 84.463581 438.398021 85.150398 438.904344 85.656721 
C 439.410667 86.163043 440.097484 86.447532 440.813532 86.447532 
z
" clip-path="url(#p5545959c1b)" style="stroke: #000000; stroke-width: 2; stroke-linejoin: miter"/>
   </g>
   <g id="text_9">
    <!-- R1 -->
    <g transform="translate(453.413532 153.771282) scale(0.14 -0.14)">
     <defs>
      <path id="DejaVuSans-52" d="M 2841 2188 
Q 3044 2119 3236 1894 
Q 3428 1669 3622 1275 
L 4263 0 
L 3584 0 
L 2988 1197 
Q 2756 1666 2539 1819 
Q 2322 1972 1947 1972 
L 1259 1972 
L 1259 0 
L 628 0 
L 628 4666 
L 2053 4666 
Q 2853 4666 3247 4331 
Q 3641 3997 3641 3322 
Q 3641 2881 3436 2590 
Q 3231 2300 2841 2188 
z
M 1259 4147 
L 1259 2491 
L 2053 2491 
Q 2509 2491 2742 2702 
Q 2975 2913 2975 3322 
Q 2975 3731 2742 3939 
Q 2509 4147 2053 4147 
L 1259 4147 
z
" transform="scale(0.015625)"/>
     </defs>
     <use xlink:href="#DejaVuSans-52"/>
     <use xlink:href="#DejaVuSans-31" x="69.482422"/>
    </g>
    <!-- 2.2K -->
    <g transform="translate(453.413532 167.320657) scale(0.14 -0.14)">
     <defs>
      <path id="DejaVuSans-2e" d="M 684 794 
L 1344 794 
L 1344 0 
L 684 0 
L 684 794 
z
" transform="scale(0.015625)"/>
      <path id="DejaVuSans-4b" d="M 628 4666 
L 1259 4666 
L 1259 2694 
L 3353 4666 
L 4166 4666 
L 1850 2491 
L 4331 0 
L 3500 0 
L 1259 2247 
L 1259 0 
L 628 0 
L 628 4666 
z
" transform="scale(0.015625)"/>
     </defs>
     <use xlink:href="#DejaVuSans-32"/>
     <use xlink:href="#DejaVuSans-2e" x="63.623047"/>
     <use xlink:href="#DejaVuSans-32" x="95.410156"/>
     <use xlink:href="#DejaVuSans-4b" x="159.033203"/>
    </g>
    <!-- 50V -->
    <g transform="translate(453.413532 180.870032) scale(0.14 -0.14)">
     <use xlink:href="#DejaVuSans-35"/>
     <use xlink:href="#DejaVuSans-30" x="63.623047"/>
     <use xlink:href="#DejaVuSans-56" x="127.246094"/>
    </g>
   </g>
   <g id="text_10">
    <!-- + -->
    <g transform="translate(320.467751 211.654657) scale(0.14 -0.14)">
     <use xlink:href="#DejaVuSans-2b"/>
    </g>
   </g>
   <g id="patch_22">
    <path d="M 332.813532 356.567532 
C 333.529581 356.567532 334.216398 356.283043 334.722721 355.776721 
C 335.229043 355.270398 335.513532 354.583581 335.513532 353.867532 
C 335.513532 353.151484 335.229043 352.464667 334.722721 351.958344 
C 334.216398 351.452021 333.529581 351.167532 332.813532 351.167532 
C 332.097484 351.167532 331.410667 351.452021 330.904344 351.958344 
C 330.398021 352.464667 330.113532 353.151484 330.113532 353.867532 
C 330.113532 354.583581 330.398021 355.270398 330.904344 355.776721 
C 331.410667 356.283043 332.097484 356.567532 332.813532 356.567532 
z
" clip-path="url(#p5545959c1b)" style="stroke: #000000; stroke-width: 2; stroke-linejoin: miter"/>
   </g>
   <g id="patch_23">
    <path d="M 332.813532 86.447532 
C 333.529581 86.447532 334.216398 86.163043 334.722721 85.656721 
C 335.229043 85.150398 335.513532 84.463581 335.513532 83.747532 
C 335.513532 83.031484 335.229043 82.344667 334.722721 81.838344 
C 334.216398 81.332021 333.529581 81.047532 332.813532 81.047532 
C 332.097484 81.047532 331.410667 81.332021 330.904344 81.838344 
C 330.398021 82.344667 330.113532 83.031484 330.113532 83.747532 
C 330.113532 84.463581 330.398021 85.150398 330.904344 85.656721 
C 331.410667 86.163043 332.097484 86.447532 332.813532 86.447532 
z
" clip-path="url(#p5545959c1b)" style="stroke: #000000; stroke-width: 2; stroke-linejoin: miter"/>
   </g>
   <g id="text_11">
    <!-- C1 -->
    <g transform="translate(301.530095 209.107064) scale(0.14 -0.14)">
     <use xlink:href="#DejaVuSans-43"/>
     <use xlink:href="#DejaVuSans-31" x="69.824219"/>
    </g>
    <!--  1000$\mu$F -->
    <g transform="translate(263.093532 222.656439) scale(0.14 -0.14)">
     <use xlink:href="#DejaVuSans-20" transform="translate(0 0.78125)"/>
     <use xlink:href="#DejaVuSans-31" transform="translate(31.787109 0.78125)"/>
     <use xlink:href="#DejaVuSans-30" transform="translate(95.410156 0.78125)"/>
     <use xlink:href="#DejaVuSans-30" transform="translate(159.033203 0.78125)"/>
     <use xlink:href="#DejaVuSans-30" transform="translate(222.65625 0.78125)"/>
     <use xlink:href="#DejaVuSans-Oblique-3bc" transform="translate(286.279297 0.78125)"/>
     <use xlink:href="#DejaVuSans-46" transform="translate(349.902344 0.78125)"/>
    </g>
    <!-- 50V -->
    <g transform="translate(292.821657 236.234251) scale(0.14 -0.14)">
     <use xlink:href="#DejaVuSans-35"/>
     <use xlink:href="#DejaVuSans-30" x="63.623047"/>
     <use xlink:href="#DejaVuSans-56" x="127.246094"/>
    </g>
   </g>
   <g id="patch_24">
    <path d="M 108.078468 86.447532 
C 108.794516 86.447532 109.481333 86.163043 109.987656 85.656721 
C 110.493979 85.150398 110.778468 84.463581 110.778468 83.747532 
C 110.778468 83.031484 110.493979 82.344667 109.987656 81.838344 
C 109.481333 81.332021 108.794516 81.047532 108.078468 81.047532 
C 107.362419 81.047532 106.675602 81.332021 106.169279 81.838344 
C 105.662957 82.344667 105.378468 83.031484 105.378468 83.747532 
C 105.378468 84.463581 105.662957 85.150398 106.169279 85.656721 
C 106.675602 86.163043 107.362419 86.447532 108.078468 86.447532 
z
" clip-path="url(#p5545959c1b)" style="stroke: #000000; stroke-width: 2; stroke-linejoin: miter"/>
   </g>
   <g id="patch_25">
    <path d="M 717.893532 167.507532 
C 718.609581 167.507532 719.296398 167.223043 719.802721 166.716721 
C 720.309043 166.210398 720.593532 165.523581 720.593532 164.807532 
C 720.593532 164.091484 720.309043 163.404667 719.802721 162.898344 
C 719.296398 162.392021 718.609581 162.107532 717.893532 162.107532 
C 717.177484 162.107532 716.490667 162.392021 715.984344 162.898344 
C 715.478021 163.404667 715.193532 164.091484 715.193532 164.807532 
C 715.193532 165.523581 715.478021 166.210398 715.984344 166.716721 
C 716.490667 167.223043 717.177484 167.507532 717.893532 167.507532 
z
" clip-path="url(#p5545959c1b)" style="stroke: #000000; stroke-width: 2; stroke-linejoin: miter"/>
   </g>
   <g id="text_12">
    <!-- R2 -->
    <g transform="translate(655.925876 149.29597) scale(0.14 -0.14)">
     <use xlink:href="#DejaVuSans-52"/>
     <use xlink:href="#DejaVuSans-32" x="69.482422"/>
    </g>
   </g>
   <g id="text_13">
    <!-- 56$\Omega$ 1W -->
    <g transform="translate(637.383532 188.045345) scale(0.14 -0.14)">
     <defs>
      <path id="DejaVuSans-36" d="M 2113 2584 
Q 1688 2584 1439 2293 
Q 1191 2003 1191 1497 
Q 1191 994 1439 701 
Q 1688 409 2113 409 
Q 2538 409 2786 701 
Q 3034 994 3034 1497 
Q 3034 2003 2786 2293 
Q 2538 2584 2113 2584 
z
M 3366 4563 
L 3366 3988 
Q 3128 4100 2886 4159 
Q 2644 4219 2406 4219 
Q 1781 4219 1451 3797 
Q 1122 3375 1075 2522 
Q 1259 2794 1537 2939 
Q 1816 3084 2150 3084 
Q 2853 3084 3261 2657 
Q 3669 2231 3669 1497 
Q 3669 778 3244 343 
Q 2819 -91 2113 -91 
Q 1303 -91 875 529 
Q 447 1150 447 2328 
Q 447 3434 972 4092 
Q 1497 4750 2381 4750 
Q 2619 4750 2861 4703 
Q 3103 4656 3366 4563 
z
" transform="scale(0.015625)"/>
      <path id="DejaVuSans-3a9" d="M 4647 556 
L 4647 0 
L 2772 0 
L 2772 556 
Q 3325 859 3634 1378 
Q 3944 1897 3944 2528 
Q 3944 3278 3531 3731 
Q 3119 4184 2444 4184 
Q 1769 4184 1355 3729 
Q 941 3275 941 2528 
Q 941 1897 1250 1378 
Q 1563 859 2119 556 
L 2119 0 
L 244 0 
L 244 556 
L 1241 556 
Q 747 991 519 1456 
Q 294 1922 294 2497 
Q 294 3491 894 4106 
Q 1491 4722 2444 4722 
Q 3391 4722 3994 4106 
Q 4594 3494 4594 2528 
Q 4594 1922 4372 1459 
Q 4150 997 3647 556 
L 4647 556 
z
" transform="scale(0.015625)"/>
      <path id="DejaVuSans-57" d="M 213 4666 
L 850 4666 
L 1831 722 
L 2809 4666 
L 3519 4666 
L 4500 722 
L 5478 4666 
L 6119 4666 
L 4947 0 
L 4153 0 
L 3169 4050 
L 2175 0 
L 1381 0 
L 213 4666 
z
" transform="scale(0.015625)"/>
     </defs>
     <use xlink:href="#DejaVuSans-35" transform="translate(0 0.78125)"/>
     <use xlink:href="#DejaVuSans-36" transform="translate(63.623047 0.78125)"/>
     <use xlink:href="#DejaVuSans-3a9" transform="translate(127.246094 0.78125)"/>
     <use xlink:href="#DejaVuSans-20" transform="translate(203.662109 0.78125)"/>
     <use xlink:href="#DejaVuSans-31" transform="translate(235.449219 0.78125)"/>
     <use xlink:href="#DejaVuSans-57" transform="translate(299.072266 0.78125)"/>
    </g>
   </g>
   <g id="patch_26">
    <path d="M 717.893532 86.447532 
C 718.609581 86.447532 719.296398 86.163043 719.802721 85.656721 
C 720.309043 85.150398 720.593532 84.463581 720.593532 83.747532 
C 720.593532 83.031484 720.309043 82.344667 719.802721 81.838344 
C 719.296398 81.332021 718.609581 81.047532 717.893532 81.047532 
C 717.177484 81.047532 716.490667 81.332021 715.984344 81.838344 
C 715.478021 82.344667 715.193532 83.031484 715.193532 83.747532 
C 715.193532 84.463581 715.478021 85.150398 715.984344 85.656721 
C 716.490667 86.163043 717.177484 86.447532 717.893532 86.447532 
z
" clip-path="url(#p5545959c1b)" style="stroke: #000000; stroke-width: 2; stroke-linejoin: miter"/>
   </g>
   <g id="text_14">
    <!-- + -->
    <g transform="translate(718.507751 252.184657) scale(0.14 -0.14)">
     <use xlink:href="#DejaVuSans-2b"/>
    </g>
   </g>
   <g id="patch_27">
    <path d="M 717.893532 356.567532 
C 718.609581 356.567532 719.296398 356.283043 719.802721 355.776721 
C 720.309043 355.270398 720.593532 354.583581 720.593532 353.867532 
C 720.593532 353.151484 720.309043 352.464667 719.802721 351.958344 
C 719.296398 351.452021 718.609581 351.167532 717.893532 351.167532 
C 717.177484 351.167532 716.490667 351.452021 715.984344 351.958344 
C 715.478021 352.464667 715.193532 353.151484 715.193532 353.867532 
C 715.193532 354.583581 715.478021 355.270398 715.984344 355.776721 
C 716.490667 356.283043 717.177484 356.567532 717.893532 356.567532 
z
" clip-path="url(#p5545959c1b)" style="stroke: #000000; stroke-width: 2; stroke-linejoin: miter"/>
   </g>
   <g id="text_15">
    <!-- C3 -->
    <g transform="translate(730.493532 250.987064) scale(0.14 -0.14)">
     <use xlink:href="#DejaVuSans-43"/>
     <use xlink:href="#DejaVuSans-33" x="69.824219"/>
    </g>
    <!-- 470$\mu$F -->
    <g transform="translate(730.493532 264.536439) scale(0.14 -0.14)">
     <defs>
      <path id="DejaVuSans-37" d="M 525 4666 
L 3525 4666 
L 3525 4397 
L 1831 0 
L 1172 0 
L 2766 4134 
L 525 4134 
L 525 4666 
z
" transform="scale(0.015625)"/>
     </defs>
     <use xlink:href="#DejaVuSans-34" transform="translate(0 0.78125)"/>
     <use xlink:href="#DejaVuSans-37" transform="translate(63.623047 0.78125)"/>
     <use xlink:href="#DejaVuSans-30" transform="translate(127.246094 0.78125)"/>
     <use xlink:href="#DejaVuSans-Oblique-3bc" transform="translate(190.869141 0.78125)"/>
     <use xlink:href="#DejaVuSans-46" transform="translate(254.492188 0.78125)"/>
    </g>
    <!-- 50V -->
    <g transform="translate(730.493532 278.114251) scale(0.14 -0.14)">
     <use xlink:href="#DejaVuSans-35"/>
     <use xlink:href="#DejaVuSans-30" x="63.623047"/>
     <use xlink:href="#DejaVuSans-56" x="127.246094"/>
    </g>
   </g>
   <g id="patch_28">
    <path d="M 825.893532 356.567532 
C 826.609581 356.567532 827.296398 356.283043 827.802721 355.776721 
C 828.309043 355.270398 828.593532 354.583581 828.593532 353.867532 
C 828.593532 353.151484 828.309043 352.464667 827.802721 351.958344 
C 827.296398 351.452021 826.609581 351.167532 825.893532 351.167532 
C 825.177484 351.167532 824.490667 351.452021 823.984344 351.958344 
C 823.478021 352.464667 823.193532 353.151484 823.193532 353.867532 
C 823.193532 354.583581 823.478021 355.270398 823.984344 355.776721 
C 824.490667 356.283043 825.177484 356.567532 825.893532 356.567532 
z
" clip-path="url(#p5545959c1b)" style="stroke: #000000; stroke-width: 2; stroke-linejoin: miter"/>
   </g>
   <g id="patch_29">
    <path d="M 825.893532 86.447532 
C 826.609581 86.447532 827.296398 86.163043 827.802721 85.656721 
C 828.309043 85.150398 828.593532 84.463581 828.593532 83.747532 
C 828.593532 83.031484 828.309043 82.344667 827.802721 81.838344 
C 827.296398 81.332021 826.609581 81.047532 825.893532 81.047532 
C 825.177484 81.047532 824.490667 81.332021 823.984344 81.838344 
C 823.478021 82.344667 823.193532 83.031484 823.193532 83.747532 
C 823.193532 84.463581 823.478021 85.150398 823.984344 85.656721 
C 824.490667 86.163043 825.177484 86.447532 825.893532 86.447532 
z
" clip-path="url(#p5545959c1b)" style="stroke: #000000; stroke-width: 2; stroke-linejoin: miter"/>
   </g>
   <g id="text_16">
    <!-- R3 -->
    <g transform="translate(838.493532 207.771282) scale(0.14 -0.14)">
     <use xlink:href="#DejaVuSans-52"/>
     <use xlink:href="#DejaVuSans-33" x="69.482422"/>
    </g>
    <!-- 10K -->
    <g transform="translate(838.493532 221.320657) scale(0.14 -0.14)">
     <use xlink:href="#DejaVuSans-31"/>
     <use xlink:href="#DejaVuSans-30" x="63.623047"/>
     <use xlink:href="#DejaVuSans-4b" x="127.246094"/>
    </g>
    <!-- 1W -->
    <g transform="translate(838.493532 234.870032) scale(0.14 -0.14)">
     <use xlink:href="#DejaVuSans-31"/>
     <use xlink:href="#DejaVuSans-57" x="63.623047"/>
    </g>
   </g>
   <g id="text_17">
    <!-- + -->
    <g transform="translate(928.027751 155.140657) scale(0.14 -0.14)">
     <use xlink:href="#DejaVuSans-2b"/>
    </g>
   </g>
   <g id="text_18">
    <!-- $V_{out}$ -->
    <g transform="translate(920.873532 222.670657) scale(0.14 -0.14)">
     <defs>
      <path id="DejaVuSans-Oblique-56" d="M 1319 0 
L 500 4666 
L 1119 4666 
L 1797 653 
L 4063 4666 
L 4750 4666 
L 2053 0 
L 1319 0 
z
" transform="scale(0.015625)"/>
      <path id="DejaVuSans-Oblique-6f" d="M 1625 -91 
Q 1009 -91 651 289 
Q 294 669 294 1325 
Q 294 1706 417 2101 
Q 541 2497 738 2766 
Q 1047 3184 1428 3384 
Q 1809 3584 2291 3584 
Q 2888 3584 3255 3212 
Q 3622 2841 3622 2241 
Q 3622 1825 3500 1412 
Q 3378 1000 3181 728 
Q 2875 309 2494 109 
Q 2113 -91 1625 -91 
z
M 891 1344 
Q 891 869 1089 633 
Q 1288 397 1691 397 
Q 2269 397 2648 901 
Q 3028 1406 3028 2181 
Q 3028 2634 2825 2865 
Q 2622 3097 2228 3097 
Q 1903 3097 1650 2945 
Q 1397 2794 1197 2484 
Q 1050 2253 970 1956 
Q 891 1659 891 1344 
z
" transform="scale(0.015625)"/>
      <path id="DejaVuSans-Oblique-75" d="M 428 1388 
L 838 3500 
L 1416 3500 
L 1006 1409 
Q 975 1256 961 1147 
Q 947 1038 947 966 
Q 947 700 1109 554 
Q 1272 409 1569 409 
Q 2031 409 2368 721 
Q 2706 1034 2809 1563 
L 3194 3500 
L 3769 3500 
L 3091 0 
L 2516 0 
L 2631 550 
Q 2388 244 2052 76 
Q 1716 -91 1338 -91 
Q 878 -91 622 161 
Q 366 413 366 863 
Q 366 956 381 1097 
Q 397 1238 428 1388 
z
" transform="scale(0.015625)"/>
      <path id="DejaVuSans-Oblique-74" d="M 2706 3500 
L 2619 3053 
L 1472 3053 
L 1100 1153 
Q 1081 1047 1072 975 
Q 1063 903 1063 863 
Q 1063 663 1183 572 
Q 1303 481 1569 481 
L 2150 481 
L 2053 0 
L 1503 0 
Q 991 0 739 200 
Q 488 400 488 806 
Q 488 878 497 964 
Q 506 1050 525 1153 
L 897 3053 
L 409 3053 
L 500 3500 
L 978 3500 
L 1172 4494 
L 1747 4494 
L 1556 3500 
L 2706 3500 
z
" transform="scale(0.015625)"/>
     </defs>
     <use xlink:href="#DejaVuSans-Oblique-56" transform="translate(0 0.09375)"/>
     <use xlink:href="#DejaVuSans-Oblique-6f" transform="translate(68.408203 -16.3125) scale(0.7)"/>
     <use xlink:href="#DejaVuSans-Oblique-75" transform="translate(111.235352 -16.3125) scale(0.7)"/>
     <use xlink:href="#DejaVuSans-Oblique-74" transform="translate(155.600586 -16.3125) scale(0.7)"/>
    </g>
   </g>
   <g id="text_19">
    <!-- – -->
    <g transform="translate(930.393532 290.200657) scale(0.14 -0.14)">
     <use xlink:href="#DejaVuSans-2013"/>
    </g>
   </g>
   <g id="patch_30">
    <path d="M 609.893532 167.507532 
C 610.609581 167.507532 611.296398 167.223043 611.802721 166.716721 
C 612.309043 166.210398 612.593532 165.523581 612.593532 164.807532 
C 612.593532 164.091484 612.309043 163.404667 611.802721 162.898344 
C 611.296398 162.392021 610.609581 162.107532 609.893532 162.107532 
C 609.177484 162.107532 608.490667 162.392021 607.984344 162.898344 
C 607.478021 163.404667 607.193532 164.091484 607.193532 164.807532 
C 607.193532 165.523581 607.478021 166.210398 607.984344 166.716721 
C 608.490667 167.223043 609.177484 167.507532 609.893532 167.507532 
z
" clip-path="url(#p5545959c1b)" style="stroke: #000000; stroke-width: 2; stroke-linejoin: miter"/>
   </g>
   <g id="patch_31">
    <path d="M 933.893532 86.447532 
C 934.609581 86.447532 935.296398 86.163043 935.802721 85.656721 
C 936.309043 85.150398 936.593532 84.463581 936.593532 83.747532 
C 936.593532 83.031484 936.309043 82.344667 935.802721 81.838344 
C 935.296398 81.332021 934.609581 81.047532 933.893532 81.047532 
C 933.177484 81.047532 932.490667 81.332021 931.984344 81.838344 
C 931.478021 82.344667 931.193532 83.031484 931.193532 83.747532 
C 931.193532 84.463581 931.478021 85.150398 931.984344 85.656721 
C 932.490667 86.163043 933.177484 86.447532 933.893532 86.447532 
z
" clip-path="url(#p5545959c1b)" style="fill: #ffffff; stroke: #000000; stroke-width: 2; stroke-linejoin: miter"/>
   </g>
   <g id="patch_32">
    <path d="M 933.893532 356.567532 
C 934.609581 356.567532 935.296398 356.283043 935.802721 355.776721 
C 936.309043 355.270398 936.593532 354.583581 936.593532 353.867532 
C 936.593532 353.151484 936.309043 352.464667 935.802721 351.958344 
C 935.296398 351.452021 934.609581 351.167532 933.893532 351.167532 
C 933.177484 351.167532 932.490667 351.452021 931.984344 351.958344 
C 931.478021 352.464667 931.193532 353.151484 931.193532 353.867532 
C 931.193532 354.583581 931.478021 355.270398 931.984344 355.776721 
C 932.490667 356.283043 933.177484 356.567532 933.893532 356.567532 
z
" clip-path="url(#p5545959c1b)" style="fill: #ffffff; stroke: #000000; stroke-width: 2; stroke-linejoin: miter"/>
   </g>
  </g>
 </g>
 <defs>
  <clipPath id="p5545959c1b">
   <rect x="0" y="0" width="954.911532" height="381.587532"/>
  </clipPath>
 </defs>
</svg>